<?xml version="1.0" encoding="UTF-8" standalone="no"?>
<!DOCTYPE svg PUBLIC "-//W3C//DTD SVG 1.1//EN" "http://www.w3.org/Graphics/SVG/1.1/DTD/svg11.dtd">
<svg width="100%" height="100%" viewBox="0 0 947 947" version="1.1" xmlns="http://www.w3.org/2000/svg" xmlns:xlink="http://www.w3.org/1999/xlink" xml:space="preserve" xmlns:serif="http://www.serif.com/" style="fill-rule:evenodd;clip-rule:evenodd;stroke-linejoin:round;stroke-miterlimit:2;">
    <g transform="matrix(1,0,0,1,-728,-667)">
        <g>
            <path d="M1187.96,1036.95C1171.83,1022.78 1168.17,1007.33 1187.52,986.51C1185.06,985.07 1182.64,983.8 1180.37,982.3C1171.85,976.66 1165.02,969.97 1166.42,958.52C1167.48,949.84 1173.35,944.16 1179.95,939.87C1187.3,935.09 1195.58,931.71 1203.48,927.78C1205.32,926.86 1207.28,926.19 1209.92,925.11C1207.74,922.52 1205.87,920.32 1204.03,918.09C1197.66,910.39 1197.47,901.58 1202.43,892.85C1209.64,880.14 1221.62,874.2 1234.4,869.51C1248.22,864.44 1262.64,861.47 1277.36,860.82C1294.1,860.09 1310.92,859 1327.61,859.9C1362.42,861.79 1396.54,867.95 1428.58,882.37C1438.05,886.63 1446.63,892.88 1455.7,898.06C1457.6,899.15 1459.91,900.17 1462.02,900.15C1485.79,899.95 1509.56,899.47 1533.33,899.2C1559.21,898.91 1585.08,898.76 1610.96,898.56C1611.89,898.55 1612.84,898.55 1613.75,898.72C1617.91,899.46 1621.62,903.41 1621.85,907.26C1622.04,910.5 1619.38,914.46 1615.64,915.73C1613.49,916.46 1611.1,916.7 1608.81,916.73C1570.12,917.27 1531.43,917.71 1492.75,918.26C1482.03,918.41 1471.32,918.76 1460.61,919.17C1454.72,919.39 1449.39,917.72 1445.03,914.01C1434.74,905.26 1422.88,899.51 1410.38,894.86C1389.54,887.1 1367.93,882.75 1345.91,880.07C1329.93,878.13 1313.9,876.92 1297.82,877.68C1276.63,878.68 1255.48,880.43 1235.7,889.1C1231.48,890.95 1227.39,893.42 1223.83,896.33C1217.13,901.79 1217.91,907.16 1225.36,911.67C1234.76,917.37 1245.29,919.6 1255.89,920.88C1268.35,922.38 1280.94,922.8 1293.47,923.62C1296.74,923.83 1299.96,923.76 1302.55,926.38C1307.36,931.24 1306.13,938.07 1299.68,940.34C1296.89,941.32 1293.77,941.65 1290.78,941.75C1277,942.24 1263.2,941.59 1249.76,938.7C1240.74,936.76 1232.48,937.21 1223.9,940.2C1213.12,943.96 1202.23,947.36 1192.68,953.89C1191.72,954.54 1190.64,955.04 1189.78,955.79C1185,959.95 1185.2,963.51 1190.79,966.68C1200.42,972.14 1210.98,975.01 1221.79,977.01C1245.02,981.29 1268.49,982.33 1292.04,982.37C1294.37,982.37 1296.73,982.21 1299.02,982.49C1303.53,983.04 1306.27,985.8 1306.96,990.08C1307.57,993.93 1305.34,997.9 1301.28,999.46C1299.38,1000.19 1297.21,1000.51 1295.16,1000.55C1268.1,1001.04 1241.14,1000.1 1214.53,994.43C1212.85,994.07 1210.44,993.89 1209.31,994.8C1204.8,998.42 1200.17,1002.09 1196.54,1006.53C1192.66,1011.27 1193.41,1016.23 1198.33,1020.04C1202.14,1022.99 1206.55,1025.41 1211.06,1027.14C1222.43,1031.52 1234.41,1033.91 1246.53,1034.12C1262.1,1034.39 1277.7,1033.56 1293.28,1033.29C1295.1,1033.26 1296.96,1033.66 1298.76,1034.07C1302.71,1034.96 1304.53,1037.76 1304.96,1041.56C1305.43,1045.69 1303.68,1048.99 1299.9,1050.63C1298.01,1051.44 1295.9,1051.92 1293.84,1052.11C1270.33,1054.27 1246.89,1054.45 1223.59,1049.8C1210.12,1047.11 1198.21,1050.41 1188.24,1060.02C1183.06,1065.02 1183.31,1067.63 1189.52,1071.34C1198.63,1076.79 1208.77,1079.53 1219.02,1081.75C1237.24,1085.69 1255.69,1088.41 1274.31,1088.97C1301.78,1089.81 1329.28,1089.95 1356.76,1090.39C1359.09,1090.43 1361.46,1090.25 1363.73,1090.62C1368,1091.31 1371.36,1095.16 1371.65,1099.26C1371.94,1103.38 1369.02,1107.23 1364.35,1108.2C1360.95,1108.91 1357.42,1109.3 1353.95,1109.32C1336.7,1109.43 1319.44,1109.63 1302.2,1109.27C1290.81,1109.03 1279.44,1107.89 1268.06,1107.2C1267.41,1107.16 1266.74,1107.46 1265.64,1107.69C1265.46,1109.44 1265.12,1111.22 1265.12,1113C1265.14,1137.24 1265.23,1161.49 1265.24,1185.73C1265.24,1188.86 1265.9,1191.32 1268.12,1193.9C1286.74,1215.62 1305.13,1237.55 1323.58,1259.41C1330.03,1267.06 1336.44,1274.74 1342.93,1282.35C1345.65,1285.54 1346.74,1289.21 1346.76,1293.31C1346.85,1307.29 1347.05,1321.28 1347,1335.26C1346.91,1359.27 1346.68,1383.28 1346.45,1407.28C1346.43,1409.83 1346.33,1412.43 1345.78,1414.9C1344.83,1419.18 1340.31,1422.54 1336.12,1422.48C1331.42,1422.41 1327.67,1419.5 1326.6,1414.72C1326.15,1412.71 1326.16,1410.56 1326.19,1408.48C1326.46,1391.71 1326.8,1374.93 1327.09,1358.16C1327.14,1355.19 1327.1,1352.21 1327.1,1348.44L1294.1,1348.44C1293.98,1350.62 1293.76,1352.89 1293.75,1355.15C1293.67,1373.1 1293.62,1391.05 1293.56,1409C1293.55,1410.86 1293.68,1412.75 1293.42,1414.59C1292.71,1419.54 1289.43,1422.56 1284.58,1422.97C1279.59,1423.39 1275,1420.58 1274.18,1415.71C1273.46,1411.41 1273.69,1406.92 1273.68,1402.52C1273.64,1384.59 1273.66,1366.66 1273.66,1348.71C1269.11,1347.12 1245.12,1346.5 1234.97,1347.87C1234.85,1350.16 1234.6,1352.61 1234.61,1355.07C1234.66,1372.79 1234.82,1390.5 1234.78,1408.22C1234.77,1411.18 1234.41,1414.32 1233.39,1417.07C1231.74,1421.51 1227.7,1423.5 1223.33,1422.81C1219.25,1422.16 1216.32,1419.29 1215.62,1414.88C1215.29,1412.83 1215.38,1410.7 1215.37,1408.6C1215.32,1390.65 1215.28,1372.7 1215.25,1354.75C1215.24,1352.25 1215.25,1349.76 1215.25,1346.69L1179.63,1346.69C1179.47,1349.08 1179.24,1351.54 1179.17,1354.01C1178.63,1372.41 1178.13,1390.81 1177.61,1409.21C1177.56,1410.84 1177.56,1412.49 1177.33,1414.09C1176.53,1419.65 1173.31,1422.65 1168.13,1422.78C1163.39,1422.9 1158.75,1418.86 1158.12,1413.86C1157.86,1411.79 1157.94,1409.67 1158.01,1407.57C1158.86,1385 1159.9,1362.44 1160.54,1339.87C1160.94,1325.89 1160.94,1311.9 1160.72,1297.92C1160.64,1292.94 1161.84,1288.84 1165.01,1285.08C1173.41,1275.13 1181.65,1265.04 1190.06,1255.1C1198.62,1244.97 1207.37,1235.01 1215.91,1224.86C1225.05,1214 1233.95,1202.94 1243.17,1192.15C1245.31,1189.64 1246.13,1187.18 1246.09,1183.97C1245.78,1159.74 1245.61,1135.5 1245.35,1111.27C1245.28,1105.19 1244.87,1105.02 1238.54,1104.07C1218.71,1101.12 1198.9,1097.86 1181.08,1087.95C1176.49,1085.4 1172.1,1081.95 1168.65,1078C1162.26,1070.69 1163.09,1058.46 1170.24,1051.15C1174.27,1047.02 1179.05,1043.62 1183.54,1039.95C1184.75,1038.98 1186.13,1038.19 1187.96,1036.95ZM1327.45,1329.65C1327.45,1317.57 1327.55,1306.65 1327.34,1295.74C1327.31,1294.12 1326.02,1292.32 1324.88,1290.96C1319.21,1284.18 1313.34,1277.57 1307.65,1270.81C1291.48,1251.58 1275.38,1232.29 1259.21,1213.06C1257.92,1211.53 1256.33,1210.26 1254.63,1208.64C1253.42,1209.92 1252.61,1210.69 1251.89,1211.55C1243.4,1221.73 1234.94,1231.93 1226.43,1242.1C1211.95,1259.4 1197.41,1276.66 1182.95,1293.98C1181.8,1295.36 1180.28,1297.06 1180.25,1298.64C1180.07,1308.11 1180.28,1317.59 1180.36,1327.57C1229.58,1328.26 1277.94,1328.95 1327.45,1329.65Z" style="fill:rgb(205,172,105);fill-rule:nonzero;"/>
            <path d="M1646.35,1436.72C1652.59,1436.84 1658.11,1436.98 1663.63,1437.06C1670.23,1437.16 1671.68,1438.36 1672.6,1444.95C1676.16,1470.63 1675.22,1496.14 1667.88,1521.04C1661.43,1542.88 1651.25,1563.04 1635.81,1580.02C1626.55,1590.2 1615.79,1598.76 1602.87,1604.19C1597.87,1606.29 1592.82,1607.45 1587.32,1607.51C1556.81,1607.89 1526.3,1608.52 1495.8,1609.05C1488.17,1609.18 1480.46,1609.96 1472.91,1609.23C1457.62,1607.74 1444.57,1600.75 1432.99,1590.87C1416.1,1576.45 1405.03,1558.28 1397.45,1537.54C1387.95,1511.54 1385.93,1485.03 1390.28,1457.88C1390.68,1455.37 1391.38,1452.88 1392.27,1450.5C1395.24,1442.6 1397.12,1441.43 1405.64,1441.14C1410.52,1440.98 1415.39,1440.54 1420.26,1440.17C1420.67,1440.14 1421.06,1439.76 1421.7,1439.41C1419.25,1423.33 1427.91,1412.59 1439.94,1403.88C1456.12,1392.16 1474.81,1386.52 1494.13,1382.79C1512.71,1379.21 1531.5,1377.75 1550.4,1378.73C1571.64,1379.83 1592.6,1382.9 1612.28,1391.37C1624.77,1396.74 1636.37,1403.55 1643.08,1416.41C1644.98,1420.05 1646.29,1423.57 1646.32,1427.61C1646.36,1430.17 1646.35,1432.71 1646.35,1436.72ZM1410.44,1459.67C1407.52,1470 1408.02,1480.03 1408.25,1490C1408.88,1517.28 1416.95,1542.06 1433.47,1563.98C1440.17,1572.87 1448.25,1580.11 1457.99,1585.38C1464.57,1588.94 1471.53,1591.36 1479.3,1590.99C1490.18,1590.48 1501.08,1590.35 1511.98,1590.11C1535.97,1589.58 1559.95,1588.84 1583.94,1588.73C1591.08,1588.7 1597.34,1586.95 1602.96,1583.09C1608.11,1579.55 1613.13,1575.66 1617.56,1571.27C1628.41,1560.48 1636.11,1547.61 1642.25,1533.56C1652.05,1511.11 1655.48,1487.68 1654.72,1463.44C1654.64,1460.78 1653.8,1458.15 1653.26,1455.21C1650.29,1455.21 1647.99,1455.17 1645.68,1455.22C1631.01,1455.55 1616.35,1455.97 1601.68,1456.24C1572.33,1456.78 1542.99,1457.26 1513.64,1457.75C1480.8,1458.3 1447.96,1458.84 1415.11,1459.39C1413.74,1459.4 1412.37,1459.55 1410.44,1459.67ZM1441.53,1440.08C1443.91,1440.08 1446.4,1440.12 1448.89,1440.07C1468.66,1439.68 1488.44,1439.22 1508.21,1438.88C1544.98,1438.26 1581.75,1437.7 1618.52,1437.12C1618.99,1437.11 1619.46,1437.06 1619.92,1437.12C1623.74,1437.62 1625.47,1435.39 1626.28,1432.13C1627.61,1426.77 1625.34,1422.62 1621.64,1419.02C1613,1410.62 1602.07,1406.58 1590.8,1403.59C1557.8,1394.82 1524.56,1395.09 1491.39,1402.34C1477.52,1405.37 1464.06,1409.84 1452.21,1418.2C1444.81,1423.42 1440.29,1429.83 1441.53,1440.08Z" style="fill:rgb(205,172,105);fill-rule:nonzero;"/>
            <path d="M749.4,1081.21C752.17,1059.45 753.94,1037.12 761.58,1015.88C762.21,1014.13 762.62,1012.31 763.12,1010.52C769.74,987.1 779.85,965.12 791.46,943.87C803.3,922.2 817.4,901.94 833.41,883.13C850.8,862.72 870.08,844.24 891.11,827.51C915.65,807.98 942.03,791.49 970.37,778.19C1001.27,763.7 1033.5,753.25 1067.21,747.5C1088.84,743.82 1110.61,741.67 1132.54,742.36C1179.01,743.82 1223.31,753.78 1264.54,776.11C1285.79,787.61 1305.02,801.64 1322.13,818.65C1323.78,820.29 1325.41,822.01 1326.7,823.92C1329.56,828.18 1329.05,832.88 1325.65,835.98C1322.17,839.16 1316.71,839.28 1312.91,835.93C1307.33,831 1302.06,825.71 1296.44,820.83C1274.95,802.16 1250.63,788.31 1224.04,778.21C1199.69,768.97 1174.46,763.5 1148.62,761.86C1131.72,760.79 1114.63,761.55 1097.68,762.57C1067.03,764.4 1037.54,771.96 1008.76,782.43C984.17,791.37 960.96,803.12 938.74,816.9C907.85,836.05 880.58,859.53 856.21,886.35C847.62,895.79 839.83,906 832.2,916.26C820.94,931.4 811.07,947.5 802.66,964.36C795.61,978.49 789.65,993.13 784.38,1008.09C777.99,1026.21 774.92,1045.02 771.06,1063.68C769.74,1070.03 769.67,1076.63 769.03,1083.11C768.39,1089.58 764.48,1093.23 758.63,1092.81C753.3,1092.4 749.27,1087.51 749.4,1081.21Z" style="fill:rgb(205,172,105);fill-rule:nonzero;"/>
            <path d="M831.17,1373.37C827.66,1372.36 824.51,1371.65 821.5,1370.56C803.39,1363.99 795.19,1348.67 797.78,1329.63C799.09,1319.99 803,1311.34 807.92,1303.07C809.08,1301.12 810.16,1299.12 811.88,1296.08C808.25,1295.94 805.6,1295.82 802.95,1295.73C793.32,1295.39 783.96,1293.81 775.23,1289.51C757.41,1280.73 753.12,1263.31 760.6,1246.39C768.1,1229.43 780.19,1216 794.3,1204.26C797.7,1201.43 801.34,1198.89 804.57,1195.88C805.95,1194.6 806.98,1192.56 807.37,1190.7C808,1187.76 808.08,1184.69 808.19,1181.67C808.77,1166.77 809.28,1151.87 809.81,1136.97C810.06,1130 813.79,1125.92 819.85,1126.01C826,1126.1 830.18,1130.19 830.03,1136.96C829.76,1149.76 829.04,1162.56 828.49,1175.36C828.25,1180.94 827.6,1186.54 827.81,1192.11C828.04,1198.03 825.91,1202.43 821.44,1206.09C816.76,1209.92 812.35,1214.09 807.67,1217.92C797.48,1226.26 788.9,1235.97 782.06,1247.23C779.1,1252.1 777.07,1257.22 777.35,1263.05C777.54,1267.08 779.08,1270.45 782.9,1272.03C786.94,1273.71 791.11,1275.61 795.37,1276.12C801.78,1276.89 808.33,1276.49 814.81,1276.67C818.29,1276.77 821.82,1276.73 825.24,1277.29C830.42,1278.14 831.87,1280.02 831.87,1285.38C831.86,1292.81 829.43,1299.81 825.69,1305.9C820.1,1315.02 818,1324.82 817.62,1335.15C817.17,1347.52 822.9,1353.6 835.4,1354.59C837.03,1354.72 838.73,1354.46 840.27,1354.87C844.77,1356.05 848.56,1358.23 849.06,1363.47C849.91,1372.26 850.95,1381.06 851.26,1389.88C851.59,1399.42 850.92,1408.99 851.14,1418.54C851.36,1427.86 852.49,1429.34 861.43,1431.7C867.01,1433.18 872.82,1434.13 878.58,1434.53C894.44,1435.64 910.21,1433.9 925.95,1432.14C935.61,1431.06 945,1432.83 954.27,1435.12C966.6,1438.17 978.1,1443.27 988.2,1451.03C996.07,1457.07 1001.1,1464.6 1001.06,1475.28C1000.92,1511.88 1001.21,1548.47 1001.34,1585.07C1001.36,1590.43 1001.46,1595.79 1001.38,1601.15C1001.28,1608.04 997.55,1611.96 991.35,1611.88C985.38,1611.8 981.83,1608.15 981.76,1601.4C981.59,1585.32 981.67,1569.23 981.56,1553.15C981.37,1527.28 981.01,1501.42 980.94,1475.55C980.93,1471.1 979.32,1468.09 975.86,1465.52C963.11,1456.06 948.77,1450.92 932.98,1450.89C923.24,1450.87 913.51,1452.35 903.77,1453.06C885.07,1454.42 866.47,1454.41 848.82,1446.83C837.31,1441.89 830.67,1433.29 830.71,1420.39C830.75,1407.34 831.02,1394.29 831.17,1381.24C831.2,1378.71 831.17,1376.19 831.17,1373.37Z" style="fill:rgb(205,172,105);fill-rule:nonzero;"/>
            <path d="M1061.35,1326.57L1061.35,1596.49C1061.35,1598.82 1061.52,1601.18 1061.22,1603.47C1060.54,1608.67 1056.76,1611.87 1051.69,1611.84C1046.66,1611.81 1042.87,1608.55 1042.15,1603.43C1041.89,1601.6 1042.04,1599.71 1042.04,1597.84C1041.93,1486.89 1041.91,1375.94 1041.67,1264.99C1041.52,1195.54 1041.03,1126.08 1040.79,1056.63C1040.78,1053.21 1041.2,1049.62 1042.3,1046.42C1043.72,1042.3 1047.7,1040.37 1051.74,1040.87C1056.28,1041.44 1059.38,1044.4 1060.02,1048.99C1060.27,1050.83 1060.2,1052.71 1060.21,1054.57C1060.24,1071.12 1060.26,1087.67 1060.26,1104.22L1060.26,1326.56C1060.63,1326.57 1060.99,1326.57 1061.35,1326.57Z" style="fill:rgb(205,172,105);fill-rule:nonzero;"/>
            <path d="M1539.42,1109.83C1516.59,1109.83 1493.77,1109.93 1470.94,1109.74C1466.66,1109.7 1463.58,1110.8 1460.59,1113.99C1438.68,1137.29 1410.6,1148.15 1379.79,1152.91C1359.37,1156.06 1338.91,1155.73 1318.83,1150.33C1311.9,1148.47 1305.18,1145.76 1298.48,1143.13C1292.66,1140.85 1290.35,1135.42 1292.54,1130.17C1294.66,1125.07 1300.59,1122.76 1306.06,1125.65C1316.96,1131.41 1328.6,1133.99 1340.71,1135.5C1358.1,1137.66 1375.08,1135.68 1391.92,1131.61C1409.58,1127.34 1425.7,1119.76 1439.71,1108.08C1442.89,1105.43 1445.51,1102.05 1448.15,1098.82C1452.41,1093.63 1457.43,1091.37 1464.46,1091.43C1511.76,1091.89 1559.06,1091.91 1606.37,1092.13C1609.37,1092.14 1612.45,1092.35 1615.36,1093.02C1619.42,1093.96 1623.64,1098.72 1623.11,1101.88C1622.46,1105.76 1619.9,1108.66 1616.17,1109.92C1613.82,1110.72 1611.16,1110.9 1608.65,1110.91C1585.58,1110.98 1562.51,1110.95 1539.44,1110.95C1539.42,1110.57 1539.42,1110.2 1539.42,1109.83Z" style="fill:rgb(205,172,105);fill-rule:nonzero;"/>
            <path d="M1451.46,1201.75C1450.89,1237.84 1450.33,1273.93 1449.75,1310.01C1449.55,1322.34 1449.39,1334.68 1449.07,1347.01C1448.88,1354.04 1444.94,1357.79 1438.74,1357.22C1434.71,1356.85 1431.52,1354.29 1430.42,1349.89C1429.81,1347.46 1429.77,1344.83 1429.79,1342.29C1430.32,1284.07 1430.89,1225.86 1431.47,1167.64C1431.49,1165.55 1431.56,1163.43 1431.96,1161.39C1433.09,1155.55 1436.62,1152.76 1442.16,1153.09C1446.99,1153.38 1451.39,1157.52 1451.56,1162.61C1451.8,1169.59 1451.59,1176.58 1451.58,1183.57C1451.57,1189.63 1451.58,1195.68 1451.58,1201.74C1451.54,1201.75 1451.5,1201.75 1451.46,1201.75Z" style="fill:rgb(205,172,106);fill-rule:nonzero;"/>
            <path d="M1177.46,1502.18L1177.46,1544.77C1177.46,1546.4 1177.55,1548.04 1177.42,1549.66C1176.97,1555.37 1173.63,1558.91 1168.36,1559.4C1163.68,1559.84 1159.02,1556.25 1157.86,1551.05C1157.41,1549.03 1157.31,1546.9 1157.3,1544.82C1157.12,1515.5 1156.97,1486.18 1156.83,1456.86C1156.82,1455.23 1156.74,1453.57 1157.02,1451.99C1157.91,1446.96 1162.53,1443.15 1167.36,1443.29C1172.34,1443.43 1175.82,1446.54 1176.73,1451.95C1177.08,1454 1177.06,1456.12 1177.06,1458.21C1177.09,1472.87 1177.07,1487.53 1177.07,1502.19C1177.21,1502.18 1177.33,1502.18 1177.46,1502.18Z" style="fill:rgb(205,172,106);fill-rule:nonzero;"/>
            <path d="M1296,1546.34C1295.9,1547.3 1295.92,1549.66 1295.37,1551.89C1294.11,1556.99 1290.64,1559.64 1285.87,1559.49C1281.93,1559.37 1277.07,1555.59 1276.18,1551.64C1275.73,1549.62 1275.76,1547.48 1275.72,1545.4C1275.12,1517.71 1274.56,1490.01 1273.95,1462.32C1273.88,1459.07 1273.29,1455.81 1273.43,1452.57C1273.7,1446.15 1277.71,1441.98 1283.27,1441.88C1288.94,1441.79 1292.87,1445.71 1293.5,1452.14C1293.59,1453.06 1293.56,1454 1293.58,1454.93C1294.15,1481.69 1294.71,1508.46 1295.31,1535.22C1295.36,1538.47 1295.7,1541.72 1296,1546.34Z" style="fill:rgb(205,172,105);fill-rule:nonzero;"/>
            <path d="M1236.18,1520.26C1236.18,1528.87 1236.04,1537.48 1236.25,1546.09C1236.34,1549.9 1235.05,1552.96 1232.5,1555.49C1227.37,1560.58 1218.9,1558.46 1216.77,1551.55C1216.17,1549.59 1216.01,1547.43 1215.99,1545.36C1215.7,1515.11 1215.46,1484.86 1215.23,1454.61C1215.22,1453.22 1215.21,1451.81 1215.4,1450.43C1216.09,1445.27 1219.26,1442.09 1223.89,1441.78C1228.49,1441.47 1232.18,1444.16 1233.49,1449.19C1234.13,1451.64 1234.33,1454.24 1234.4,1456.78C1235,1477.94 1235.52,1499.1 1236.06,1520.26L1236.18,1520.26Z" style="fill:rgb(205,172,106);fill-rule:nonzero;"/>
            <path d="M1352.46,1537.03C1352.46,1540.52 1352.59,1544.01 1352.43,1547.49C1352.16,1553.45 1348.89,1557.06 1343.75,1557.36C1338.29,1557.67 1334.77,1554.86 1333.47,1549.05C1333.22,1547.93 1333.16,1546.75 1333.1,1545.59C1331.74,1518.2 1330.37,1490.82 1329.06,1463.43C1328.86,1459.25 1328.7,1455.05 1328.88,1450.88C1329.13,1444.89 1332.84,1441.37 1338.6,1441.25C1344.2,1441.13 1347.53,1444.06 1348.3,1449.97C1348.69,1452.96 1348.96,1455.98 1349.07,1459C1349.78,1478.05 1350.39,1497.1 1351.12,1516.14C1351.39,1523.1 1351.91,1530.06 1352.32,1537.02C1352.37,1537.03 1352.41,1537.03 1352.46,1537.03Z" style="fill:rgb(205,172,106);fill-rule:nonzero;"/>
            <path d="M997.78,1077.3C998.12,1083.53 993.92,1088.38 988.31,1088.69C982.78,1088.99 978.56,1085.25 978.06,1078.71C977.3,1068.78 976.82,1058.82 976.63,1048.86C976.52,1042.62 980.82,1038.07 986.06,1037.94C991.25,1037.82 995.13,1041.44 996.15,1047.49C996.42,1049.08 996.42,1050.72 996.51,1052.34C996.94,1060.67 997.36,1068.98 997.78,1077.3Z" style="fill:rgb(206,173,107);fill-rule:nonzero;"/>
            <path d="M939.87,1073.22C939.87,1075.78 939.96,1078.34 939.85,1080.89C939.62,1086.09 936.73,1089.44 932.09,1090.09C927.22,1090.77 922.47,1088.17 920.87,1083.73C920.25,1082 919.93,1080.12 919.75,1078.28C918.99,1070.18 918.18,1062.08 917.67,1053.96C917.27,1047.59 920.26,1043.73 925.77,1042.8C932.26,1041.71 936.97,1045.65 938.01,1053.05C938.07,1053.51 938.1,1053.98 938.13,1054.44C938.63,1060.7 939.14,1066.95 939.64,1073.21C939.72,1073.22 939.8,1073.22 939.87,1073.22Z" style="fill:rgb(206,173,107);fill-rule:nonzero;"/>
            <path d="M867.29,1059.1C867.29,1057.86 867.14,1056 867.32,1054.16C867.8,1049.12 871.93,1044.88 876.66,1044.4C881.71,1043.89 885.77,1046.99 887.02,1052.6C887.57,1055.06 887.65,1057.64 887.8,1060.18C888.17,1066.42 888.52,1072.66 888.74,1078.91C888.81,1080.96 888.74,1083.1 888.26,1085.08C887.2,1089.45 884.28,1091.81 879.95,1092.25C876.18,1092.63 872.07,1090.3 870.45,1086.55C869.73,1084.88 869.33,1083 869.16,1081.18C868.47,1074.04 867.93,1066.88 867.29,1059.1Z" style="fill:rgb(205,172,106);fill-rule:nonzero;"/>
            <path d="M834.98,1071.51C834.98,1075.92 835.11,1080.33 834.95,1084.74C834.74,1090.43 831.76,1093.88 826.94,1094.42C821.25,1095.05 817.29,1092.11 816.04,1086.1C815.62,1084.08 815.67,1081.95 815.54,1079.87C815.15,1073.86 814.63,1067.85 814.46,1061.84C814.39,1059.12 814.64,1056.25 815.47,1053.67C817.03,1048.8 820.14,1046.8 824.8,1046.92C829.23,1047.03 832.46,1049.53 833.8,1054.19C834.31,1055.95 834.5,1057.84 834.55,1059.68C834.66,1063.62 834.58,1067.57 834.58,1071.52C834.72,1071.51 834.85,1071.51 834.98,1071.51Z" style="fill:rgb(206,173,108);fill-rule:nonzero;"/>
            <path d="M1237.68,1599.91C1237.68,1601.53 1237.78,1603.16 1237.66,1604.78C1237.29,1609.69 1233.64,1613.37 1228.78,1613.86C1223.86,1614.36 1219.31,1611.52 1218.43,1606.57C1217.62,1602.05 1217.26,1597.33 1217.58,1592.75C1217.96,1587.27 1222.22,1583.93 1227.45,1584.05C1232.44,1584.16 1236.75,1587.89 1237.4,1592.97C1237.69,1595.25 1237.45,1597.6 1237.45,1599.92C1237.52,1599.91 1237.6,1599.91 1237.68,1599.91Z" style="fill:rgb(206,173,107);fill-rule:nonzero;"/>
            <path d="M1297.95,1599.35C1297.95,1601.21 1298.09,1603.08 1297.92,1604.92C1297.52,1609.37 1294.77,1612.51 1290.83,1613.26C1286.09,1614.16 1281.1,1612.24 1280.14,1607.7C1278.91,1601.92 1278.73,1595.78 1279.04,1589.85C1279.23,1586.3 1283.59,1583.53 1287.14,1583.27C1291.19,1582.98 1295.22,1585.13 1296.52,1589.1C1297.58,1592.34 1297.71,1595.89 1298.25,1599.3C1298.15,1599.31 1298.05,1599.33 1297.95,1599.35Z" style="fill:rgb(206,173,108);fill-rule:nonzero;"/>
            <path d="M1355.26,1598.31C1355.82,1603.4 1354.44,1607.49 1349.8,1610.17C1344.28,1613.36 1337.53,1611.03 1335.86,1604.84C1334.85,1601.11 1334.61,1597.07 1334.68,1593.18C1334.78,1587.71 1337.92,1584.37 1342.88,1583.55C1347.57,1582.77 1352.53,1585.81 1354.1,1590.81C1354.83,1593.2 1354.89,1595.8 1355.26,1598.31Z" style="fill:rgb(206,173,108);fill-rule:nonzero;"/>
            <path d="M1179.1,1600.53C1179.1,1602.11 1179.17,1603.28 1179.09,1604.43C1178.76,1609.29 1176.02,1612.55 1171.73,1613.25C1166.65,1614.08 1162.27,1611.69 1160.95,1606.67C1160.02,1603.12 1159.58,1599.32 1159.68,1595.65C1159.82,1590.61 1163.23,1587.34 1167.92,1586.83C1172.99,1586.28 1177.11,1588.99 1178.36,1594.02C1178.9,1596.26 1178.89,1598.63 1179.1,1600.53Z" style="fill:rgb(206,173,107);fill-rule:nonzero;"/>
        </g>
    </g>
</svg>
