<?xml version="1.0" encoding="UTF-8" standalone="no"?>
<!DOCTYPE svg PUBLIC "-//W3C//DTD SVG 1.1//EN" "http://www.w3.org/Graphics/SVG/1.1/DTD/svg11.dtd">
<svg width="100px" height="100px" viewBox="0 0 759 759" version="1.1" xmlns="http://www.w3.org/2000/svg" xmlns:xlink="http://www.w3.org/1999/xlink" xml:space="preserve" xmlns:serif="http://www.serif.com/" style="fill-rule:evenodd;clip-rule:evenodd;stroke-linejoin:round;stroke-miterlimit:2;">
    <g transform="matrix(1,0,0,1,-824,-827)">
        <g>
            <path d="M1169.92,1577.83C1160.26,1576.61 1150.54,1575.79 1140.96,1574.12C1100.99,1567.15 1063.09,1554.06 1027.38,1534.74C1001.39,1520.68 977.45,1503.72 955.49,1483.92C919.55,1451.52 891.16,1413.49 870.01,1370.03C860.53,1350.56 853.04,1330.33 847.04,1309.51C840.69,1287.49 836.56,1265.05 834.49,1242.28C832.32,1218.37 832.57,1194.44 835.02,1170.5C839.98,1122.04 854.1,1076.43 876.95,1033.49C890.48,1008.06 906.91,984.61 926.02,963.01C959.2,925.5 998.36,895.96 1043.43,874.22C1069.53,861.63 1096.77,852.29 1125.1,846.21C1137.07,843.64 1149.09,841.37 1161.36,840.64C1166.39,840.34 1171.38,839.35 1176.39,838.67C1176.8,838.65 1177.21,838.63 1177.61,838.61C1195.39,837.49 1213.17,837.16 1230.95,838.6C1231.35,838.62 1231.76,838.64 1232.16,838.66C1244.28,840.35 1256.43,841.64 1268.53,843.72C1287.84,847.03 1306.74,851.65 1325.2,858.07C1369.79,873.56 1410.02,896.67 1445.82,927.48C1484.78,961 1515.39,1000.94 1537.85,1047.13C1552.38,1077.02 1562.8,1108.33 1568.49,1141.05C1570.24,1151.1 1571.79,1161.28 1572.67,1171.56C1573.67,1183.13 1574.58,1194.66 1574.62,1206.26C1574.68,1225.32 1573.49,1244.22 1570.47,1263.14C1568.29,1276.78 1565.94,1290.32 1562.4,1303.63C1549.11,1353.63 1526.4,1398.93 1494.19,1439.44C1464.9,1476.27 1429.83,1506.41 1389.12,1529.94C1360.19,1546.65 1329.55,1559.32 1297.14,1567.46C1284.74,1570.57 1272.18,1573.11 1259.6,1575.42C1252.35,1576.75 1244.92,1577.08 1237.58,1577.86C1236.82,1577.89 1236.05,1577.92 1235.29,1577.95C1230.97,1578.31 1226.65,1578.66 1222.33,1579.02C1220.12,1579.07 1217.91,1579.12 1215.7,1579.16L1191.82,1579.16C1189.97,1579.11 1188.13,1579.07 1186.28,1579.03C1181.96,1578.69 1177.65,1578.34 1173.33,1578C1172.17,1577.93 1171.05,1577.88 1169.92,1577.83ZM1234.36,857.29C1233.23,857.24 1232.09,857.19 1230.96,857.14C1225.54,856.83 1220.13,856.51 1214.71,856.2C1206.3,856.2 1197.89,856.21 1189.49,856.21C1179.43,857.22 1169.38,858.28 1159.31,859.23C1145.62,860.53 1132.19,863.22 1118.86,866.54C1089.28,873.91 1061.15,884.91 1034.41,899.56C997.04,920.03 964.47,946.45 936.71,978.71C914.66,1004.33 896.66,1032.57 882.76,1063.45C864.61,1103.77 854.23,1146 851.83,1190.1C850.52,1214.26 851.9,1238.35 855.62,1262.31C861.67,1301.25 873.84,1338.11 892.21,1372.93C913.04,1412.42 940.37,1446.72 974.25,1475.84C1007.98,1504.84 1045.85,1526.56 1087.77,1541.31C1111.83,1549.77 1136.54,1555.62 1161.77,1559.11C1169.47,1560.18 1177.33,1560.05 1185.12,1560.47C1185.54,1560.49 1185.95,1560.5 1186.37,1560.52C1203.06,1561.76 1219.7,1561.01 1236.33,1559.43C1236.75,1559.4 1237.17,1559.38 1237.59,1559.35C1240.81,1559 1244.06,1558.83 1247.24,1558.27C1260.73,1555.87 1274.31,1553.85 1287.65,1550.77C1320.24,1543.25 1350.85,1530.58 1379.83,1513.93C1417.25,1492.44 1449.59,1464.92 1476.88,1431.52C1501.67,1401.17 1520.88,1367.58 1534.5,1330.8C1546.23,1299.11 1553.4,1266.37 1555.61,1232.7C1557.28,1207.15 1556.49,1181.56 1552.47,1156.2C1550.86,1146.02 1548.86,1135.88 1546.47,1125.85C1538.57,1092.6 1525.91,1061.22 1508.75,1031.66C1485.39,991.41 1455.14,957.2 1418.29,928.83C1387.67,905.25 1353.95,887.39 1317.44,874.8C1300.31,868.9 1282.75,864.54 1264.9,861.5C1254.78,859.8 1244.55,858.68 1234.36,857.29Z" style="fill:rgb(205,171,104);fill-rule:nonzero;"/>
            <path d="M1215.67,1579.15C1217.88,1579.1 1220.09,1579.05 1222.3,1579.01C1220.12,1580.42 1217.91,1580.38 1215.67,1579.15Z" style="fill:rgb(224,224,200);fill-rule:nonzero;"/>
            <path d="M1186.25,1579.01C1188.1,1579.05 1189.94,1579.1 1191.79,1579.14C1189.92,1580.32 1188.07,1580.33 1186.25,1579.01Z" style="fill:rgb(224,224,200);fill-rule:nonzero;"/>
            <path d="M1169.92,1577.83C1171.05,1577.88 1172.18,1577.93 1173.3,1577.97C1172.17,1577.93 1171.05,1577.88 1169.92,1577.83Z" style="fill:rgb(218,210,175);fill-rule:nonzero;"/>
            <path d="M1235.26,1577.93C1236.02,1577.9 1236.79,1577.87 1237.55,1577.84C1236.79,1577.87 1236.03,1577.9 1235.26,1577.93Z" style="fill:rgb(216,208,170);fill-rule:nonzero;"/>
            <path d="M1177.61,838.61C1177.2,838.63 1176.79,838.65 1176.39,838.67C1176.8,838.65 1177.2,838.63 1177.61,838.61Z" style="fill:rgb(240,214,181);fill-rule:nonzero;"/>
            <path d="M1232.16,838.66C1231.76,838.64 1231.35,838.62 1230.95,838.6C1231.35,838.62 1231.76,838.64 1232.16,838.66Z" style="fill:rgb(240,214,181);fill-rule:nonzero;"/>
            <path d="M1214.71,856.2C1213.5,856.46 1212.3,856.94 1211.09,856.96C1205.1,857.04 1199.11,857.03 1193.12,856.95C1191.91,856.93 1190.7,856.47 1189.49,856.21C1197.89,856.21 1206.3,856.2 1214.71,856.2Z" style="fill:rgb(222,220,191);fill-rule:nonzero;"/>
            <path d="M1234.36,857.29C1233.23,857.24 1232.09,857.19 1230.96,857.13C1232.09,857.19 1233.22,857.24 1234.36,857.29Z" style="fill:rgb(220,217,186);fill-rule:nonzero;"/>
            <path d="M1236.34,1559.45C1236.76,1559.42 1237.18,1559.4 1237.6,1559.37C1237.18,1559.39 1236.76,1559.42 1236.34,1559.45Z" style="fill:rgb(240,214,181);fill-rule:nonzero;"/>
            <path d="M1185.12,1560.48C1185.54,1560.5 1185.95,1560.51 1186.37,1560.53C1185.96,1560.52 1185.54,1560.5 1185.12,1560.48Z" style="fill:rgb(239,210,175);fill-rule:nonzero;"/>
            <path d="M1220.24,993.74C1235.34,995.49 1250.39,997.75 1264.67,1003.16C1325.63,1026.26 1363.31,1069.65 1377.16,1133.42C1380.28,1147.81 1381.25,1162.5 1380.19,1177.21C1378.28,1203.66 1370.97,1228.54 1357.91,1251.69C1350.64,1264.58 1341.45,1275.98 1331.61,1286.97C1323.99,1295.48 1316.99,1304.56 1309.81,1313.46C1289.98,1338.05 1270.26,1362.74 1250.33,1387.26C1245.64,1393.03 1240.26,1398.22 1235.27,1403.75C1225.54,1414.54 1215.88,1425.38 1206.17,1436.18C1204.14,1438.44 1201.98,1440.59 1199.43,1443.28C1197.75,1441.39 1196.4,1440.01 1195.21,1438.52C1165.69,1401.42 1138.65,1362.48 1110.39,1324.45C1096.42,1305.65 1082.22,1287.03 1068.19,1268.27C1052.82,1247.72 1043.17,1224.67 1037.85,1199.62C1034.65,1184.57 1033.88,1169.39 1034.99,1154.21C1037.79,1116.13 1051.65,1082.38 1076.61,1053.42C1101.35,1024.73 1132.32,1006.1 1169.29,997.83C1178.78,995.7 1188.58,994.94 1198.23,993.55C1199.35,993.52 1200.47,993.48 1201.6,993.45C1205.22,993.45 1208.83,993.45 1212.45,993.44C1213.2,993.45 1213.96,993.46 1214.71,993.48C1216.1,993.54 1217.5,993.6 1218.89,993.66C1219.32,993.67 1219.78,993.7 1220.24,993.74ZM1210.3,1229.02C1212.98,1228.6 1215.7,1228.33 1218.34,1227.73C1254.71,1219.52 1276.92,1184.54 1269.81,1149.27C1261.16,1106.38 1215.88,1083.16 1176,1101.2C1149.53,1113.17 1133.04,1140.56 1137.6,1172.09C1142.06,1202.92 1165.89,1225.18 1197.16,1229.02C1197.55,1229.04 1197.93,1229.06 1198.32,1229.09C1201.57,1229.11 1204.81,1229.13 1208.06,1229.15C1208.8,1229.1 1209.55,1229.06 1210.3,1229.02Z" style="fill:rgb(204,170,102);fill-rule:nonzero;"/>
            <path d="M1201.58,993.43C1200.46,993.46 1199.34,993.5 1198.21,993.53C1199.33,993.5 1200.46,993.46 1201.58,993.43Z" style="fill:rgb(238,207,169);fill-rule:nonzero;"/>
            <path d="M1214.68,993.46C1213.93,993.45 1213.17,993.44 1212.42,993.42C1213.18,993.43 1213.93,993.45 1214.68,993.46Z" style="fill:rgb(239,209,173);fill-rule:nonzero;"/>
            <path d="M1220.24,993.74C1219.78,993.71 1219.32,993.68 1218.87,993.64C1219.32,993.67 1219.78,993.7 1220.24,993.74Z" style="fill:rgb(239,209,173);fill-rule:nonzero;"/>
            <path d="M1208.06,1229.14C1208.81,1229.1 1209.55,1229.06 1210.3,1229.02C1209.55,1229.06 1208.8,1229.1 1208.06,1229.14Z" style="fill:rgb(230,193,144);fill-rule:nonzero;"/>
            <path d="M1197.16,1229.01C1197.55,1229.03 1197.93,1229.05 1198.32,1229.08C1197.93,1229.05 1197.55,1229.03 1197.16,1229.01Z" style="fill:rgb(230,193,144);fill-rule:nonzero;"/>
        </g>
    </g>
</svg>
