<?xml version="1.0" encoding="UTF-8" standalone="no"?>
<!DOCTYPE svg PUBLIC "-//W3C//DTD SVG 1.1//EN" "http://www.w3.org/Graphics/SVG/1.1/DTD/svg11.dtd">
<svg width="100%" height="100%" viewBox="0 0 1157 1157" version="1.1" xmlns="http://www.w3.org/2000/svg" xmlns:xlink="http://www.w3.org/1999/xlink" xml:space="preserve" xmlns:serif="http://www.serif.com/" style="fill-rule:evenodd;clip-rule:evenodd;stroke-linejoin:round;stroke-miterlimit:2;">
    <g transform="matrix(1,0,0,1,-834,-560)">
        <g>
            <path d="M1454.69,1094.6C1455.52,1094.52 1456.36,1094.44 1457.2,1094.36C1458.41,1093.92 1459.62,1093.48 1460.84,1093.04C1461.7,1093 1462.57,1092.96 1463.43,1092.92C1465.11,1092.52 1466.79,1092.12 1468.47,1091.73L1507.01,1091.73C1501.27,1071.52 1514.87,1062.41 1528.23,1053.16C1527.95,1052.73 1527.68,1052.29 1527.4,1051.86C1524.72,1051.64 1522.05,1051.36 1519.37,1051.21C1491.77,1049.63 1465.6,1055.67 1440.37,1066.38C1424.63,1073.06 1409.11,1080.26 1393.23,1086.6C1384.03,1090.27 1374.45,1093.18 1364.83,1095.56C1354.73,1098.06 1346.46,1093.32 1343.28,1084.37C1340.74,1077.22 1342.21,1071.51 1349.14,1068.36C1360.72,1063.09 1372.51,1058.02 1384.65,1054.33C1399.49,1049.82 1414.89,1047.15 1429.86,1043.01C1438.43,1040.64 1446.57,1036.73 1455.01,1033.85C1467.07,1029.73 1479.15,1025.6 1491.39,1022.06C1505.94,1017.86 1520.58,1017.91 1535.01,1023.09C1536.42,1023.6 1537.92,1023.87 1539.77,1024.36C1540.17,1023.19 1540.68,1022.33 1540.73,1021.44C1541.52,1007.47 1548.83,997.6 1560.31,990.41C1578.06,979.3 1597.97,974.43 1618.38,972.61C1637.41,970.92 1656.67,970.25 1675.75,971.09C1711.66,972.66 1746.77,979.4 1779.96,993.63C1790.89,998.31 1801.05,1004.97 1811.06,1011.51C1814.92,1014.03 1818.31,1015.5 1822.89,1015.43C1872.72,1014.7 1922.54,1014.12 1972.37,1013.52C1974.92,1013.49 1977.5,1013.37 1980.03,1013.63C1986.02,1014.25 1989.76,1018.17 1989.73,1023.52C1989.7,1028.5 1986.18,1032.34 1980.65,1033.27C1979.15,1033.52 1977.59,1033.47 1976.06,1033.49C1945.91,1033.97 1915.77,1034.42 1885.62,1034.92C1864.42,1035.27 1843.2,1035.35 1822.02,1036.23C1813.5,1036.59 1806.3,1034.45 1800.09,1029.11C1785.39,1016.47 1767.76,1009.85 1749.65,1004.25C1726.14,996.97 1701.99,993.36 1677.46,991.47C1651.03,989.44 1624.9,990.68 1599.1,996.63C1591.69,998.34 1584.5,1001.21 1577.44,1004.11C1571.97,1006.35 1567.22,1009.89 1564.13,1015.21C1561.36,1019.98 1561.37,1022.68 1565.8,1025.79C1570.13,1028.83 1574.96,1031.52 1579.96,1033.15C1592.61,1037.29 1605.69,1039.5 1619.04,1039.99C1627.46,1040.3 1635.89,1040.63 1644.28,1041.26C1650.55,1041.73 1653.96,1045.54 1653.72,1051.06C1653.53,1055.36 1651.57,1058.33 1647.32,1059.52C1644.17,1060.4 1640.81,1060.82 1637.53,1060.91C1620.1,1061.39 1602.87,1059.62 1585.8,1056.12C1583.42,1055.63 1580.73,1055.53 1578.41,1056.13C1564.29,1059.77 1550.48,1064.28 1537.73,1071.6C1533.22,1074.19 1529.09,1077.02 1526.86,1082.46C1528.49,1087.07 1532.71,1088.97 1536.85,1090.88C1551.88,1097.79 1567.9,1101.15 1584.22,1102.43C1604.06,1103.98 1623.98,1104.46 1643.86,1105.4C1645.14,1105.46 1646.44,1105.38 1647.68,1105.62C1651.95,1106.44 1655.03,1109.8 1655.49,1113.96C1655.96,1118.2 1653.93,1122.43 1650,1123.96C1647.46,1124.95 1644.56,1125.3 1641.81,1125.37C1613.66,1126.09 1585.64,1124.67 1558.01,1118.85C1553.96,1118 1551.02,1118.59 1548.31,1121.26C1544.86,1124.66 1541.31,1128 1538.21,1131.71C1534.07,1136.65 1534.44,1140.53 1538.74,1145.16C1544.15,1150.99 1551.07,1154.11 1558.48,1156.36C1572.5,1160.6 1586.87,1162.81 1601.5,1162.65C1614.5,1162.5 1627.5,1161.69 1640.5,1161.25C1642.25,1161.19 1644.08,1161.37 1645.77,1161.82C1650.52,1163.09 1653.66,1166.77 1653.77,1170.92C1653.9,1175.51 1650.99,1179.89 1645.9,1180.82C1638.65,1182.13 1631.26,1183 1623.9,1183.29C1604.47,1184.08 1585.14,1183.26 1565.98,1179.32C1551.66,1176.37 1539.23,1180.57 1528.92,1190.92C1523.79,1196.06 1523.57,1198.98 1529.8,1202.26C1537.85,1206.5 1546.4,1210.18 1555.15,1212.62C1575.85,1218.38 1597.16,1221.38 1618.58,1222.18C1648.43,1223.3 1678.32,1223.37 1708.2,1223.88C1710.5,1223.92 1712.83,1223.69 1715.09,1224.01C1720.09,1224.73 1724.06,1229.21 1724.2,1233.95C1724.32,1238.13 1721.37,1242.13 1716.61,1243.36C1713.43,1244.18 1710.05,1244.63 1706.76,1244.59C1677.9,1244.21 1649.04,1243.66 1620.18,1243.22C1616.53,1243.16 1612.15,1240.04 1609.58,1245.49C1609.47,1245.73 1608.12,1245.52 1607.39,1245.32C1601.04,1243.61 1594.74,1241.7 1588.36,1240.15C1583.92,1239.08 1579.32,1238.68 1574.88,1237.63C1562.25,1234.63 1549.41,1232.19 1537.13,1228.09C1528.8,1225.31 1520.78,1220.81 1513.6,1215.69C1509.57,1212.82 1506,1207.48 1504.96,1202.67C1503.14,1194.22 1497.78,1191.1 1490.62,1189.12C1490.02,1188.96 1489.43,1188.79 1488.83,1188.62C1488.99,1189.25 1489.15,1189.88 1489.3,1190.51C1492.36,1194.52 1495.32,1198.61 1498.51,1202.52C1501.05,1205.64 1504.12,1208.38 1504.84,1212.46C1502.37,1214.92 1500.78,1213.1 1499.31,1211.88C1493.25,1206.81 1487.3,1201.61 1481.25,1196.54C1479.98,1195.48 1478.44,1194.75 1476.35,1193.46C1475.56,1202.6 1481.85,1207.19 1485.83,1213.19C1475.94,1211.94 1469.2,1205.85 1463.37,1198.4C1458.44,1202.88 1458.87,1210.42 1452.43,1212.54C1451.67,1212.79 1450.61,1212.14 1449.27,1211.79C1451.31,1207.22 1455.34,1203.46 1452.34,1196.91C1449.91,1199.9 1448.01,1202.39 1445.95,1204.73C1444.02,1206.92 1441.91,1208.96 1439.16,1210.69C1437.67,1203.4 1444.23,1197.44 1441.62,1189.78C1433.85,1192.46 1432.02,1202.49 1423.4,1204.15C1421.27,1197.8 1427.46,1193.27 1426.84,1186.74C1418.1,1189.5 1414.99,1201.16 1403.63,1201.27C1407.05,1194.13 1414.64,1190.18 1412.89,1181.58C1405.09,1183.24 1399.39,1190.47 1390.35,1188.88C1391.94,1182.66 1400.23,1181.74 1400.37,1174.81C1392.74,1173.46 1386,1179.1 1377.27,1177.8C1381.29,1172.73 1388.3,1172.65 1390.57,1166.63C1383.19,1160.42 1374.35,1159.95 1364.65,1159.77C1366.8,1155.92 1370.19,1156.17 1372.76,1155.26C1375.37,1154.33 1378.3,1154.35 1380.94,1153.49C1388.26,1151.14 1394.35,1152.33 1400.91,1156.94C1411.24,1164.19 1423.42,1167.72 1435.83,1169.87C1464.64,1174.85 1492.73,1171.56 1520.22,1162.08C1521.15,1161.76 1521.99,1161.14 1523.19,1160.48C1518.58,1152.27 1511.79,1144.92 1514.36,1134.55C1516.63,1125.4 1521.69,1117.83 1528.47,1110.64C1522.32,1106.22 1516.49,1101.85 1510.43,1097.83C1509.11,1096.96 1506.97,1097.21 1505.21,1097.15C1490.85,1096.72 1476.64,1098.13 1462.63,1101.23C1443.63,1105.43 1425.06,1110.86 1408.26,1121.15C1405.48,1122.85 1402.43,1124.13 1399.51,1125.6C1399.03,1124.2 1398.56,1122.8 1398.08,1121.4C1399.49,1120.17 1400.91,1118.95 1402.32,1117.73C1405.15,1117.51 1407.68,1116.81 1408.8,1113.78C1409.17,1113.5 1409.57,1113.29 1410.02,1113.14C1412.82,1112.86 1415.38,1112.21 1416.47,1109.17C1417.86,1108.42 1419.25,1107.67 1420.65,1106.93C1422.85,1105.84 1425.05,1104.74 1427.26,1103.64C1428.17,1103.23 1429.08,1102.83 1429.99,1102.42C1435.06,1101.59 1440.28,1101.13 1444.1,1097.03C1446.42,1096.65 1448.73,1096.28 1451.05,1095.91C1452.26,1095.45 1453.48,1095.02 1454.69,1094.6ZM1497.98,1180.8C1498.77,1185.07 1501.2,1186.68 1503.72,1188.06C1504.26,1188.36 1505.81,1187.79 1506.17,1187.18C1506.53,1186.59 1506.27,1184.94 1505.75,1184.63C1503.54,1183.31 1501.13,1182.31 1497.98,1180.8ZM1507.5,1175.18C1510.01,1176.13 1511.53,1176.75 1513.1,1177.21C1513.2,1177.24 1514.09,1175.82 1513.89,1175.48C1512.69,1173.35 1511.06,1172.46 1507.5,1175.18ZM1428.08,1184.66C1427.96,1184.51 1427.83,1184.36 1427.71,1184.21C1427.58,1184.35 1427.34,1184.49 1427.34,1184.64C1427.34,1184.79 1427.56,1184.94 1427.68,1185.09C1427.81,1184.94 1427.95,1184.8 1428.08,1184.66ZM1475.94,1192.33C1475.79,1192.13 1475.65,1191.94 1475.5,1191.74C1475.32,1191.91 1475.01,1192.06 1474.99,1192.24C1474.97,1192.42 1475.25,1192.63 1475.4,1192.82C1475.58,1192.67 1475.76,1192.5 1475.94,1192.33ZM1414.01,1179.57C1413.86,1179.73 1413.59,1179.88 1413.59,1180.04C1413.59,1180.2 1413.84,1180.37 1413.98,1180.53C1414.13,1180.38 1414.4,1180.23 1414.41,1180.07C1414.42,1179.91 1414.16,1179.75 1414.01,1179.57Z" style="fill:rgb(206,172,106);fill-rule:nonzero;"/>
            <path d="M1663.03,1288.96C1656.76,1286.24 1651.91,1284.07 1647.01,1282.02C1640.27,1279.2 1637.19,1273.23 1639.65,1267.56C1642.24,1261.59 1649.13,1259.75 1655.9,1263.2C1675.9,1273.41 1697.25,1275.49 1719.24,1273.6C1731.5,1272.55 1743.45,1270 1755.14,1266.16C1772.4,1260.49 1787.82,1251.79 1800.66,1238.81C1802.98,1236.46 1805.02,1233.83 1807.06,1231.22C1810.25,1227.14 1814.11,1225.06 1819.53,1225.09C1871.42,1225.4 1923.31,1225.52 1975.21,1225.79C1978.23,1225.81 1981.33,1226.34 1984.24,1227.19C1988.38,1228.4 1990.41,1231.73 1990.65,1235.86C1990.89,1240.1 1988.72,1243.34 1984.88,1244.96C1982.61,1245.92 1979.95,1246.35 1977.46,1246.34C1944.23,1246.27 1911,1246.13 1877.77,1245.89C1860.91,1245.77 1844.05,1245.46 1827.19,1245.13C1823.92,1245.07 1821.58,1245.89 1819.32,1248.59C1802.98,1268.05 1781.47,1279.32 1757.65,1286.68C1740.96,1291.84 1723.92,1294.74 1706.36,1294.3C1699.45,1294.13 1699.76,1294.44 1697.67,1300.91C1688.9,1328.1 1680.92,1355.61 1670.77,1382.28C1659.69,1411.4 1645.18,1439.07 1628.43,1465.38C1607.93,1497.58 1584.41,1527.43 1555.99,1553.1C1550.2,1558.33 1547.73,1563.73 1548.09,1571.67C1549.11,1594.12 1549.27,1616.61 1549.8,1639.09C1550.25,1658.5 1550.72,1677.91 1551.22,1697.31C1551.43,1705.64 1547.76,1711.63 1540.23,1714.98C1529.88,1719.59 1518.26,1713.75 1515,1702.26C1514.04,1698.88 1513.76,1695.22 1513.68,1691.68C1513.37,1677.37 1513.36,1663.05 1513.06,1648.74C1512.7,1631.38 1512.18,1614.01 1511.69,1596.65C1511.65,1595.14 1511.35,1593.64 1511.19,1592.23C1507.63,1590.27 1505.83,1593.32 1503.59,1594.59C1491.18,1601.68 1479.1,1609.37 1466.45,1615.99C1431.56,1634.25 1394.44,1646.02 1355.66,1652.68C1327.88,1657.45 1299.89,1659.25 1271.74,1658.48C1265.36,1658.31 1258.96,1657.95 1252.65,1657.1C1239.34,1655.3 1232.31,1642.18 1238.56,1630.96C1242.66,1623.6 1249.73,1621.37 1257.48,1621.86C1303.29,1624.78 1348.29,1620.39 1392.32,1607.25C1417.85,1599.63 1442.06,1588.94 1465.22,1575.65C1484.13,1564.8 1501.95,1552.41 1518.27,1538.13C1531.67,1526.4 1544.07,1513.43 1556.17,1500.32C1572.82,1482.28 1586.75,1462.18 1599.64,1441.25C1618.34,1410.87 1633.44,1378.89 1644.89,1345.17C1651.06,1326.88 1656.76,1308.38 1663.03,1288.96Z" style="fill:rgb(205,172,106);fill-rule:nonzero;"/>
            <path d="M886.31,1003.04C898.91,1003.53 910.69,1000.79 923.5,1002.41C922.97,1005.87 922.4,1008.53 922.17,1011.21C921.08,1023.65 919.73,1036.08 919.12,1048.55C918.31,1065.12 917.32,1081.74 917.83,1098.3C918.66,1125.31 919.43,1152.41 922.4,1179.24C926.63,1217.44 931.99,1255.6 942.02,1292.8C948.59,1317.17 955.82,1341.41 964.16,1365.22C970.3,1382.76 978.07,1399.82 986.29,1416.51C997.23,1438.73 1009.85,1460.09 1025.55,1479.35C1038.99,1495.83 1053.87,1510.87 1072.83,1521.24C1077.25,1523.66 1081.56,1526.35 1085.68,1529.27C1088.54,1531.3 1089.4,1534.45 1089.45,1538.04C1089.68,1552.59 1090.22,1567.13 1090.51,1581.68C1091.22,1617.17 1091.85,1652.66 1092.51,1688.15C1092.56,1690.96 1092.64,1693.78 1092.5,1696.58C1092.03,1706.35 1085.72,1713.23 1076.56,1714.11C1067.03,1715.02 1059.67,1709.94 1057.11,1700.56C1056.58,1698.61 1056.29,1696.55 1056.21,1694.53C1055.74,1682.54 1055.3,1670.56 1054.97,1658.56C1054.23,1631.26 1053.59,1603.95 1052.84,1576.65C1052.67,1570.28 1051.85,1563.9 1052.03,1557.55C1052.16,1552.83 1050.31,1550.07 1046.5,1547.65C1034.83,1540.23 1024.26,1531.51 1014.48,1521.65C997.11,1504.12 982.76,1484.42 969.97,1463.43C951.02,1432.32 936.96,1399.03 924.68,1364.86C915.43,1339.12 909.27,1312.57 902.37,1286.17C895.54,1260.08 894.16,1233.36 890.53,1206.9C887.2,1182.65 884.54,1158.31 881.88,1133.97C881.13,1127.14 881.29,1120.19 881.25,1113.3C881.16,1100.01 880.8,1086.71 881.32,1073.45C882.14,1052.54 883.56,1031.65 884.82,1010.76C884.95,1008.49 885.67,1006.28 886.31,1003.04Z" style="fill:rgb(205,172,106);fill-rule:nonzero;"/>
            <path d="M1230.56,1095.42C1226.67,1097.54 1222.65,1097.94 1218.46,1096.41C1217.24,1096 1216.03,1095.59 1214.81,1095.18C1212.49,1094.73 1210.16,1094.27 1207.84,1093.82C1206.58,1093.25 1205.33,1092.68 1204.07,1092.11C1202.77,1091.7 1201.46,1091.3 1200.16,1090.9C1197.65,1087.49 1193.72,1088.2 1190.28,1087.49C1188.98,1087.04 1187.68,1086.58 1186.37,1086.13C1179.27,1080.73 1171.64,1076.45 1162.6,1075.27C1160.3,1074.32 1157.99,1073.37 1155.69,1072.42C1154.44,1071.82 1153.19,1071.22 1151.94,1070.62C1150.63,1070.25 1149.32,1069.88 1148.01,1069.51C1141.95,1064.88 1134.8,1062.94 1127.53,1061.31C1122.6,1059.95 1117.67,1058.58 1112.74,1057.22C1112.13,1055.59 1111.4,1054.31 1109.6,1056.15C1108.6,1055.98 1107.6,1055.81 1106.6,1055.65C1105.54,1053.16 1103.99,1052.8 1101.94,1054.58C1100.42,1054.45 1098.9,1054.32 1097.38,1054.2C1096.47,1053.46 1095.59,1052.11 1094.63,1052.05C1083.83,1051.38 1073,1050.29 1062.22,1050.63C1057.06,1050.79 1051.22,1050.36 1046.51,1053.86C1044.45,1054.03 1042.39,1054.21 1040.33,1054.38C1032.83,1052.68 1026.86,1056.75 1020.55,1059.58C1016.51,1061.63 1012.46,1063.68 1008.42,1065.73C1007.32,1066.55 1006.21,1067.37 1005.11,1068.19C1004.21,1068.93 1003.31,1069.67 1002.41,1070.4C998.65,1070.43 996.8,1072.66 995.93,1076.02C994.04,1077.75 992.15,1079.48 990.26,1081.22C986.39,1081.09 984.55,1083.37 983.66,1086.77C981.14,1088.94 978.62,1091.11 976.1,1093.28C974.55,1094.36 973,1095.44 971.45,1096.52C967.7,1099.24 963.96,1101.97 960.21,1104.69C959.74,1104.26 959.27,1103.83 958.8,1103.4C959.71,1101.83 960.33,1099.97 961.58,1098.74C979.24,1081.15 996.27,1062.94 1014.64,1046.03C1024.94,1036.55 1035.31,1028.11 1048.92,1024.04C1061.9,1020.16 1074.76,1019.48 1088.03,1022.71C1103.66,1026.52 1119.04,1031.08 1133.71,1037.61C1148.08,1044 1163.41,1046.66 1178.49,1050.27C1195.65,1054.38 1212.33,1059.78 1228.5,1066.79C1232.49,1068.52 1236.45,1070.37 1238.57,1074.56C1239.16,1075.74 1239.75,1076.91 1240.34,1078.09C1240.39,1079.02 1240.44,1079.95 1240.49,1080.88C1239.3,1084.03 1238.11,1087.17 1236.92,1090.32L1236.94,1090.3C1235.88,1091.28 1234.81,1092.27 1233.75,1093.25L1233.74,1093.26C1232.68,1093.97 1231.62,1094.7 1230.56,1095.42Z" style="fill:rgb(206,173,107);fill-rule:nonzero;"/>
            <path d="M1170.14,1184.42C1169.88,1189.14 1172.28,1192.68 1175.25,1195.97C1176.92,1197.82 1179.1,1199.51 1177.13,1203.13C1169.41,1201.27 1165.08,1193.61 1156.69,1190.59C1157.84,1196.11 1158.79,1200.7 1159.74,1205.28C1159.17,1205.61 1158.59,1205.95 1158.02,1206.28C1155.3,1203.79 1152.51,1201.38 1149.88,1198.8C1147.25,1196.23 1144.79,1193.49 1141.51,1190.06C1138.07,1198.81 1144.4,1204.12 1145.58,1210.14C1143.92,1212.88 1141.97,1212.82 1140.28,1211.18C1138.48,1209.44 1137.02,1207.32 1135.51,1205.29C1134.05,1203.32 1132.73,1201.25 1130.78,1198.4C1127.21,1204.81 1132.95,1208.59 1132.99,1213.24C1126.73,1213.53 1125.11,1211.59 1120.82,1198.59C1119.38,1199.79 1117.84,1200.58 1117.05,1201.83C1113.35,1207.68 1107.9,1211.36 1101.87,1214.27C1100.32,1215.02 1098.38,1214.96 1096.18,1214.54C1100.54,1208.68 1107.02,1204.44 1106.53,1195.53C1095.22,1199.79 1089.83,1211.41 1077.69,1216.26C1079.35,1205.3 1089.89,1201.23 1091.95,1191.71C1085.75,1191.21 1082.87,1196.33 1078.49,1198.21C1074.19,1200.06 1070.07,1202.3 1065.26,1204.68C1066.49,1198.85 1067.03,1198.26 1078.16,1190.08C1081.32,1188.69 1083.83,1186.78 1083.38,1182.08C1080.82,1183.8 1078.27,1185.52 1075.71,1187.24C1074.35,1187.7 1072.98,1188.15 1071.62,1188.61C1069.39,1189.73 1067.16,1190.85 1064.94,1191.97C1064.04,1192.34 1063.13,1192.71 1062.23,1193.08C1060.07,1194.18 1057.91,1195.27 1055.74,1196.37C1053.92,1196.88 1052.09,1197.39 1050.27,1197.91C1049.06,1198.36 1047.85,1198.82 1046.64,1199.28C1045.24,1199.17 1043.85,1199.06 1042.45,1198.96C1042.24,1198.49 1042.04,1198.01 1041.83,1197.54C1050.86,1192.98 1060.3,1189 1066.91,1181.05C1069.35,1180.64 1070.98,1179.54 1070.97,1175.36C1068.93,1176.65 1067.7,1177.43 1066.46,1178.22C1049.31,1189.12 1030.09,1189.84 1010.68,1189.56C1009.68,1189.55 1008.65,1189.35 1007.71,1189.01C1007.04,1188.77 1006.51,1188.15 1005.7,1187.54C1007.67,1183.24 1011.58,1183.82 1014.8,1182.94C1023.14,1180.66 1031.46,1178.3 1039.77,1175.9C1040.38,1175.72 1040.82,1174.96 1042.35,1173.5C1031.82,1173.83 1022.37,1174.94 1013.06,1174.18C1003.73,1173.42 994.04,1172.73 983.78,1167.21C995.71,1163.42 1006.53,1169.52 1017.22,1164.49C1005.14,1160.57 993.36,1157.52 982.55,1150.67C985.55,1146.33 988.73,1147.92 991.71,1148.86C1000.83,1151.73 1010.19,1152.38 1019.66,1151.91C1021.08,1151.84 1022.48,1151.21 1024.7,1150.62C1022.29,1141.34 1014.49,1135.32 1011.89,1126.82C1012.32,1126.47 1012.74,1126.12 1013.17,1125.78C1016.37,1129.11 1019.92,1132.17 1022.68,1135.83C1026.28,1140.6 1030.15,1144.81 1035.63,1147.42C1037.45,1148.29 1039.16,1149.49 1040.72,1150.8C1054.31,1162.21 1070.77,1166.88 1087.65,1169.98C1098.38,1171.95 1109.4,1173.28 1120.29,1173.27C1136.63,1173.25 1152.93,1171.34 1168.23,1164.94C1173.84,1162.59 1178.96,1159.11 1184.44,1156.42C1187.1,1155.11 1190.12,1153.51 1192.9,1153.63C1201.47,1154.01 1209.65,1156.53 1219.29,1159.26C1213.9,1162.86 1209.11,1160.62 1205.08,1162.12C1201.12,1163.59 1197.22,1165.24 1193.24,1166.84C1194.77,1173.75 1201.17,1174.55 1205.27,1178.61C1200.47,1181.2 1197.15,1178.22 1193.66,1177.76C1189.97,1177.28 1186.34,1176.34 1182.1,1175.48C1182.83,1183.36 1190.82,1183.85 1193.32,1189.48C1190.44,1192.31 1187.25,1191.06 1184.38,1189.77C1180,1187.78 1175.81,1185.36 1171.54,1183.13C1170.95,1182.97 1170.35,1182.81 1169.76,1182.65C1169.86,1183.22 1170,1183.82 1170.14,1184.42ZM1093.36,1189.74C1093.53,1189.59 1093.83,1189.45 1093.84,1189.28C1093.86,1189.11 1093.6,1188.92 1093.46,1188.74C1093.29,1188.89 1093,1189.03 1092.98,1189.2C1092.97,1189.36 1093.23,1189.55 1093.36,1189.74ZM1156.16,1188.81C1156.09,1188.95 1156.02,1189.1 1155.95,1189.25C1156.22,1189.26 1156.5,1189.27 1156.77,1189.28C1156.71,1189.13 1156.68,1188.94 1156.57,1188.83C1156.5,1188.75 1156.31,1188.81 1156.16,1188.81ZM1107.28,1193.33C1107.11,1193.49 1106.8,1193.65 1106.79,1193.82C1106.78,1193.99 1107.06,1194.18 1107.22,1194.36C1107.39,1194.19 1107.68,1194.02 1107.69,1193.84C1107.69,1193.67 1107.41,1193.48 1107.28,1193.33Z" style="fill:rgb(208,177,114);fill-rule:nonzero;"/>
            <path d="M1187.38,1125.56C1189.11,1127.88 1192.29,1129.19 1192.66,1133.77C1145.13,1102.26 1094.15,1091.45 1038.27,1103.68C1039.42,1099.12 1042.46,1097.61 1045.6,1097.03C1055.57,1095.2 1065.56,1093.18 1075.64,1092.31C1085.01,1091.5 1094.52,1091.64 1103.92,1092.17C1112.25,1092.64 1120.6,1093.79 1128.78,1095.44C1141.82,1098.06 1154.15,1102.74 1165.75,1109.41C1172.17,1113.1 1178.7,1116.51 1183.16,1122.71C1184.58,1123.66 1185.98,1124.61 1187.38,1125.56Z" style="fill:rgb(211,180,120);fill-rule:nonzero;"/>
            <path d="M1398.09,1121.36C1398.57,1122.76 1399.04,1124.16 1399.52,1125.56C1395.41,1132.29 1387.05,1140.14 1381.62,1141.87C1381.77,1139.98 1381.28,1137.69 1382.13,1136.94C1387.73,1132.03 1390.05,1123.73 1398.09,1121.36Z" style="fill:rgb(220,196,149);fill-rule:nonzero;"/>
            <path d="M1046.52,1053.86C1051.23,1050.36 1057.07,1050.79 1062.23,1050.63C1073.01,1050.29 1083.84,1051.37 1094.64,1052.05C1095.6,1052.11 1096.47,1053.45 1097.39,1054.2C1089.29,1053.78 1081.18,1053.05 1073.08,1053.03C1066.5,1053.01 1059.92,1053.92 1053.33,1054.26C1051.08,1054.37 1048.79,1054.01 1046.52,1053.86Z" style="fill:rgb(213,191,139);fill-rule:nonzero;"/>
            <path d="M1162.62,1075.27C1171.66,1076.45 1179.28,1080.72 1186.39,1086.13C1184.95,1085.87 1183.36,1085.92 1182.11,1085.3C1175.56,1082.05 1169.1,1078.63 1162.62,1075.27Z" style="fill:rgb(213,191,139);fill-rule:nonzero;"/>
            <path d="M1061.63,1204.26C1063.32,1210.19 1059.35,1211.45 1056.7,1213.26C1054.74,1214.6 1052.87,1214.03 1051.86,1210.54C1054.83,1208.63 1057.97,1206.62 1061.63,1204.26Z" style="fill:rgb(218,194,144);fill-rule:nonzero;"/>
            <path d="M1020.56,1059.58C1026.86,1056.75 1032.84,1052.68 1040.34,1054.38C1033.75,1056.11 1027.16,1057.85 1020.56,1059.58Z" style="fill:rgb(213,191,139);fill-rule:nonzero;"/>
            <path d="M1127.55,1061.31C1134.82,1062.94 1141.96,1064.88 1148.03,1069.51C1140.66,1068.11 1133.54,1066.12 1127.55,1061.31Z" style="fill:rgb(213,191,139);fill-rule:nonzero;"/>
            <path d="M957.25,1106.71C957.88,1110.86 956.25,1112.6 952.98,1112.65C952.33,1112.66 951.06,1111.37 951.1,1110.74C951.32,1107.11 954.05,1106.87 957.25,1106.71Z" style="fill:rgb(218,193,143);fill-rule:nonzero;"/>
            <path d="M1075.7,1187.25C1078.26,1185.53 1080.81,1183.81 1083.37,1182.09C1083.82,1186.8 1081.31,1188.71 1078.15,1190.09C1077.33,1189.15 1076.51,1188.2 1075.7,1187.25Z" style="fill:rgb(218,194,144);fill-rule:nonzero;"/>
            <path d="M1197.2,1135.93C1200.47,1137.3 1201.99,1139.44 1200.5,1143.18C1196.42,1143.49 1195.8,1140.73 1195.19,1137.95C1195.85,1137.27 1196.52,1136.6 1197.2,1135.93Z" style="fill:rgb(218,193,143);fill-rule:nonzero;"/>
            <path d="M1444.1,1096.99C1440.28,1101.09 1435.06,1101.55 1429.99,1102.38C1433.57,1097.67 1439.16,1098.17 1444.1,1096.99Z" style="fill:rgb(220,196,149);fill-rule:nonzero;"/>
            <path d="M1190.29,1087.48C1193.73,1088.19 1197.66,1087.48 1200.17,1090.89C1196.3,1091.43 1192.88,1090.66 1190.29,1087.48Z" style="fill:rgb(213,191,139);fill-rule:nonzero;"/>
            <path d="M1236.93,1090.3C1238.12,1087.15 1239.31,1084.01 1240.5,1080.86C1241.15,1084.71 1240.65,1088.11 1236.93,1090.3Z" style="fill:rgb(213,191,139);fill-rule:nonzero;"/>
            <path d="M995.94,1076.03C996.81,1072.67 998.67,1070.45 1002.42,1070.41C1001.15,1073.3 999.43,1075.69 995.94,1076.03Z" style="fill:rgb(213,191,139);fill-rule:nonzero;"/>
            <path d="M983.67,1086.77C984.57,1083.37 986.41,1081.09 990.27,1081.22C988.94,1084.1 987.17,1086.46 983.67,1086.77Z" style="fill:rgb(213,191,139);fill-rule:nonzero;"/>
            <path d="M1416.47,1109.13C1415.38,1112.17 1412.81,1112.83 1410.02,1113.1C1411.17,1110.15 1413.55,1109.21 1416.47,1109.13Z" style="fill:rgb(220,196,149);fill-rule:nonzero;"/>
            <path d="M1055.72,1196.38C1057.88,1195.28 1060.04,1194.19 1062.21,1193.09C1060.83,1195.74 1058.85,1197.2 1055.72,1196.38Z" style="fill:rgb(218,194,144);fill-rule:nonzero;"/>
            <path d="M1064.92,1191.98C1067.15,1190.86 1069.38,1189.74 1071.6,1188.62C1070.06,1191.1 1068.01,1192.57 1064.92,1191.98Z" style="fill:rgb(218,194,144);fill-rule:nonzero;"/>
            <path d="M1427.26,1103.6C1425.06,1104.7 1422.86,1105.79 1420.65,1106.89C1422.06,1104.2 1424.08,1102.73 1427.26,1103.6Z" style="fill:rgb(220,196,149);fill-rule:nonzero;"/>
            <path d="M1066.45,1178.22C1067.69,1177.44 1068.92,1176.65 1070.96,1175.36C1070.97,1179.53 1069.34,1180.64 1066.9,1181.05C1066.75,1180.1 1066.6,1179.16 1066.45,1178.22Z" style="fill:rgb(237,229,209);fill-rule:nonzero;"/>
            <path d="M1408.81,1113.74C1407.69,1116.77 1405.16,1117.47 1402.33,1117.69C1403.52,1114.78 1405.83,1113.72 1408.81,1113.74Z" style="fill:rgb(220,196,149);fill-rule:nonzero;"/>
            <path d="M971.46,1096.52C973.01,1095.44 974.56,1094.36 976.11,1093.28C975.35,1095.49 974.96,1098.24 971.46,1096.52Z" style="fill:rgb(213,191,139);fill-rule:nonzero;"/>
            <path d="M1101.96,1054.58C1104.01,1052.79 1105.56,1053.15 1106.62,1055.65C1105.07,1055.29 1103.51,1054.94 1101.96,1054.58Z" style="fill:rgb(213,191,139);fill-rule:nonzero;"/>
            <path d="M1468.46,1091.72C1466.78,1092.12 1465.1,1092.52 1463.42,1092.91C1464.69,1090.78 1466.23,1089.79 1468.46,1091.72Z" style="fill:rgb(220,196,149);fill-rule:nonzero;"/>
            <path d="M1187.38,1125.56C1185.98,1124.61 1184.58,1123.65 1183.17,1122.7C1185.31,1122.59 1187.27,1122.72 1187.38,1125.56Z" style="fill:rgb(218,193,143);fill-rule:nonzero;"/>
            <path d="M1230.56,1095.42C1231.62,1094.69 1232.68,1093.97 1233.74,1093.24C1232.68,1093.97 1231.62,1094.7 1230.56,1095.42Z" style="fill:rgb(213,191,139);fill-rule:nonzero;"/>
            <path d="M1005.12,1068.19C1006.22,1067.37 1007.33,1066.55 1008.43,1065.73C1007.33,1066.55 1006.22,1067.37 1005.12,1068.19Z" style="fill:rgb(213,191,139);fill-rule:nonzero;"/>
            <path d="M1151.95,1070.62C1153.2,1071.22 1154.45,1071.82 1155.7,1072.42C1154.45,1071.81 1153.2,1071.22 1151.95,1070.62Z" style="fill:rgb(213,191,139);fill-rule:nonzero;"/>
            <path d="M1204.08,1092.1C1205.34,1092.67 1206.59,1093.25 1207.85,1093.81C1206.6,1093.24 1205.34,1092.67 1204.08,1092.1Z" style="fill:rgb(213,191,139);fill-rule:nonzero;"/>
            <path d="M1240.35,1078.08C1239.76,1076.9 1239.17,1075.73 1238.58,1074.55C1239.17,1075.73 1239.76,1076.9 1240.35,1078.08Z" style="fill:rgb(213,191,139);fill-rule:nonzero;"/>
            <path d="M1233.76,1093.23C1234.82,1092.25 1235.89,1091.26 1236.95,1090.28C1235.89,1091.26 1234.82,1092.25 1233.76,1093.23Z" style="fill:rgb(213,191,139);fill-rule:nonzero;"/>
            <path d="M1460.83,1093.03C1459.62,1093.47 1458.41,1093.91 1457.19,1094.35C1458.08,1093.02 1458.87,1091.43 1460.83,1093.03Z" style="fill:rgb(220,196,149);fill-rule:nonzero;"/>
            <path d="M1214.82,1095.18C1216.04,1095.59 1217.25,1096 1218.47,1096.41C1217.25,1096 1216.04,1095.59 1214.82,1095.18Z" style="fill:rgb(213,191,139);fill-rule:nonzero;"/>
            <path d="M1046.61,1199.28C1047.82,1198.82 1049.03,1198.37 1050.24,1197.91C1049.04,1198.37 1047.83,1198.83 1046.61,1199.28Z" style="fill:rgb(218,194,144);fill-rule:nonzero;"/>
            <path d="M1109.62,1056.15C1111.42,1054.32 1112.15,1055.59 1112.76,1057.22C1111.71,1056.86 1110.67,1056.51 1109.62,1056.15Z" style="fill:rgb(213,191,139);fill-rule:nonzero;"/>
            <path d="M1454.69,1094.6C1453.48,1095.02 1452.26,1095.45 1451.05,1095.87C1452.26,1095.44 1453.48,1095.02 1454.69,1094.6Z" style="fill:rgb(220,196,149);fill-rule:nonzero;"/>
            <path d="M1197.2,1135.93C1196.53,1136.6 1195.86,1137.28 1195.18,1137.95C1195.85,1137.27 1196.52,1136.6 1197.2,1135.93Z" style="fill:rgb(211,180,120);fill-rule:nonzero;"/>
            <path d="M1497.98,1180.8C1501.12,1182.3 1503.54,1183.31 1505.75,1184.63C1506.26,1184.94 1506.52,1186.59 1506.17,1187.18C1505.81,1187.78 1504.27,1188.35 1503.72,1188.06C1501.2,1186.69 1498.77,1185.07 1497.98,1180.8Z" style="fill:rgb(227,209,173);fill-rule:nonzero;"/>
            <path d="M1507.5,1175.18C1511.06,1172.47 1512.68,1173.35 1513.89,1175.49C1514.08,1175.83 1513.2,1177.25 1513.1,1177.22C1511.53,1176.75 1510.01,1176.13 1507.5,1175.18Z" style="fill:rgb(227,210,174);fill-rule:nonzero;"/>
        </g>
    </g>
</svg>
