<?xml version="1.0" encoding="UTF-8" standalone="no"?>
<!DOCTYPE svg PUBLIC "-//W3C//DTD SVG 1.1//EN" "http://www.w3.org/Graphics/SVG/1.1/DTD/svg11.dtd">
<svg width="100px" height="100px" viewBox="0 0 753 753" version="1.1" xmlns="http://www.w3.org/2000/svg" xmlns:xlink="http://www.w3.org/1999/xlink" xml:space="preserve" xmlns:serif="http://www.serif.com/" style="fill-rule:evenodd;clip-rule:evenodd;stroke-linejoin:round;stroke-miterlimit:2;">
    <g transform="matrix(1,0,0,1,-913,-828)">
        <g>
            <path d="M1250.11,1574.24C1243.3,1573.37 1236.46,1572.71 1229.7,1571.6C1188.57,1564.89 1149.72,1551.44 1113.05,1531.68C1089.14,1518.8 1066.95,1503.42 1046.45,1485.58C1005.27,1449.72 973.46,1406.9 951.07,1357.12C937.45,1326.83 928.16,1295.23 923.04,1262.39C919.71,1241.02 918.3,1219.53 918.78,1197.94C919.18,1179.97 920.75,1162.1 923.74,1144.33C930.04,1106.82 941.81,1071.13 959.03,1037.27C974.42,1007 993.68,979.39 1016.72,954.36C1049.74,918.48 1088.35,890.32 1132.41,869.56C1161.13,856.02 1191.16,846.46 1222.36,840.81C1232.29,839.01 1242.23,836.91 1252.49,836.98C1258.95,837.02 1265.42,835.77 1271.89,835.1C1272.65,835.08 1273.4,835.06 1274.16,835.03C1285.04,835.03 1295.92,835.02 1306.81,835.02C1307.56,835.04 1308.32,835.07 1309.07,835.09C1314.45,835.73 1319.81,836.44 1325.2,836.98C1329.88,837.44 1334.62,837.47 1339.27,838.11C1346.21,839.07 1353.1,840.39 1360.01,841.58C1378.99,844.85 1397.43,850.13 1415.51,856.69C1456.89,871.69 1494.46,893.29 1528.17,921.63C1571.44,958.01 1604.56,1002.05 1627.88,1053.48C1639.32,1078.7 1647.7,1104.96 1653.17,1132.1C1655.03,1141.31 1656.63,1150.6 1657.68,1159.93C1659.95,1180.12 1661.18,1200.41 1660.03,1220.72C1659.44,1231.18 1657.74,1241.57 1656.96,1252.03C1656.08,1263.8 1653.98,1275.34 1651.44,1286.83C1643.94,1320.75 1631.72,1352.9 1615.1,1383.36C1596.97,1416.6 1574.28,1446.44 1546.95,1472.67C1523.65,1495.04 1497.89,1514.13 1469.61,1529.81C1441.99,1545.12 1412.94,1556.84 1382.34,1564.54C1370.1,1567.62 1357.62,1569.75 1345.21,1572.08C1339.75,1573.11 1334.18,1573.56 1328.66,1574.27C1327.89,1574.31 1327.12,1574.35 1326.35,1574.39C1323.12,1574.71 1319.89,1575.04 1316.66,1575.36C1315.16,1575.41 1313.66,1575.46 1312.15,1575.51C1302.39,1575.8 1292.63,1576.23 1282.86,1576.32C1277.81,1576.37 1272.75,1575.81 1267.7,1575.53C1266.19,1575.47 1264.68,1575.42 1263.17,1575.36C1259.95,1575.14 1256.73,1574.93 1253.5,1574.71C1252.38,1574.55 1251.25,1574.39 1250.11,1574.24ZM1265.3,853.67C1254.9,855.05 1244.51,856.6 1234.09,857.78C1223.32,859 1212.8,861.35 1202.32,864.04C1174.41,871.21 1147.76,881.56 1122.41,895.26C1071.76,922.64 1030.33,960.24 997.88,1007.74C980.47,1033.22 966.67,1060.59 956.77,1089.81C952.35,1102.84 948.53,1116.11 945.11,1129.44C943.01,1137.63 941.9,1146.12 940.88,1154.53C939.44,1166.41 937.86,1178.32 937.48,1190.26C937.05,1203.85 937.69,1217.48 938.2,1231.08C938.85,1248.14 941.72,1264.9 945.44,1281.54C952.98,1315.25 965.06,1347.22 981.91,1377.39C1002.59,1414.42 1029.1,1446.68 1061.37,1474.14C1088.24,1497 1118.01,1515.28 1150.38,1529.38C1175.96,1540.52 1202.71,1547.77 1229.93,1553.28C1240.45,1555.41 1251.2,1556.93 1262.05,1556.87C1262.47,1556.89 1262.88,1556.92 1263.3,1556.94C1281.06,1558.32 1298.81,1558.43 1316.56,1556.88C1316.96,1556.86 1317.36,1556.84 1317.76,1556.82C1327.98,1555.67 1338.34,1555.23 1348.38,1553.19C1363.79,1550.06 1379.22,1546.6 1394.22,1541.93C1458.01,1522.05 1511.85,1486.72 1555.78,1436.34C1585.88,1401.83 1608.19,1362.79 1623.01,1319.52C1628.89,1302.36 1633.92,1284.94 1636.22,1266.84C1637.75,1254.81 1640.46,1242.87 1641.16,1230.81C1642.8,1202.33 1641.9,1173.9 1636.91,1145.68C1631.41,1114.58 1622.23,1084.64 1608.77,1056.09C1585.8,1007.34 1553.51,965.82 1511.57,931.88C1462.86,892.45 1407.57,867.71 1345.72,857.74C1334.66,855.96 1323.48,855 1312.35,853.66C1310.85,853.61 1309.36,853.57 1307.86,853.52C1295.52,853.51 1283.17,853.5 1270.83,853.49C1269.01,853.55 1267.15,853.61 1265.3,853.67Z" style="fill:rgb(205,171,104);fill-rule:nonzero;"/>
            <path d="M1263.18,1575.34C1264.69,1575.4 1266.2,1575.45 1267.71,1575.51C1266.21,1575.46 1264.7,1575.4 1263.18,1575.34Z" style="fill:rgb(216,208,170);fill-rule:nonzero;"/>
            <path d="M1312.16,1575.49C1313.66,1575.44 1315.16,1575.39 1316.67,1575.34C1315.17,1575.39 1313.66,1575.44 1312.16,1575.49Z" style="fill:rgb(217,210,174);fill-rule:nonzero;"/>
            <path d="M1250.11,1574.24C1251.25,1574.39 1252.38,1574.54 1253.52,1574.69C1252.38,1574.54 1251.25,1574.39 1250.11,1574.24Z" style="fill:rgb(219,214,181);fill-rule:nonzero;"/>
            <path d="M1274.15,835.02C1273.39,835.04 1272.64,835.06 1271.88,835.09C1272.64,835.06 1273.4,835.04 1274.15,835.02Z" style="fill:rgb(236,205,165);fill-rule:nonzero;"/>
            <path d="M1309.07,835.08C1308.32,835.06 1307.56,835.03 1306.81,835.01C1307.56,835.03 1308.31,835.05 1309.07,835.08Z" style="fill:rgb(236,205,165);fill-rule:nonzero;"/>
            <path d="M1326.35,1574.37C1327.12,1574.33 1327.89,1574.29 1328.66,1574.25C1327.89,1574.29 1327.12,1574.33 1326.35,1574.37Z" style="fill:rgb(217,210,174);fill-rule:nonzero;"/>
            <path d="M1270.86,853.5C1269.04,854.78 1267.19,854.8 1265.3,853.68C1267.15,853.61 1269.01,853.55 1270.86,853.5Z" style="fill:rgb(219,214,181);fill-rule:nonzero;"/>
            <path d="M1312.38,853.66C1310.88,853.61 1309.39,853.57 1307.89,853.52C1309.39,853.57 1310.88,853.62 1312.38,853.66Z" style="fill:rgb(219,214,181);fill-rule:nonzero;"/>
            <path d="M1262.06,1556.88C1262.48,1556.9 1262.89,1556.93 1263.31,1556.95C1262.89,1556.93 1262.48,1556.9 1262.06,1556.88Z" style="fill:rgb(239,210,174);fill-rule:nonzero;"/>
            <path d="M1316.57,1556.89C1316.97,1556.87 1317.37,1556.85 1317.77,1556.83C1317.37,1556.85 1316.97,1556.87 1316.57,1556.89Z" style="fill:rgb(239,210,174);fill-rule:nonzero;"/>
            <path d="M1311.16,1181.67C1311.09,1184.03 1310.97,1186.38 1310.97,1188.74C1310.96,1278.47 1310.96,1368.2 1310.96,1457.94L1310.96,1464.76C1303.4,1466.54 1236.61,1466.52 1231.29,1464.72C1231.09,1459.15 1230.69,1453.39 1230.69,1447.63C1230.65,1361.35 1230.66,1275.07 1230.66,1188.79C1230.66,1186.43 1230.55,1184.07 1230.49,1181.72C1230.09,1181.47 1229.69,1181.22 1229.29,1180.98C1211.92,1180.98 1194.56,1180.99 1177.19,1180.99C1176.76,1180.95 1176.32,1180.91 1175.89,1180.87C1175.6,1179.68 1175.05,1178.49 1175.05,1177.3C1175,1158.41 1175.01,1139.53 1175.03,1120.64C1175.03,1119.77 1175.19,1118.89 1175.32,1117.5L1230.35,1117.5C1230.48,1115.27 1230.66,1113.55 1230.67,1111.82C1230.7,1100.56 1230.46,1089.3 1230.75,1078.04C1231.21,1059.83 1233.44,1041.9 1240.11,1024.74C1251.16,996.31 1271.35,977.63 1300.23,968.29C1308.29,965.69 1316.61,964.37 1325.09,963.38C1335.07,962.21 1344.97,962.36 1354.91,962.54C1359.58,962.62 1364.24,963.3 1368.91,963.71C1369.34,963.98 1369.76,964.25 1370.19,964.52C1370.23,987.03 1370.27,1009.54 1370.29,1032.05C1370.29,1032.57 1370.08,1033.09 1369.8,1034.35C1367.64,1034.18 1365.4,1034.03 1363.17,1033.82C1351.28,1032.68 1339.61,1033.14 1328.73,1038.83C1321.76,1042.47 1317.27,1048.46 1314.98,1055.73C1313.15,1061.55 1312.47,1067.73 1311.28,1073.76C1311.24,1074.49 1311.2,1075.21 1311.16,1075.94L1311.16,1116.28C1311.54,1116.57 1311.91,1116.86 1312.28,1117.15C1330.07,1117.2 1347.85,1117.26 1365.64,1117.31C1367.61,1117.32 1369.58,1117.31 1371.44,1117.31C1372.74,1121.98 1373.18,1161.69 1372.25,1180.59C1371.86,1180.72 1371.47,1180.85 1371.07,1180.98C1351.52,1180.97 1331.97,1180.97 1312.42,1180.96C1311.99,1181.19 1311.58,1181.43 1311.16,1181.67Z" style="fill:rgb(204,170,102);fill-rule:nonzero;"/>
            <path d="M1311.15,1075.92C1311.19,1075.19 1311.23,1074.47 1311.27,1073.74C1311.23,1074.47 1311.19,1075.2 1311.15,1075.92Z" style="fill:rgb(237,224,199);fill-rule:nonzero;"/>
            <path d="M1370.18,964.52C1369.75,964.25 1369.33,963.98 1368.9,963.71C1369.32,963.98 1369.75,964.25 1370.18,964.52Z" style="fill:rgb(233,218,189);fill-rule:nonzero;"/>
            <path d="M1312.27,1117.13C1311.9,1116.84 1311.52,1116.55 1311.15,1116.26C1311.52,1116.55 1311.9,1116.84 1312.27,1117.13Z" style="fill:rgb(251,244,235);fill-rule:nonzero;"/>
            <path d="M1175.88,1180.84C1176.31,1180.88 1176.75,1180.92 1177.18,1180.96C1176.75,1180.92 1176.32,1180.88 1175.88,1180.84Z" style="fill:rgb(222,221,195);fill-rule:nonzero;"/>
            <path d="M1229.29,1180.95C1229.69,1181.2 1230.09,1181.45 1230.49,1181.69C1230.09,1181.45 1229.69,1181.2 1229.29,1180.95Z" style="fill:rgb(222,221,195);fill-rule:nonzero;"/>
            <path d="M1311.16,1181.67C1311.57,1181.43 1311.99,1181.19 1312.4,1180.95C1311.99,1181.19 1311.58,1181.43 1311.16,1181.67Z" style="fill:rgb(222,221,195);fill-rule:nonzero;"/>
            <path d="M1371.06,1180.97C1371.45,1180.84 1371.84,1180.71 1372.24,1180.58C1371.84,1180.7 1371.45,1180.84 1371.06,1180.97Z" style="fill:rgb(222,221,195);fill-rule:nonzero;"/>
        </g>
    </g>
</svg>
