<?xml version="1.0" encoding="UTF-8" standalone="no"?>
<!DOCTYPE svg PUBLIC "-//W3C//DTD SVG 1.1//EN" "http://www.w3.org/Graphics/SVG/1.1/DTD/svg11.dtd">
<svg width="100%" height="100%" viewBox="0 0 1047 1047" version="1.1" xmlns="http://www.w3.org/2000/svg" xmlns:xlink="http://www.w3.org/1999/xlink" xml:space="preserve" xmlns:serif="http://www.serif.com/" style="fill-rule:evenodd;clip-rule:evenodd;stroke-linejoin:round;stroke-miterlimit:2;">
    <g transform="matrix(1,0,0,1,-669,-670)">
        <g>
            <path d="M1509.41,1301.53C1499.86,1302.24 1490.85,1303.5 1481.86,1303.45C1461.22,1303.33 1448.35,1292.38 1444.05,1272.22C1443.7,1270.58 1443.17,1268.98 1442.55,1266.75C1427.97,1265.12 1418.9,1254.49 1408.57,1244.46C1392.36,1270.01 1370.16,1284.57 1340.39,1286.48C1316.09,1288.04 1294.37,1281.14 1276.93,1264.29C1242.08,1230.61 1234.91,1173.62 1282.1,1129.79C1269.07,1119.69 1256.17,1109.68 1242.61,1099.16C1235.06,1104.97 1227.61,1110.56 1220.3,1116.34C1187.03,1142.69 1153.78,1169.07 1120.58,1195.5C1099.41,1212.36 1078.36,1229.35 1057.21,1246.24C1054.55,1248.37 1051.81,1250.5 1048.83,1252.11C1043.71,1254.88 1038.24,1253.7 1034.97,1249.56C1031.68,1245.4 1031.82,1239.84 1035.48,1235.39C1036.55,1234.09 1037.94,1233.02 1039.27,1231.96C1075,1203.66 1110.77,1175.41 1146.47,1147.07C1170.11,1128.3 1193.66,1109.41 1217.24,1090.55C1219.43,1088.8 1221.5,1086.89 1224.34,1084.44C1218.72,1079.92 1213.53,1075.64 1208.23,1071.5C1166.02,1038.53 1123.76,1005.62 1081.58,972.62C1069.7,963.32 1057.96,953.83 1046.27,944.29C1044.11,942.53 1042.09,940.35 1040.68,937.97C1038.28,933.91 1038.94,929.17 1041.75,926.04C1044.91,922.51 1049.72,921.28 1054.19,923.12C1056,923.87 1057.71,924.99 1059.26,926.2C1075.89,939.16 1092.49,952.16 1109.09,965.16C1133.75,984.49 1158.42,1003.81 1183.04,1023.19C1200.5,1036.93 1217.88,1050.76 1235.32,1064.52C1237.51,1066.25 1239.85,1067.8 1242.54,1069.73C1256.66,1058.66 1270.45,1047.85 1284.64,1036.73C1277.64,1031.83 1271.19,1027.83 1265.31,1023.11C1242.78,1005.02 1230.69,981.3 1231.67,952.47C1233.14,909.21 1261.36,874.46 1305.4,867.79C1340.6,862.46 1373.36,878.36 1391.05,907.44C1396.01,915.6 1399.11,924.9 1403.47,934.59C1443.23,930.08 1483,932.55 1521.95,943.79C1525.9,936.18 1529.62,928.84 1533.51,921.58C1541.22,907.18 1550.81,894.06 1561.68,881.96C1581.13,860.31 1601.06,839.06 1626.85,824.67C1633.75,820.82 1641.32,818.08 1648.75,815.3C1651.26,814.37 1654.4,814.4 1657.1,814.89C1661.79,815.73 1665.7,820.03 1665.93,824.23C1666.19,829.01 1663.57,832.25 1659.55,834.49C1659.05,834.77 1658.53,835.03 1657.99,835.2C1627.5,844.6 1606.56,867 1585.34,888.88C1569.17,905.55 1556.25,924.67 1545.49,945.19C1541.8,952.22 1539.07,959.75 1535.39,968.23C1531.41,967.78 1526.96,967.58 1522.63,966.72C1506.46,963.53 1490.46,959.17 1474.16,957.09C1459.57,955.23 1444.68,955.65 1429.91,955.34C1420.8,955.15 1411.67,955.26 1402.56,955.65C1385.71,956.36 1371.29,963.66 1357.99,973.31C1352.35,977.4 1352.33,981.45 1357.72,985.87C1361.64,989.08 1366.04,991.97 1370.67,994.01C1390.37,1002.69 1411.09,1007.58 1432.51,1009.4C1441.3,1010.15 1450.11,1010.64 1458.92,1011.02C1469.44,1011.47 1475.71,1016.42 1478.44,1026.7C1480.32,1033.78 1479.96,1040.88 1478.28,1047.86C1475.71,1058.56 1471.08,1068.19 1463.14,1076.12C1444.38,1094.85 1425.73,1113.68 1407.08,1132.52C1384.64,1155.21 1362.23,1177.92 1339.85,1200.68C1334.33,1206.29 1328.03,1207.19 1323.27,1202.77C1318.75,1198.58 1318.2,1190.89 1322.97,1185.75C1331.12,1176.99 1339.81,1168.72 1348.27,1160.26C1353.67,1154.86 1359.09,1149.47 1364.8,1143.78C1359.51,1138.52 1353.25,1136.77 1347.34,1136.25C1338.36,1135.46 1328.9,1134.94 1320.22,1136.88C1293.02,1142.97 1269.93,1170.26 1271.22,1202.61C1272.33,1230.43 1292.89,1255.72 1319.93,1262.75C1357.34,1272.47 1390.65,1244.35 1396.82,1213.67C1396.93,1213.11 1397.08,1212.54 1397.05,1211.98C1396.49,1200.05 1402.85,1192.2 1411.52,1184.89C1421.97,1176.09 1431.49,1166.2 1441.43,1156.8C1442.88,1155.43 1444.31,1154 1445.95,1152.89C1451.06,1149.42 1456.9,1149.91 1460.74,1153.97C1464.17,1157.59 1464.76,1163.69 1461.33,1168.17C1458.41,1171.98 1454.71,1175.21 1451.25,1178.59C1442.07,1187.54 1432.77,1196.37 1423.64,1205.37C1419.09,1209.87 1417.97,1216.19 1420.61,1221.76C1424.9,1230.81 1431.89,1237.48 1440.26,1242.64C1445.21,1245.69 1448.96,1244.81 1451.77,1240.02C1462.24,1222.18 1478.13,1210.38 1495.52,1200.22C1500.35,1197.4 1503.82,1198.01 1507.64,1202.2C1511.43,1206.35 1512.18,1211.39 1509.05,1215.42C1507.35,1217.61 1504.85,1219.18 1502.66,1220.98C1494.96,1227.28 1486.89,1233.18 1479.64,1239.95C1473.11,1246.05 1468.67,1253.82 1466.85,1262.74C1464.64,1273.51 1469.16,1279.83 1480.1,1281.21C1489.33,1282.38 1498.36,1280.98 1506.88,1277.4C1509.13,1276.46 1511.15,1273.83 1512.25,1271.5C1516.64,1262.17 1521.15,1252.98 1528.99,1245.94C1530.47,1244.61 1531.91,1243.19 1533.56,1242.1C1538.9,1238.57 1544.6,1238.92 1548.38,1242.84C1552.11,1246.7 1552.36,1252.58 1548.75,1257.75C1547.3,1259.83 1545.33,1261.56 1543.59,1263.43C1537.88,1269.58 1533.22,1276.41 1531.72,1284.81C1530.44,1292.01 1530.19,1299.48 1537.07,1304.24C1543.82,1308.92 1551.54,1308.4 1558.06,1304.15C1567.09,1298.26 1575.94,1291.88 1583.92,1284.67C1606.65,1264.14 1625.9,1240.39 1643.43,1215.45C1657,1196.15 1669.13,1175.76 1680.82,1155.24C1687.54,1143.45 1692.89,1130.72 1692.66,1116.45C1692.56,1110.46 1696.29,1106.51 1701.6,1105.64C1706.45,1104.85 1712.23,1107.86 1713.45,1113.3C1714.6,1118.42 1715.06,1124.21 1713.85,1129.23C1711.61,1138.59 1708.74,1147.97 1704.72,1156.69C1688.77,1191.32 1667.65,1222.76 1643.39,1252.05C1631.41,1266.51 1619.27,1280.95 1605.96,1294.15C1594.91,1305.11 1582.62,1315.08 1569.8,1323.94C1556.32,1333.26 1541.41,1332.82 1526.9,1325.01C1519.77,1321.17 1515.54,1314.83 1512.13,1307.81C1511.03,1305.58 1510.12,1303.21 1509.41,1301.53ZM1381.5,1125.98C1382.86,1124.89 1384.05,1124.12 1385.03,1123.14C1405.77,1102.44 1426.5,1081.73 1447.21,1061C1448.41,1059.8 1449.63,1058.52 1450.48,1057.07C1454.44,1050.26 1458.68,1043.47 1456.04,1034.87C1451.43,1034.3 1447.22,1033.41 1442.99,1033.32C1421.76,1032.88 1401.3,1028.32 1381.23,1021.81C1376.76,1020.36 1373.3,1020.48 1369.59,1023.7C1354.96,1036.38 1337.64,1041.6 1318.5,1041.87C1315.69,1041.91 1312.47,1043.31 1310.18,1045.05C1295.24,1056.43 1280.49,1068.06 1265.73,1079.68C1264.04,1081.01 1262.69,1082.78 1260.56,1084.99C1275.42,1096.51 1289.71,1107.59 1303.61,1118.36C1331.68,1109.24 1353.21,1110.88 1381.5,1125.98ZM1379.48,939.09C1375.35,913.91 1352.72,892.1 1325.78,889.41C1293.43,886.18 1267.19,903.21 1257.28,933.98C1247.9,963.12 1258.36,992.98 1284.07,1009.39C1305.97,1023.37 1338.64,1020.79 1350.28,1008.58C1346.9,1005.56 1343.31,1002.76 1340.19,999.49C1328.02,986.71 1328.17,969.61 1341.24,957.91C1346.65,953.07 1353.32,949.4 1359.89,946.17C1365.94,943.18 1372.63,941.5 1379.48,939.09Z" style="fill:rgb(205,172,105);fill-rule:nonzero;"/>
            <path d="M1328.23,771.32C1318.53,765.39 1308.87,759.38 1299.11,753.54C1263.69,732.36 1225.37,719.23 1184.63,713.34C1147.43,707.95 1110.3,708.9 1073.27,715.61C1053.03,719.28 1033.15,724.29 1014.05,731.79C976.19,746.66 940.59,765.79 909.28,791.98C889.18,808.79 870.12,826.81 853.76,847.45C820.8,889.02 796.47,935 782.26,986.27C775,1012.49 771.02,1039.17 769.11,1066.23C769.05,1067.05 769.35,1067.89 769.56,1069.24C770.97,1069.67 772.49,1070.46 774.05,1070.56C794.79,1071.94 815.54,1073.11 836.28,1074.56C866.38,1076.67 896.47,1078.86 926.54,1081.37C929.88,1081.65 933.51,1083.69 936.15,1085.91C939.33,1088.59 940.38,1092.57 938.48,1096.8C936.68,1100.81 933.77,1103.16 929.29,1103.3C927.3,1103.36 925.29,1103.45 923.31,1103.32C906.55,1102.26 889.79,1101.19 873.03,1100.07C855.7,1098.91 838.38,1097.68 821.05,1096.54C819.7,1096.45 818.31,1096.88 816.7,1097.11C817.92,1104.13 819.24,1110.8 820.21,1117.52C823.75,1141.84 821.28,1165.78 815.88,1189.62C810.07,1215.31 799.4,1238.73 783.87,1259.9C779.51,1265.85 774.33,1271.23 769.23,1276.59C757.29,1289.12 758.61,1298.75 774.39,1305.55C782.11,1308.88 790.64,1311.09 799,1312.02C823.28,1314.71 835.89,1338.08 824.34,1359.82C820.75,1366.58 817.54,1373.55 814.4,1380.54C811.39,1387.24 812.62,1392.96 818.06,1398.32C823.8,1403.98 829.72,1409.07 837.15,1412.42C847.5,1417.09 850,1424.21 844.74,1434.65C837.3,1449.41 836.28,1464.68 840.53,1480.36C843.28,1490.51 848.11,1499.44 857.94,1504.64C863.32,1507.49 868.86,1509.44 875.11,1507.99C876.75,1507.61 878.51,1507.65 880.21,1507.62C919.53,1506.88 958.86,1506.16 998.18,1505.45C1000.74,1505.4 1003.34,1505.27 1005.87,1505.61C1013.74,1506.66 1019.23,1512.55 1019.92,1520.45C1019.99,1521.3 1019.96,1522.16 1019.98,1523.02C1020.5,1541.54 1021.06,1560.06 1021.53,1578.58C1022.32,1610.22 1023.02,1641.85 1023.84,1673.49C1024.07,1682.32 1024.58,1691.14 1024.91,1699.97C1024.98,1701.96 1025.05,1703.99 1024.78,1705.95C1023.91,1712.11 1019.68,1716.27 1014.22,1716.54C1009.49,1716.77 1004.64,1712.95 1003.29,1707.43C1002.56,1704.42 1002.33,1701.24 1002.25,1698.12C1001.39,1664.77 1000.63,1631.43 999.78,1598.08C999.25,1576.99 998.63,1555.91 998.01,1534.82C997.95,1532.88 997.61,1530.95 997.28,1527.88C988.59,1527.88 980.16,1527.74 971.73,1527.91C949.51,1528.36 927.29,1528.91 905.07,1529.49C897.67,1529.68 890.27,1529.97 882.88,1530.35C866.15,1531.22 850.44,1528.52 837.34,1517.12C825.62,1506.92 820,1493.42 816.96,1478.56C814.09,1464.51 815.08,1450.79 820,1437.33C820.68,1435.47 821.2,1433.54 821.75,1431.64C821.82,1431.41 821.64,1431.1 821.88,1432.13C813.15,1423.65 804.99,1416.19 797.4,1408.2C790.71,1401.15 788.87,1392.59 790.72,1382.87C792.67,1372.63 796.31,1363.18 801.58,1354.28C802.6,1352.56 803.79,1350.94 804.67,1349.16C808.47,1341.54 805.79,1336.76 797.41,1335.15C788.22,1333.38 778.91,1331.79 770.03,1328.95C760.48,1325.9 752.13,1320.68 745.99,1312.1C736.9,1299.39 735.64,1286.26 744.07,1273.02C748.48,1266.1 753.54,1259.4 759.26,1253.53C775.88,1236.46 785.46,1215.74 791.79,1193.24C799.45,1166.02 802.91,1138.44 796.34,1110.51C792.17,1092.8 793.49,1093.74 776.12,1092.86C768.73,1092.49 761.36,1091.78 753.99,1091.16C747.73,1090.63 746.75,1089.85 746.68,1083.19C746.58,1074.36 746.57,1065.48 747.29,1056.69C751.34,1007.66 763.56,960.81 784.6,916.22C794.25,895.78 805.91,876.64 818.38,857.86C832.34,836.83 849.42,818.61 866.79,800.48C889.09,777.22 915.08,759.03 942.16,741.99C978.79,718.94 1018.67,704.31 1060.73,695.34C1091.79,688.72 1123.29,686.02 1155,688C1210.09,691.43 1262.1,705.85 1310.17,733.44C1313.57,735.39 1316.54,738.11 1319.71,740.47C1317.05,740.59 1314.38,740.71 1309.68,740.92C1312.11,744.49 1313.36,746.44 1314.73,748.31C1320.01,755.5 1326.05,762.28 1328.23,771.32Z" style="fill:rgb(205,172,105);fill-rule:nonzero;"/>
            <path d="M1113.07,1426.73L1113.07,1576.4C1113.07,1578.97 1113.19,1581.55 1112.93,1584.09C1112.37,1589.61 1108.12,1593.69 1102.93,1593.97C1097.86,1594.25 1093.11,1590.38 1092.15,1584.89C1091.76,1582.67 1091.88,1580.34 1091.88,1578.07C1091.88,1480.29 1091.89,1382.5 1091.86,1284.72C1091.86,1280.47 1091.47,1276.21 1091.17,1271.97C1090.75,1266.02 1094.01,1260.58 1099.44,1258.31C1104.6,1256.15 1111.57,1260.49 1112.76,1266.83C1113.17,1269.04 1112.98,1271.37 1112.98,1273.65C1112.99,1324.68 1112.99,1375.71 1112.99,1426.74C1113.01,1426.73 1113.04,1426.73 1113.07,1426.73Z" style="fill:rgb(204,170,102);fill-rule:nonzero;"/>
            <path d="M1459.36,1431.08C1459.09,1474.09 1453,1516.24 1439.3,1557.11C1436.32,1566 1432.28,1574.54 1428.5,1583.14C1427.37,1585.71 1425.76,1588.18 1423.88,1590.27C1420.26,1594.3 1416.02,1595.02 1411.53,1592.89C1407.19,1590.83 1404.76,1586.68 1405.34,1581.73C1405.57,1579.8 1406.22,1577.82 1407.12,1576.09C1419.95,1551.53 1426.12,1524.93 1431.15,1497.98C1435.24,1476.07 1437.15,1453.89 1437.36,1431.68C1437.54,1413.2 1436.61,1394.63 1432.05,1376.51C1431.5,1374.32 1431.13,1372.03 1431.07,1369.77C1430.91,1363.55 1435.09,1358.02 1440.38,1357.2C1445.68,1356.37 1451.46,1360.42 1452.79,1366.65C1454.75,1375.84 1456.39,1385.1 1457.81,1394.39C1458.67,1400.01 1459.08,1405.72 1459.3,1411.41C1459.55,1417.96 1459.36,1424.53 1459.36,1431.08Z" style="fill:rgb(205,172,106);fill-rule:nonzero;"/>
            <path d="M1370.43,1576.08C1370.23,1578.6 1370.28,1582.63 1369.53,1586.5C1368.5,1591.82 1364.32,1595.34 1359.61,1595.62C1354.68,1595.92 1350,1592.3 1348.58,1586.76C1347.96,1584.31 1347.71,1581.71 1347.66,1579.17C1346.86,1532.77 1346.12,1486.37 1345.39,1439.96C1345.35,1437.4 1345.27,1434.8 1345.64,1432.29C1346.43,1426.93 1350.19,1423.51 1355.3,1423.14C1360.82,1422.74 1364.71,1425.09 1366.36,1430.46C1367.18,1433.12 1367.36,1436.05 1367.41,1438.86C1368.12,1478.43 1368.74,1518 1369.45,1557.56C1369.56,1563.26 1370.04,1568.93 1370.43,1576.08Z" style="fill:rgb(205,172,106);fill-rule:nonzero;"/>
            <path d="M1360.7,769.8C1370.71,779.39 1381.33,788.44 1390.59,798.71C1401.99,811.36 1412.89,824.57 1422.84,838.38C1435.49,855.94 1445.44,875.19 1454.41,894.9C1456.74,900.03 1457.78,905.14 1454.24,910.29C1450.28,916.06 1442.85,916.73 1438.35,911.33C1436.56,909.19 1435.3,906.55 1434.11,904C1415.45,863.88 1391.52,827.53 1358.46,797.66C1354.91,794.45 1351.86,790.69 1348.58,787.19C1349.92,785.46 1351.35,783.79 1352.58,781.98C1355.34,777.95 1358,773.86 1360.7,769.8Z" style="fill:rgb(205,172,106);fill-rule:nonzero;"/>
            <path d="M1150.52,1540.37C1150.52,1526.43 1150.44,1512.5 1150.58,1498.56C1150.61,1495.49 1150.99,1492.28 1152,1489.4C1153.67,1484.64 1158.04,1481.99 1162.67,1482.58C1167.31,1483.17 1170.57,1485.9 1171.86,1490.38C1172.55,1492.79 1172.61,1495.43 1172.61,1497.97C1172.65,1526.13 1172.63,1554.29 1172.62,1582.44C1172.62,1583.58 1172.68,1584.72 1172.58,1585.85C1172.05,1592.02 1167.35,1596.97 1161.87,1597.19C1156.21,1597.41 1150.71,1592.2 1150.61,1585.58C1150.35,1570.52 1150.52,1555.44 1150.52,1540.37Z" style="fill:rgb(206,173,107);fill-rule:nonzero;"/>
            <path d="M1235.73,1405.93C1235.16,1425.02 1234.72,1440.97 1234.18,1456.91C1233.94,1463.96 1231.1,1468.18 1226.03,1469.41C1219.68,1470.96 1213.98,1467.5 1212.52,1460.89C1211.98,1458.43 1212.08,1455.79 1212.13,1453.24C1212.55,1432.73 1213.1,1412.23 1213.45,1391.73C1213.54,1386.34 1213.21,1380.94 1212.88,1375.55C1212.47,1368.81 1216.27,1363.38 1222.36,1362.36C1227.7,1361.46 1233.39,1365.43 1235,1371.55C1235.64,1373.98 1235.68,1376.62 1235.7,1379.16C1235.78,1389.13 1235.73,1399.1 1235.73,1405.93Z" style="fill:rgb(205,172,106);fill-rule:nonzero;"/>
            <path d="M1235.88,1549.8C1235.88,1561.19 1235.89,1572.58 1235.87,1583.96C1235.87,1586.23 1236,1588.56 1235.6,1590.77C1234.76,1595.48 1230.81,1598.96 1226.26,1599.4C1221.56,1599.85 1216.97,1597.46 1215.21,1593.07C1214.29,1590.77 1213.91,1588.12 1213.86,1585.62C1213.35,1560.58 1212.96,1535.54 1212.54,1510.5C1212.51,1508.51 1212.34,1506.48 1212.65,1504.54C1213.53,1498.98 1217.68,1495.35 1223.13,1495.1C1228.59,1494.85 1233,1498.11 1234.11,1503.75C1234.82,1507.36 1235.09,1511.1 1235.13,1514.78C1235.25,1526.45 1235.18,1538.12 1235.18,1549.8L1235.88,1549.8Z" style="fill:rgb(205,172,106);fill-rule:nonzero;"/>
            <path d="M1305,1692.73C1305.23,1699.5 1300.98,1704.86 1295.14,1705.5C1288.92,1706.19 1283.47,1701.66 1282.63,1694.23C1281.74,1686.34 1281.59,1678.37 1281.16,1670.43C1280.61,1660.22 1279.98,1650.01 1279.65,1639.79C1279.57,1637.31 1280.05,1634.6 1281.04,1632.34C1284.16,1625.26 1293.78,1623.79 1298.66,1629.8C1300.51,1632.08 1301.86,1635.36 1302.06,1638.27C1303.26,1656.42 1304.07,1674.58 1305,1692.73Z" style="fill:rgb(205,172,106);fill-rule:nonzero;"/>
            <path d="M1360.7,769.8C1358,773.86 1355.34,777.95 1352.59,781.97C1351.35,783.77 1349.93,785.45 1348.59,787.18C1341.81,781.89 1335.02,776.61 1328.24,771.32C1326.06,762.28 1320.03,755.5 1314.75,748.28C1313.38,746.41 1312.13,744.46 1309.7,740.89C1314.4,740.68 1317.06,740.56 1319.73,740.44C1334.58,748.55 1348.18,758.41 1360.7,769.8Z" style="fill:rgb(193,161,99);fill-rule:nonzero;"/>
            <path d="M1077.93,1103.34C1073.13,1103.34 1070.27,1103.51 1067.44,1103.3C1061.68,1102.88 1057.55,1099.06 1056.97,1093.91C1056.43,1089.06 1060.59,1082.2 1065.4,1081.5C1072.7,1080.43 1080.11,1079.75 1087.48,1079.76C1094.18,1079.77 1098.13,1084.09 1098.64,1090.42C1099.08,1095.91 1095.68,1100.76 1089.54,1102.14C1085.14,1103.12 1080.52,1103.09 1077.93,1103.34Z" style="fill:rgb(206,173,107);fill-rule:nonzero;"/>
            <path d="M1010.49,1106.56C1006.89,1106.56 1003.73,1106.84 1000.64,1106.5C995.61,1105.94 991.52,1102.01 990.73,1097.28C989.93,1092.47 992.13,1088.77 996.12,1086.62C999.26,1084.93 1002.88,1083.8 1006.42,1083.28C1010.61,1082.66 1014.93,1082.81 1019.19,1082.89C1025.85,1083.01 1031.68,1088.17 1032.07,1094.04C1032.46,1099.9 1028.1,1104.87 1021.06,1105.98C1017.44,1106.54 1013.71,1106.4 1010.49,1106.56Z" style="fill:rgb(206,174,109);fill-rule:nonzero;"/>
            <path d="M1234.7,1314.81C1234.47,1318.72 1234.77,1322.77 1233.88,1326.53C1232.83,1331 1229.49,1333.72 1224.73,1334.21C1219.92,1334.7 1214.87,1332.51 1214.1,1327.66C1212.75,1319.1 1212.36,1310.27 1212.78,1301.61C1213,1297.03 1217.65,1294.86 1222.14,1294.27C1226.45,1293.7 1231.16,1296.58 1232.6,1301.37C1233.9,1305.63 1234.04,1310.24 1234.7,1314.81Z" style="fill:rgb(206,173,107);fill-rule:nonzero;"/>
            <path d="M1148.82,1438.41C1149.07,1435.76 1149.01,1432.28 1149.8,1429.02C1151.06,1423.89 1155.55,1420.47 1160.21,1420.39C1164.94,1420.31 1169.74,1423.53 1170.49,1428.94C1171.42,1435.61 1171.62,1442.52 1171,1449.23C1170.47,1454.98 1165.56,1458.63 1160.55,1458.62C1155.63,1458.61 1150.88,1454.79 1149.75,1449.34C1149.08,1446.03 1149.15,1442.56 1148.82,1438.41Z" style="fill:rgb(206,172,106);fill-rule:nonzero;"/>
            <path d="M1343.61,1379.41C1343.61,1376.56 1343.41,1373.69 1343.65,1370.87C1344.12,1365.41 1347.49,1361.68 1352.44,1360.75C1357.08,1359.88 1361.99,1362.58 1364.13,1367.44C1364.92,1369.23 1365.46,1371.25 1365.56,1373.19C1365.8,1378.31 1365.96,1383.46 1365.74,1388.57C1365.47,1394.91 1361.56,1398.98 1355.88,1399.41C1349.68,1399.89 1345.06,1396.3 1344.05,1389.65C1343.55,1386.31 1343.96,1382.83 1343.96,1379.42C1343.84,1379.41 1343.72,1379.41 1343.61,1379.41Z" style="fill:rgb(206,173,107);fill-rule:nonzero;"/>
            <path d="M1300.72,1582.71C1300.56,1585.12 1300.72,1588.29 1300.09,1591.29C1299,1596.47 1294.81,1600.08 1290.19,1600.47C1285.06,1600.9 1279.87,1597.87 1278.95,1592.15C1277.9,1585.57 1277.78,1578.64 1278.58,1572.02C1279.29,1566.14 1283.83,1563.39 1289.51,1563.51C1295.04,1563.63 1298.87,1566.8 1300,1572.71C1300.57,1575.75 1300.47,1578.91 1300.72,1582.71Z" style="fill:rgb(206,173,108);fill-rule:nonzero;"/>
            <path d="M1129.92,1103.31C1127.93,1103.31 1125.94,1103.43 1123.96,1103.29C1117.83,1102.85 1113.63,1098.93 1113.16,1093.34C1112.74,1088.33 1116.87,1082.24 1122.02,1081.34C1127.3,1080.41 1132.73,1079.78 1138.07,1079.89C1145.14,1080.03 1149.98,1085.24 1150.07,1091.76C1150.15,1097.68 1145.55,1102.22 1138.42,1102.93C1135.61,1103.21 1132.75,1102.98 1129.92,1102.98L1129.92,1103.31Z" style="fill:rgb(206,173,107);fill-rule:nonzero;"/>
        </g>
    </g>
</svg>
