<?xml version="1.0" encoding="UTF-8" standalone="no"?>
<!DOCTYPE svg PUBLIC "-//W3C//DTD SVG 1.1//EN" "http://www.w3.org/Graphics/SVG/1.1/DTD/svg11.dtd">
<svg width="100%" height="100%" viewBox="0 0 1092 1092" version="1.1" xmlns="http://www.w3.org/2000/svg" xmlns:xlink="http://www.w3.org/1999/xlink" xml:space="preserve" xmlns:serif="http://www.serif.com/" style="fill-rule:evenodd;clip-rule:evenodd;stroke-linejoin:round;stroke-miterlimit:2;">
    <g transform="matrix(1,0,0,1,-557,-586)">
        <g>
            <path d="M1427.08,1669.51C1372.84,1669.04 1318.6,1668.59 1264.36,1668.08C1254.5,1667.99 1245.12,1665.46 1237.54,1659.17C1229.54,1652.53 1221.69,1645.46 1215.06,1637.5C1208.68,1629.84 1205.69,1620.35 1205.66,1609.97C1205.59,1581.72 1205.24,1553.46 1204.84,1525.21C1204.46,1498.66 1203.9,1472.11 1203.33,1445.57C1202.81,1421.58 1202.17,1397.59 1201.59,1373.6C1201.53,1371.06 1201.51,1368.51 1201.56,1365.97C1201.86,1351.91 1207.03,1346.82 1221.27,1346.57C1226.64,1346.48 1232.01,1346.49 1237.38,1346.46C1354.63,1345.76 1471.88,1345.09 1589.13,1344.34C1602.12,1344.26 1615.1,1343.64 1628.09,1343.52C1631.41,1343.49 1634.83,1344.08 1638.03,1345.01C1642.47,1346.3 1645.15,1349.6 1645.67,1354.23C1646.31,1359.83 1647.06,1365.46 1647.05,1371.08C1646.82,1441.43 1646.46,1511.77 1646.14,1582.12C1646.1,1590.6 1646.2,1599.07 1646.15,1607.55C1646.06,1625.04 1639.31,1640.49 1628.3,1653.18C1618.2,1664.81 1603.81,1670.16 1588.12,1670.2C1558.45,1670.28 1528.78,1670.05 1499.11,1670C1475.09,1669.96 1451.08,1669.99 1427.06,1669.99C1427.08,1669.83 1427.08,1669.67 1427.08,1669.51ZM1226.97,1435.66C1226.97,1440.1 1226.92,1443.17 1226.98,1446.25C1227.39,1468 1227.93,1489.74 1228.21,1511.49C1228.59,1541.44 1229.27,1571.41 1228.82,1601.35C1228.63,1614.01 1233.02,1624.03 1241.46,1632.43C1247.56,1638.5 1253.87,1644.83 1263.68,1644.98C1279.47,1645.21 1295.26,1646.05 1311.06,1646.17C1401.48,1646.87 1491.91,1647.45 1582.33,1647.95C1586.47,1647.97 1590.74,1647.27 1594.72,1646.11C1607.75,1642.3 1622.28,1620 1622.19,1603.63C1621.9,1547.96 1622.31,1492.28 1622.42,1436.61C1622.43,1433.86 1622.16,1431.11 1621.98,1427.57C1618.73,1427.57 1615.99,1427.51 1613.25,1427.58C1596.31,1427.99 1579.38,1428.47 1562.44,1428.84C1535.61,1429.43 1508.79,1429.97 1481.96,1430.49C1449.2,1431.12 1416.44,1431.7 1383.68,1432.3C1350.07,1432.92 1316.47,1433.56 1282.86,1434.13C1270.43,1434.34 1257.99,1434.27 1245.56,1434.52C1239.67,1434.63 1233.79,1435.22 1226.97,1435.66ZM1226.94,1412.42C1230.77,1412.42 1233.57,1412.48 1236.37,1412.41C1256.98,1411.92 1277.58,1411.35 1298.19,1410.92C1330.66,1410.25 1363.14,1409.69 1395.61,1409.04C1419.61,1408.56 1443.6,1407.97 1467.6,1407.51C1502.62,1406.84 1537.63,1406.22 1572.65,1405.64C1586.78,1405.4 1600.91,1405.34 1615.03,1405.14C1617.22,1405.11 1619.41,1404.75 1622.02,1404.51L1622.02,1366.59C1618.39,1366.59 1615.34,1366.57 1612.29,1366.59C1566.81,1367.01 1521.33,1367.53 1475.84,1367.82C1428.08,1368.12 1380.32,1368.09 1332.57,1368.4C1299.24,1368.62 1265.91,1369.16 1232.58,1369.61C1230.45,1369.64 1228.33,1370.15 1225.57,1370.53C1226.07,1384.58 1224.78,1398.05 1226.94,1412.42Z" style="fill:rgb(205,171,105);fill-rule:nonzero;"/>
            <path d="M1535.96,1150.6C1536.56,1182.98 1533.96,1219.01 1528.89,1254.86C1527,1268.25 1524.41,1281.55 1521.9,1294.85C1520.34,1303.15 1514.06,1307.26 1506.55,1305.36C1500.09,1303.73 1496.77,1296.51 1498.23,1289.25C1500.82,1276.26 1503.36,1263.23 1505.02,1250.1C1510.18,1209.43 1513,1168.58 1511.82,1127.57C1510.71,1089.15 1507.38,1050.89 1499.93,1013.16C1496.39,995.21 1491.87,977.38 1486.64,959.84C1479.07,934.44 1470.14,909.44 1459.01,885.37C1443.68,852.25 1425.14,820.95 1402.82,792.03C1386.22,770.53 1367.69,750.64 1347.05,733.03C1294.82,688.48 1235.09,659.57 1166.93,648.86C1142.59,645.03 1118.1,643.15 1093.52,644.36C1051.3,646.43 1010.17,654.5 970.27,668.65C939.32,679.62 909.68,693.36 881.43,710.12C878.37,711.94 874.71,713.21 871.19,713.67C865.21,714.45 860.63,711.42 859.11,706.66C857.47,701.53 859.04,696.87 864.25,693.65C871.92,688.91 879.72,684.33 887.68,680.09C937.62,653.47 990.23,634.4 1046.34,626.15C1088.46,619.96 1130.65,619.95 1172.87,626.8C1208.82,632.63 1243.15,643.34 1275.88,659.01C1303.69,672.32 1329.56,688.82 1353.55,708.37C1371.13,722.7 1387.44,738.3 1402.56,755.06C1413.49,767.18 1423.55,780.18 1433.08,793.45C1453.04,821.25 1469.83,850.87 1483.5,882.34C1493.97,906.44 1502.93,930.98 1510.47,956.16C1517.21,978.65 1521.46,1001.6 1526,1024.57C1533.84,1064.37 1536.27,1107.31 1535.96,1150.6Z" style="fill:rgb(205,172,105);fill-rule:nonzero;"/>
            <path d="M760.12,1383.78C752.31,1378.9 744.73,1375.39 738.65,1370.13C724.24,1357.68 718.35,1341.81 724,1323.05C726.9,1313.42 731.12,1304.18 734.94,1294.28C727.07,1292.41 718.82,1290.98 710.92,1288.45C701.51,1285.43 692.62,1281.03 685.58,1273.76C673,1260.78 675.04,1246.3 679.91,1234.61C689.37,1211.89 705.76,1194.51 722.35,1177.13C728.75,1170.42 734.89,1163.35 740.19,1155.77C742.56,1152.37 743.47,1147.31 743.45,1143.01C743.37,1128.05 742.57,1113.09 742.09,1098.12C741.99,1095.02 741.87,1091.89 742.14,1088.8C742.63,1083.19 745.86,1079.49 750.64,1078.56C756.72,1077.38 761.71,1079.41 763.75,1085.11C765.43,1089.81 766.35,1094.95 766.65,1099.95C767.49,1113.76 768.32,1127.61 768.23,1141.44C768.13,1155.85 762.11,1168.1 752.36,1178.68C741.28,1190.7 730.11,1202.67 719.59,1215.16C713.8,1222.03 709.15,1229.87 704.2,1237.42C702.84,1239.5 701.99,1242.03 701.41,1244.47C699.15,1254.06 703.08,1260.94 712.75,1262.46C724.7,1264.34 736.82,1265.15 748.87,1266.42C753.62,1266.92 758.54,1266.78 763.08,1268.02C771.79,1270.39 775.31,1277.29 772.37,1285.63C771.28,1288.74 769.67,1292.07 767.32,1294.27C759.71,1301.38 755.12,1310.46 750.05,1319.24C749.08,1320.93 748.47,1322.88 747.99,1324.78C743.86,1341.07 747.52,1352.74 766.39,1360.06C773.14,1362.68 780.61,1363.36 786.33,1368.74C792.01,1374.09 793.16,1380.29 788.5,1386.64C785.99,1390.05 783.25,1393.29 780.74,1396.69C771.72,1408.92 771.92,1423.74 780.71,1436.02C790.51,1449.71 804.32,1457.78 819.49,1463.58C849.78,1475.18 881.21,1479.12 913.49,1475.71C923.3,1474.68 933.23,1473.91 942.79,1471.68C953.32,1469.23 960.74,1473.71 966.4,1481.06C974.29,1491.31 978.39,1503.5 978.73,1516.46C979.36,1540.47 979.34,1564.5 979.73,1588.52C980.13,1613.1 980.63,1637.67 981.22,1662.24C981.36,1668.13 979.87,1672.72 974.02,1675.27C967.08,1678.29 959.88,1675.39 957.75,1668.15C956.88,1665.22 956.68,1662.03 956.58,1658.95C956.31,1650.48 956.25,1642 956.11,1633.52C955.47,1594.53 954.93,1555.54 954.08,1516.56C953.97,1511.59 952.81,1506.47 951.2,1501.75C949.03,1495.42 947.01,1494.78 940.21,1495.49C925.63,1497 911.03,1499.39 896.43,1499.5C873.27,1499.68 850.24,1497.33 827.82,1490.73C810.62,1485.67 794.41,1478.69 779.82,1468.17C764.05,1456.8 753.65,1441.83 749.85,1422.62C747.64,1411.45 752.32,1401.54 756.25,1391.57C757.35,1388.73 758.96,1386.07 760.12,1383.78Z" style="fill:rgb(205,172,105);fill-rule:nonzero;"/>
            <path d="M1027.22,1330.28C1026.51,1260.21 1025.84,1190.15 1025.09,1120.08C1024.67,1081.38 1024.11,1042.68 1023.64,1003.98C1023.6,1000.88 1023.48,997.72 1023.96,994.68C1024.89,988.8 1028.68,985.44 1034.1,985.13C1040.49,984.76 1044.37,987.32 1046.13,993.38C1046.75,995.52 1047.06,997.81 1047.11,1000.04C1047.74,1026.01 1048.51,1051.99 1048.83,1077.97C1049.64,1143.23 1050.22,1208.49 1050.94,1273.76C1051.45,1320.37 1052.05,1366.98 1052.6,1413.6C1053.18,1462.47 1053.72,1511.35 1054.33,1560.22C1054.76,1594.12 1055.28,1628.01 1055.76,1661.91C1055.77,1662.76 1055.72,1663.62 1055.83,1664.45C1056.76,1671.51 1051.78,1677.73 1044.07,1678.21C1037.86,1678.6 1031.64,1672.18 1030.99,1665.06C1030.84,1663.38 1031,1661.67 1030.99,1659.98C1030.73,1623.53 1030.55,1587.08 1030.18,1550.63C1029.78,1511.08 1029.25,1471.53 1028.68,1431.99C1028.2,1398.09 1027.58,1364.2 1027.03,1330.3C1027.08,1330.28 1027.15,1330.28 1027.22,1330.28Z" style="fill:rgb(205,172,106);fill-rule:nonzero;"/>
            <path d="M1123.53,1462.83C1123.53,1526.69 1123.53,1590.55 1123.52,1654.41C1123.52,1657.23 1123.71,1660.11 1123.25,1662.87C1122.29,1668.65 1116.97,1672.9 1111.24,1672.88C1106.17,1672.86 1100.89,1668.7 1099.78,1663.4C1099.15,1660.39 1098.95,1657.24 1098.95,1654.15C1098.88,1528.13 1098.85,1402.11 1098.88,1276.09C1098.88,1271.03 1099.28,1265.92 1100.03,1260.92C1100.87,1255.33 1104.84,1252.13 1110.49,1251.69C1115.53,1251.3 1120.09,1253.77 1121.78,1258.78C1122.93,1262.17 1123.29,1265.95 1123.31,1269.57C1123.46,1297.54 1123.46,1325.52 1123.47,1353.49C1123.49,1389.94 1123.47,1426.39 1123.47,1462.84C1123.5,1462.83 1123.51,1462.83 1123.53,1462.83Z" style="fill:rgb(205,172,105);fill-rule:nonzero;"/>
            <path d="M1404.41,904.41C1344.12,912.31 1309.02,956.38 1304.31,1001.17C1291.89,936.87 1244.99,910.31 1200.06,906.34C1209.7,903.98 1218.68,902.55 1227.13,899.59C1266.59,885.74 1292.29,859.34 1300.52,817.45C1300.97,815.14 1301.8,812.91 1303.24,810.39C1306.63,838.77 1320.36,861.31 1341.91,878.82C1360.47,893.91 1377.96,900.75 1404.41,904.41Z" style="fill:rgb(205,172,105);fill-rule:nonzero;"/>
            <path d="M787.95,859.62C776.67,799.97 729.11,770.84 683.29,767.18C692.07,765.21 699.12,763.89 706.01,762.02C728.99,755.79 748.2,743.66 763.17,724.98C774.68,710.62 782.59,694.69 785.08,676.28C785.34,674.36 786.12,672.51 786.91,669.79C790.6,696.4 801.83,718.32 821.09,735.81C840.32,753.28 863.36,762.39 887.72,764.88C876.31,768.44 863.49,771.52 851.42,776.44C836.13,782.68 823.33,792.78 812.56,805.51C799.24,821.26 791.7,839.43 787.95,859.62Z" style="fill:rgb(205,172,105);fill-rule:nonzero;"/>
            <path d="M665.04,993.91C667.41,959.75 672.74,930.06 684.59,901.57C692.88,881.63 703.31,863.11 716.59,846.18C719.34,842.67 722.69,839.47 726.29,836.84C731.37,833.12 737,833.72 740.95,837.6C745.35,841.93 745.98,846.26 742.07,852.06C736.73,859.98 730.65,867.41 725.3,875.32C712.88,893.7 704.71,913.97 698.58,935.25C691.95,958.27 688.82,981.57 690.98,1005.44C691.59,1012.12 693.11,1018.76 694.72,1025.29C696.24,1031.44 693.85,1037.19 687.97,1039.75C682.58,1042.09 676.33,1040.25 673.3,1034.95C671.79,1032.31 670.68,1029.26 670.16,1026.26C668.12,1014.36 666.37,1002.42 665.04,993.91Z" style="fill:rgb(205,172,106);fill-rule:nonzero;"/>
            <path d="M1454.16,1218.31C1454.16,1243.13 1454.17,1267.95 1454.14,1292.77C1454.14,1295.29 1454.2,1297.9 1453.61,1300.32C1452.22,1306.02 1447.51,1309.24 1441.66,1308.93C1436.21,1308.64 1432.04,1305.24 1430.93,1299.82C1430.49,1297.64 1430.58,1295.33 1430.57,1293.08C1430.51,1282.08 1430.52,1271.08 1430.45,1260.08C1430.21,1221.17 1429.94,1182.25 1429.73,1143.34C1429.71,1140.26 1429.71,1137.08 1430.38,1134.11C1431.76,1128.03 1436.18,1124.7 1441.87,1124.85C1447.27,1124.99 1451.34,1128.11 1452.78,1133.79C1453.46,1136.47 1453.54,1139.37 1453.54,1142.16C1453.59,1167.54 1453.57,1192.93 1453.57,1218.31L1454.16,1218.31Z" style="fill:rgb(205,172,105);fill-rule:nonzero;"/>
            <path d="M917.23,865.91C951.77,859.66 972.77,839.75 980.31,805.07C987.34,840.48 1009.75,858.92 1045.29,865.33C1010.05,871.48 988.53,890.22 981.01,925.47C972.5,890.86 951.3,871.51 917.23,865.91Z" style="fill:rgb(206,172,106);fill-rule:nonzero;"/>
            <path d="M1123.3,801.87C1114.29,767.64 1092.69,749.3 1059.43,743.77C1093.91,737.6 1115.13,718.07 1122.9,682.75C1125.69,699.74 1132.76,713.37 1144.66,724.1C1156.74,734.99 1171.29,740.86 1188.97,743.12C1160.31,747.16 1133.16,762.44 1123.3,801.87Z" style="fill:rgb(206,172,106);fill-rule:nonzero;"/>
            <path d="M1223.55,1154.44C1215.45,1118.97 1193.07,1100.8 1158.4,1094.69C1193.96,1088.52 1215.45,1069.3 1222.84,1034.53C1230.32,1070 1253.24,1088.36 1288.01,1094.28C1253.51,1100.04 1231.53,1118.61 1223.55,1154.44Z" style="fill:rgb(206,172,106);fill-rule:nonzero;"/>
            <path d="M770.57,1026.09C770.57,1029.75 770.84,1033.44 770.51,1037.07C769.91,1043.55 765.91,1047.32 759.56,1047.89C753.33,1048.45 748.61,1045.35 746.74,1039.34C746.24,1037.74 745.91,1036.04 745.84,1034.38C745.29,1021.43 744.71,1008.48 744.37,995.52C744.24,990.33 745.05,985.34 750.54,982.66C759.38,978.34 768.41,983.78 768.97,994C769.55,1004.69 769.86,1015.39 770.29,1026.09L770.57,1026.09Z" style="fill:rgb(205,172,106);fill-rule:nonzero;"/>
            <path d="M971.04,1014.36C971.04,1019.55 971.15,1025.21 971.01,1030.86C970.82,1038.39 966.72,1042.95 960.02,1043.38C953.82,1043.78 948.22,1039.27 947.17,1032.4C946.44,1027.68 946.33,1022.84 946.19,1018.05C945.89,1007.88 945.51,997.71 945.61,987.54C945.68,981.07 950.61,976.75 957.15,976.52C963.93,976.29 968.59,979.99 969.24,986.83C970.07,995.83 970.44,1004.87 971.04,1014.36Z" style="fill:rgb(206,172,106);fill-rule:nonzero;"/>
            <path d="M840.14,1021.66C840.14,1025.33 840.34,1029.02 840.1,1032.67C839.63,1039.76 835.7,1043.81 829.08,1044.41C822.12,1045.04 817.36,1041.43 815.73,1034.25C815.54,1033.43 815.4,1032.58 815.36,1031.74C814.87,1018.48 814.2,1005.22 814,991.95C813.88,983.76 818.16,978.87 824.93,978.37C832.5,977.81 838.13,983 838.56,991.2C839.09,1001.35 839.45,1011.51 839.89,1021.66L840.14,1021.66Z" style="fill:rgb(206,172,106);fill-rule:nonzero;"/>
            <path d="M908.44,1020.65C908.44,1024.59 908.55,1028.53 908.42,1032.46C908.18,1039.34 903.45,1044.12 896.85,1044.33C890.25,1044.54 885.7,1040.82 884.68,1034C884.02,1029.56 883.71,1025.06 883.41,1020.57C882.8,1011.6 882.16,1002.62 881.84,993.64C881.73,990.62 882.09,987.41 883.04,984.56C884.69,979.62 889.08,977.26 894.36,977.74C899.76,978.23 903.95,981.47 904.78,987.11C906.41,998.22 907.45,1009.42 908.74,1020.58C908.64,1020.61 908.54,1020.63 908.44,1020.65Z" style="fill:rgb(205,172,106);fill-rule:nonzero;"/>
            <path d="M1349.84,1520.02C1356.65,1519.86 1362.61,1525.25 1362.84,1531.76C1363.09,1539.12 1358.44,1544.31 1351.28,1544.63C1344.21,1544.95 1337.97,1539.4 1337.6,1532.47C1337.25,1525.87 1342.84,1520.18 1349.84,1520.02Z" style="fill:rgb(206,174,109);fill-rule:nonzero;"/>
            <path d="M1504.94,1531.19C1504.81,1537.38 1498.98,1542.69 1492.46,1542.56C1486.09,1542.43 1480.07,1536.66 1480.23,1530.83C1480.39,1524.87 1486.5,1519.38 1492.86,1519.5C1499.56,1519.62 1505.08,1524.96 1504.94,1531.19Z" style="fill:rgb(207,175,110);fill-rule:nonzero;"/>
            <path d="M1418.65,1520.82C1425.61,1520.98 1430.77,1525.81 1430.66,1532.07C1430.55,1538.48 1424.68,1543.37 1417.46,1543.08C1410.75,1542.81 1406.57,1538.44 1406.65,1531.8C1406.73,1524.9 1411.37,1520.66 1418.65,1520.82Z" style="fill:rgb(206,173,108);fill-rule:nonzero;"/>
        </g>
    </g>
</svg>
