<?xml version="1.0" encoding="UTF-8" standalone="no"?>
<!DOCTYPE svg PUBLIC "-//W3C//DTD SVG 1.1//EN" "http://www.w3.org/Graphics/SVG/1.1/DTD/svg11.dtd">
<svg width="100%" height="100%" viewBox="0 0 1248 1240" version="1.1" xmlns="http://www.w3.org/2000/svg" xmlns:xlink="http://www.w3.org/1999/xlink" xml:space="preserve" xmlns:serif="http://www.serif.com/" style="fill-rule:evenodd;clip-rule:evenodd;stroke-linejoin:round;stroke-miterlimit:2;">
    <g transform="matrix(1,0,0,1,-619,-640)">
        <g>
            <path d="M621.6,1876.23C621.65,1866.76 621.7,1857.28 621.74,1847.81C622.37,1847.63 623,1847.45 623.63,1847.28C846,1847.02 1068.37,1846.57 1290.74,1846.58C1468.64,1846.59 1646.54,1847.16 1824.44,1847.48C1827.2,1847.49 1829.96,1847.48 1833.69,1847.48C1833.89,1843.7 1834.22,1840.49 1834.22,1837.28C1834.22,1763.15 1834.18,1689.02 1834.16,1614.89C1834.08,1306.91 1834,998.92 1833.91,690.94C1833.91,685.35 1833.74,679.76 1833.66,674.17C1831.97,673.58 1830.28,672.46 1828.59,672.46C1794.53,672.46 1760.48,672.6 1726.42,672.7C1725.82,672.73 1725.21,672.77 1724.61,672.8C1690.56,672.84 1656.51,672.77 1622.46,672.93C1561.63,673.22 1500.79,673.65 1439.96,674.03C1426.29,674.11 1412.61,674.23 1398.94,674.33C1364.54,674.27 1330.14,674.2 1295.74,674.18C1290.44,674.18 1285.13,674.44 1279.83,674.58C1269.22,674.55 1258.61,674.52 1248,674.48L1246.02,674.48C1187.29,674.83 1128.56,675.21 1069.82,675.52C1030.66,675.73 991.5,675.83 952.33,675.97C917.6,675.91 882.87,675.84 848.14,675.82C843.15,675.82 838.16,676.08 833.17,676.22C825.88,676.25 818.58,676.27 811.29,676.3C810.18,676.3 809.07,676.31 807.96,676.32C779.02,676.53 750.07,676.78 721.13,676.95C702.19,677.06 683.26,677.06 664.32,677.15C660.71,677.17 657.09,677.35 653.48,677.46C653.01,678.02 652.54,678.57 652.08,679.13C651.98,682.48 651.81,685.83 651.81,689.18C651.77,986.1 651.75,1283.02 651.74,1579.94C651.74,1583.01 651.89,1586.08 651.98,1589.15C651.75,1589.67 651.71,1590.2 651.87,1590.75C652.45,1590.96 653.03,1591.17 653.61,1591.38L653.55,1590.9L729.58,1590.9C730.87,1587.9 732.29,1584.92 733.45,1581.85C742.11,1558.89 750.62,1535.87 759.37,1512.95C777.5,1465.46 795.77,1418.02 813.96,1370.54C831.64,1324.38 849.23,1278.19 866.94,1232.04C875.85,1208.84 885.03,1185.74 893.92,1162.54C903.4,1137.8 912.62,1112.96 922.1,1088.22C926.89,1075.71 932.2,1063.39 936.95,1050.87C949.73,1017.22 962.23,983.47 975.04,949.83C988.96,913.29 1003.1,876.84 1017.15,840.35C1030.78,804.95 1044.43,769.55 1058.07,734.16C1058.56,732.88 1059.16,731.63 1059.89,729.98L1089.8,729.98C1093.8,740.38 1097.93,751.01 1101.98,761.67C1114.97,795.89 1127.8,830.17 1140.92,864.34C1152.81,895.31 1165.01,926.16 1177.04,957.08C1182.79,971.86 1188.46,986.67 1194.17,1001.47C1194.74,1001.62 1195.3,1001.78 1195.87,1001.93C1198.66,1001.86 1201.46,1001.72 1204.25,1001.72C1391.16,1001.71 1578.07,1001.71 1764.98,1001.72C1767.78,1001.72 1770.57,1001.86 1773.37,1001.93C1773.97,1002.34 1774.57,1002.76 1775.16,1003.17C1775.26,1005.12 1775.44,1007.06 1775.44,1009.01C1775.46,1071.74 1775.46,1134.47 1775.44,1197.21C1775.44,1199.15 1775.23,1201.1 1775.12,1203.04C1774.49,1203.21 1773.87,1203.38 1773.24,1203.56C1770.55,1203.54 1767.85,1203.51 1765.16,1203.49C1764.61,1203.26 1764.06,1203.03 1763.51,1202.8C1757.49,1185.14 1752.41,1167.08 1745.24,1149.9C1733.8,1122.5 1719.5,1096.62 1699.57,1074.19C1683.38,1055.97 1664.57,1041.35 1642.2,1031.56C1630.41,1026.4 1618.1,1023.38 1605.27,1021.37C1568.59,1015.62 1531.74,1017.38 1494.91,1017.18C1493.82,1017.64 1492.74,1018.1 1491.65,1018.57C1491.58,1021.92 1491.45,1025.27 1491.45,1028.62C1491.44,1212.23 1491.44,1395.84 1491.44,1579.46L1491.44,1591.36L1528.17,1591.36C1529.12,1591.84 1530.06,1592.33 1531.01,1592.82C1530.69,1597.84 1530.37,1602.87 1530.05,1607.89C1518.93,1607.8 1507.81,1607.64 1496.69,1607.72C1495.02,1607.73 1493.35,1608.92 1491.69,1609.56C1491.61,1630.78 1491.52,1652 1491.45,1673.22C1491.34,1708.13 1491.25,1743.03 1491.12,1777.94C1491.11,1780.65 1490.83,1783.37 1490.62,1786.87L1382.26,1786.87C1381.7,1786.44 1381.15,1786.01 1380.59,1785.58C1380.15,1736.26 1379.72,1686.95 1379.27,1637.63C1379.18,1628.16 1379.04,1618.69 1378.92,1609.22C1375.74,1608.69 1372.56,1607.7 1369.38,1607.69C1301.14,1607.6 1232.9,1607.62 1164.66,1607.64C1161.59,1607.64 1158.52,1607.83 1155.45,1607.93C1155.11,1602.89 1154.77,1597.84 1154.42,1592.8C1155.39,1592.32 1156.36,1591.85 1157.34,1591.37L1286.39,1591.37C1287.03,1591.27 1287.66,1591.18 1288.3,1591.09C1286.68,1585.81 1285.32,1580.43 1283.39,1575.26C1274.11,1550.4 1264.82,1525.54 1255.24,1500.8C1247.08,1479.73 1238.25,1458.92 1230.18,1437.82C1220.72,1413.06 1212.02,1388.01 1202.52,1363.26C1191.83,1335.4 1180.54,1307.77 1169.68,1279.97C1162.47,1261.52 1155.64,1242.93 1148.5,1224.45C1140.55,1203.88 1132.44,1183.37 1124.37,1162.85C1124,1161.9 1123.35,1161.06 1122.12,1158.95C1120.15,1164.39 1118.49,1168.74 1117,1173.15C1113.61,1183.16 1110.3,1193.2 1106.96,1203.22C1106.31,1203.34 1105.65,1203.46 1105,1203.58C1102.88,1203.58 1100.76,1203.58 1098.64,1203.57C1097.97,1203.51 1097.29,1203.45 1096.62,1203.39C1096.17,1200.44 1095.33,1197.49 1095.32,1194.54C1095.23,1161.81 1095.09,1129.09 1095.38,1096.36C1095.45,1088.59 1093.85,1081.48 1091.04,1074.41C1082.89,1053.92 1074.78,1033.42 1066.78,1012.88C1056.75,987.13 1046.84,961.32 1036.9,935.54C1031.41,921.29 1025.95,907.04 1019.91,891.34C1018.27,894.25 1017.05,895.89 1016.34,897.74C1008.47,918.36 1000.76,939.04 992.85,959.65C983.36,984.37 973.64,1009 964.16,1033.72C955.48,1056.36 947.15,1079.13 938.35,1101.72C927.74,1128.97 916.61,1156.02 906.04,1183.29C894.94,1211.91 884.32,1240.71 873.35,1269.38C855.18,1316.86 836.94,1364.3 818.66,1411.74C810.83,1432.05 802.7,1452.25 794.93,1472.59C785.08,1498.37 775.56,1524.28 765.69,1550.05C761.12,1561.97 756.05,1573.7 751.24,1585.53C750.64,1587 750.24,1588.54 749.37,1591.19L759.2,1591.19C797.24,1591.19 835.28,1591.18 873.32,1591.2C876.67,1591.2 880.03,1591.35 883.38,1591.43C883.91,1591.83 884.44,1592.24 884.97,1592.64C885,1597.57 885.04,1602.5 885.07,1607.44C881.44,1607.51 877.81,1607.64 874.17,1607.64C810.7,1607.65 747.24,1607.66 683.77,1607.64C663.08,1607.63 642.39,1607.54 621.71,1607.49C621.6,1601.34 621.39,1595.19 621.39,1589.04C621.42,1284.66 621.47,980.27 621.52,675.89C621.52,666.39 621.65,656.88 621.72,647.38C622.34,647.18 622.96,646.99 623.58,646.79C688.98,646.43 754.37,646.07 819.77,645.74C824.24,645.72 828.71,645.86 833.18,645.92C834.85,645.92 836.51,645.91 838.18,645.91C842.67,645.9 847.16,645.88 851.66,645.87C859.49,648.06 867.31,648.12 875.12,645.81C909.47,645.69 943.83,645.56 978.18,645.46C1016.17,645.35 1054.16,645.33 1092.15,645.14C1152.47,644.83 1212.79,644.41 1273.11,644.06C1275.34,644.05 1277.57,644.18 1279.81,644.25C1283.15,646.36 1286.49,646.37 1289.83,644.23C1292.09,644.22 1294.34,644.21 1296.6,644.21C1304.99,646.48 1313.37,646.56 1321.74,644.15C1360.56,644.02 1399.38,643.89 1438.2,643.77C1470.6,643.67 1503,643.66 1535.39,643.48C1596.54,643.16 1657.69,642.75 1718.85,642.39C1720.8,642.38 1722.76,642.49 1724.71,642.54C1726.96,644.47 1729.2,644.46 1731.44,642.52C1733.67,642.51 1735.91,642.51 1738.14,642.5C1747.1,644.71 1756.06,644.78 1765.01,642.43L1863.67,642.43C1864.16,642.98 1864.35,643.18 1864.53,643.39C1864.7,643.6 1864.98,643.82 1865,644.06C1865.18,645.72 1865.43,647.39 1865.43,649.06C1865.46,1057.57 1865.47,1466.09 1865.45,1874.6C1865.45,1875.38 1865.06,1876.16 1864.58,1877.99L1854.11,1877.99C1659.64,1877.88 1465.17,1877.76 1270.7,1877.66C1131.63,1877.59 992.56,1877.64 853.5,1877.48C783.56,1877.4 713.62,1876.94 643.68,1876.73C636.98,1876.71 630.29,1877.19 623.59,1877.44C622.91,1877.01 622.26,1876.62 621.6,1876.23ZM1378.9,1018.22C1378.23,1017.87 1377.55,1017.53 1376.88,1017.18C1344.79,1017.51 1312.63,1015.35 1280.65,1019.95C1271.04,1021.33 1261.22,1021.65 1251.77,1023.69C1236.99,1026.87 1223.24,1032.89 1210.37,1041.53C1211.21,1044.2 1211.77,1046.33 1212.55,1048.38C1219.17,1065.84 1225.92,1083.26 1232.46,1100.75C1237.44,1114.07 1241.91,1127.59 1247.07,1140.84C1254.44,1159.77 1262.5,1178.43 1269.8,1197.38C1278.62,1220.31 1286.73,1243.51 1295.57,1266.43C1302.88,1285.38 1311.06,1303.99 1318.36,1322.94C1327.19,1345.86 1335.25,1369.08 1344.1,1391.99C1352.24,1413.07 1360.96,1433.92 1369.49,1454.85C1372.64,1462.57 1375.95,1470.22 1379.19,1477.9C1379.35,1478.3 1379.5,1478.69 1379.66,1479.09C1379.68,1478.66 1379.7,1478.22 1379.71,1477.79C1379.55,1471.38 1379.25,1464.96 1379.25,1458.55C1379.22,1315.4 1379.23,1172.25 1379.22,1029.1C1379.22,1025.47 1379.01,1021.84 1378.9,1018.22Z" style="fill:rgb(204,170,102);fill-rule:nonzero;"/>
            <path d="M621.68,1607.47C642.37,1607.52 663.06,1607.61 683.74,1607.62C747.21,1607.64 810.67,1607.63 874.14,1607.62C877.77,1607.62 881.4,1607.49 885.04,1607.42C882.21,1608.05 879.39,1609.21 876.56,1609.23C848.91,1609.37 821.27,1609.31 793.62,1609.31C739.44,1609.31 685.26,1609.34 631.09,1609.23C627.94,1609.22 624.81,1608.08 621.68,1607.47Z" style="fill:rgb(221,221,194);fill-rule:nonzero;"/>
            <path d="M1155.4,1607.93C1158.47,1607.83 1161.54,1607.64 1164.61,1607.64C1232.85,1607.62 1301.09,1607.61 1369.33,1607.69C1372.51,1607.69 1375.69,1608.68 1378.87,1609.22C1306.77,1609.25 1234.67,1609.29 1162.57,1609.25C1160.18,1609.24 1157.79,1608.39 1155.4,1607.93Z" style="fill:rgb(221,221,194);fill-rule:nonzero;"/>
            <path d="M1279.82,674.58C1285.12,674.44 1290.43,674.18 1295.73,674.18C1330.13,674.2 1364.53,674.27 1398.93,674.33C1396.83,674.82 1394.73,675.72 1392.64,675.73C1356.89,675.83 1321.13,675.83 1285.37,675.77C1283.52,675.76 1281.67,674.99 1279.82,674.58Z" style="fill:rgb(236,244,236);fill-rule:nonzero;"/>
            <path d="M833.17,676.23C838.16,676.09 843.15,675.83 848.14,675.83C882.87,675.85 917.6,675.93 952.33,675.98C949.95,676.47 947.57,677.38 945.19,677.39C910.26,677.49 875.32,677.5 840.39,677.44C837.98,677.43 835.58,676.65 833.17,676.23Z" style="fill:rgb(233,240,229);fill-rule:nonzero;"/>
            <path d="M1726.42,672.7C1760.48,672.59 1794.53,672.46 1828.59,672.46C1830.28,672.46 1831.97,673.57 1833.66,674.17C1797.88,674.14 1762.1,674.11 1726.31,674.08C1726.34,673.61 1726.38,673.15 1726.42,672.7Z" style="fill:rgb(236,244,236);fill-rule:nonzero;"/>
            <path d="M1491.64,1609.56C1493.31,1608.92 1494.97,1607.73 1496.64,1607.72C1507.76,1607.64 1518.88,1607.8 1530,1607.89C1527.38,1608.36 1524.77,1609.18 1522.14,1609.25C1511.98,1609.48 1501.81,1609.47 1491.64,1609.56Z" style="fill:rgb(221,221,194);fill-rule:nonzero;"/>
            <path d="M1764.98,642.39C1756.03,644.73 1747.07,644.67 1738.11,642.46C1747.07,642.44 1756.03,642.41 1764.98,642.39Z" style="fill:rgb(228,189,136);fill-rule:nonzero;"/>
            <path d="M1321.7,644.1C1313.33,646.51 1304.95,646.44 1296.56,644.16C1304.94,644.15 1313.32,644.12 1321.7,644.1Z" style="fill:rgb(224,183,125);fill-rule:nonzero;"/>
            <path d="M875.09,645.78C867.28,648.09 859.45,648.03 851.63,645.84C859.45,645.82 867.27,645.8 875.09,645.78Z" style="fill:rgb(224,183,125);fill-rule:nonzero;"/>
            <path d="M1289.79,644.19C1286.46,646.33 1283.12,646.32 1279.77,644.21C1283.12,644.21 1286.46,644.2 1289.79,644.19Z" style="fill:rgb(224,183,125);fill-rule:nonzero;"/>
            <path d="M1731.41,642.48C1729.17,644.42 1726.93,644.43 1724.68,642.5C1726.92,642.49 1729.16,642.48 1731.41,642.48Z" style="fill:rgb(228,189,136);fill-rule:nonzero;"/>
            <path d="M838.15,645.88C836.48,645.88 834.82,645.89 833.15,645.89C834.82,645.89 836.48,645.89 838.15,645.88Z" style="fill:rgb(224,183,125);fill-rule:nonzero;"/>
            <path d="M1491.61,1018.57C1492.7,1018.11 1493.78,1017.64 1494.87,1017.18C1493.78,1017.65 1492.7,1018.11 1491.61,1018.57Z" style="fill:rgb(219,216,186);fill-rule:nonzero;"/>
            <path d="M807.96,676.32C809.07,676.31 810.18,676.31 811.29,676.3C810.18,676.31 809.07,676.32 807.96,676.32Z" style="fill:rgb(233,240,229);fill-rule:nonzero;"/>
            <path d="M1157.29,1591.36C1156.32,1591.84 1155.34,1592.31 1154.37,1592.79C1155.34,1592.32 1156.31,1591.84 1157.29,1591.36Z" style="fill:rgb(234,200,155);fill-rule:nonzero;"/>
            <path d="M1530.97,1592.82C1530.02,1592.33 1529.08,1591.85 1528.13,1591.36C1529.08,1591.85 1530.02,1592.33 1530.97,1592.82Z" style="fill:rgb(234,200,155);fill-rule:nonzero;"/>
            <path d="M1775.12,1003.18C1774.52,1002.77 1773.92,1002.35 1773.33,1001.94C1773.93,1002.36 1774.52,1002.77 1775.12,1003.18Z" style="fill:rgb(228,189,136);fill-rule:nonzero;"/>
            <path d="M652.07,679.14C652.54,678.58 653.01,678.03 653.47,677.47C653.01,678.03 652.54,678.59 652.07,679.14Z" style="fill:rgb(250,247,240);fill-rule:nonzero;"/>
            <path d="M1195.83,1001.94C1195.26,1001.79 1194.7,1001.63 1194.13,1001.48C1194.7,1001.63 1195.26,1001.79 1195.83,1001.94Z" style="fill:rgb(228,189,136);fill-rule:nonzero;"/>
            <path d="M1096.57,1203.37C1097.24,1203.43 1097.92,1203.49 1098.59,1203.55C1097.92,1203.5 1097.24,1203.44 1096.57,1203.37Z" style="fill:rgb(221,221,194);fill-rule:nonzero;"/>
            <path d="M1104.95,1203.56C1105.6,1203.44 1106.26,1203.32 1106.91,1203.2C1106.26,1203.32 1105.61,1203.44 1104.95,1203.56Z" style="fill:rgb(221,221,194);fill-rule:nonzero;"/>
            <path d="M1763.47,1202.8C1764.02,1203.03 1764.57,1203.26 1765.12,1203.49C1764.57,1203.26 1764.02,1203.03 1763.47,1202.8Z" style="fill:rgb(221,221,194);fill-rule:nonzero;"/>
            <path d="M1773.2,1203.56C1773.83,1203.39 1774.45,1203.22 1775.08,1203.04C1774.46,1203.22 1773.83,1203.39 1773.2,1203.56Z" style="fill:rgb(221,221,194);fill-rule:nonzero;"/>
            <path d="M651.85,1590.77C651.69,1590.22 651.73,1589.69 651.96,1589.17C652.48,1589.75 653.01,1590.34 653.53,1590.92C653.53,1590.92 653.59,1591.4 653.59,1591.39C653.01,1591.18 652.43,1590.97 651.85,1590.77Z" style="fill:rgb(250,247,240);fill-rule:nonzero;"/>
            <path d="M884.93,1592.62C884.4,1592.22 883.87,1591.81 883.34,1591.41C883.87,1591.81 884.4,1592.21 884.93,1592.62Z" style="fill:rgb(234,200,155);fill-rule:nonzero;"/>
            <path d="M1288.25,1591.08C1287.61,1591.17 1286.98,1591.27 1286.34,1591.36C1286.98,1591.27 1287.61,1591.18 1288.25,1591.08Z" style="fill:rgb(234,200,155);fill-rule:nonzero;"/>
            <path d="M1246.01,674.49L1247.99,674.49C1247.33,674.48 1246.67,674.49 1246.01,674.49Z" style="fill:rgb(221,221,194);fill-rule:nonzero;"/>
            <path d="M1726.42,672.7C1726.38,673.16 1726.35,673.61 1726.31,674.07C1725.74,673.65 1725.17,673.22 1724.6,672.8C1725.21,672.77 1725.81,672.73 1726.42,672.7Z" style="fill:rgb(228,231,212);fill-rule:nonzero;"/>
            <path d="M623.55,646.77C622.93,646.97 622.31,647.16 621.69,647.36C622.31,647.16 622.93,646.96 623.55,646.77Z" style="fill:rgb(237,205,165);fill-rule:nonzero;"/>
            <path d="M1380.55,1785.58C1381.11,1786.01 1381.66,1786.44 1382.22,1786.87C1381.66,1786.43 1381.1,1786.01 1380.55,1785.58Z" style="fill:rgb(211,193,144);fill-rule:nonzero;"/>
            <path d="M623.63,1847.28C623,1847.46 622.37,1847.64 621.74,1847.81C622.37,1847.63 623,1847.45 623.63,1847.28Z" style="fill:rgb(233,197,152);fill-rule:nonzero;"/>
            <path d="M621.6,1876.23C622.25,1876.62 622.91,1877.01 623.56,1877.4C622.91,1877.01 622.26,1876.62 621.6,1876.23Z" style="fill:rgb(219,216,186);fill-rule:nonzero;"/>
            <path d="M1379.19,1477.91L1379.72,1477.8C1379.7,1478.23 1379.68,1478.66 1379.66,1479.1C1379.51,1478.7 1379.35,1478.3 1379.19,1477.91Z" style="fill:rgb(227,209,172);fill-rule:nonzero;"/>
            <path d="M651.85,1590.77C652.43,1590.98 653.01,1591.19 653.59,1591.39C653.01,1591.18 652.43,1590.97 651.85,1590.77Z" style="fill:rgb(234,200,155);fill-rule:nonzero;"/>
            <path d="M1378.9,1018.22C1378.23,1017.87 1377.56,1017.52 1376.88,1017.18C1377.55,1017.52 1378.23,1017.87 1378.9,1018.22Z" style="fill:rgb(219,216,186);fill-rule:nonzero;"/>
        </g>
    </g>
</svg>
