<?xml version="1.0" encoding="UTF-8" standalone="no"?>
<!DOCTYPE svg PUBLIC "-//W3C//DTD SVG 1.1//EN" "http://www.w3.org/Graphics/SVG/1.1/DTD/svg11.dtd">
<svg width="100%" height="100%" viewBox="0 0 111 111" version="1.1" xmlns="http://www.w3.org/2000/svg" xmlns:xlink="http://www.w3.org/1999/xlink" xml:space="preserve" xmlns:serif="http://www.serif.com/" style="fill-rule:evenodd;clip-rule:evenodd;stroke-linejoin:round;stroke-miterlimit:2;">
    <g id="Nav-icon" serif:id="Nav icon" transform="matrix(0.320755,0,0,0.320755,-180.425,-237.038)">
        <g transform="matrix(1.33527,0,0,1.42857,246.041,-79.3571)">
            <path d="M495,772C495,764.273 488.288,758 480.022,758L251.978,758C243.712,758 237,764.273 237,772L237,800C237,807.727 243.712,814 251.978,814L480.022,814C488.288,814 495,807.727 495,800L495,772Z" style="fill:rgb(236,232,221);"/>
        </g>
        <g transform="matrix(1.33527,0,0,1.42857,246.041,-211.607)">
            <path d="M495,772C495,764.273 488.288,758 480.022,758L251.978,758C243.712,758 237,764.273 237,772L237,800C237,807.727 243.712,814 251.978,814L480.022,814C488.288,814 495,807.727 495,800L495,772Z" style="fill:rgb(236,232,221);"/>
        </g>
        <g transform="matrix(1.33527,0,0,1.42857,246.041,-343.857)">
            <path d="M495,772C495,764.273 488.288,758 480.022,758L251.978,758C243.712,758 237,764.273 237,772L237,800C237,807.727 243.712,814 251.978,814L480.022,814C488.288,814 495,807.727 495,800L495,772Z" style="fill:rgb(236,232,221);"/>
        </g>
    </g>
</svg>
