<?xml version="1.0" encoding="UTF-8" standalone="no"?>
<!DOCTYPE svg PUBLIC "-//W3C//DTD SVG 1.1//EN" "http://www.w3.org/Graphics/SVG/1.1/DTD/svg11.dtd">
<svg width="100%" height="100%" viewBox="0 0 914 914" version="1.1" xmlns="http://www.w3.org/2000/svg" xmlns:xlink="http://www.w3.org/1999/xlink" xml:space="preserve" xmlns:serif="http://www.serif.com/" style="fill-rule:evenodd;clip-rule:evenodd;stroke-linejoin:round;stroke-miterlimit:2;">
    <g transform="matrix(1,0,0,1,-760,-783)">
        <g>
            <path d="M1500.57,1209.32L1500.57,1237.44C1508.13,1238.63 1515.23,1239.39 1522.17,1240.89C1549.88,1246.88 1573.21,1260.31 1591.65,1282.07C1605.54,1298.46 1614.91,1317.06 1618.02,1338.3C1621.18,1359.86 1619.41,1380.89 1610.47,1401.36C1600.78,1423.55 1586.14,1441.28 1566.17,1454.43C1540.14,1471.56 1511.5,1478.58 1480.29,1474.64C1466.9,1472.95 1454.07,1469.72 1441.92,1463.85C1441.1,1463.45 1440.15,1463.3 1438.75,1462.89C1438.1,1464.83 1437.46,1466.55 1436.95,1468.32C1433.09,1481.6 1429.99,1495.15 1425.24,1508.11C1416.6,1531.7 1405.15,1554.01 1390.4,1574.41C1381.74,1586.39 1372.2,1597.76 1361.12,1607.65C1357.55,1610.84 1356.41,1614.29 1356.56,1618.93C1357.22,1638.98 1357.6,1659.03 1358.06,1679.08C1358.11,1681.23 1358.21,1683.4 1357.99,1685.52C1357.47,1690.43 1353.23,1694.39 1348.46,1694.63C1344.36,1694.84 1340.28,1691.82 1339.06,1687.23C1338.46,1684.97 1338.44,1682.52 1338.36,1680.15C1337.88,1664.88 1337.46,1649.6 1336.99,1634.33C1336.93,1632.47 1336.7,1630.62 1336.49,1628.1C1334.79,1628.89 1333.47,1629.3 1332.37,1630.03C1305.45,1647.96 1275.86,1658.74 1243.75,1662.01C1230.26,1663.38 1216.6,1663.12 1203.01,1663.48C1200.9,1663.54 1198.68,1663.24 1196.69,1662.57C1192.25,1661.07 1189.91,1656.93 1190.59,1652.43C1191.2,1648.38 1194.45,1645.28 1198.96,1644.97C1202.52,1644.72 1206.12,1644.89 1209.7,1645C1235.27,1645.8 1260.14,1642.14 1284.19,1633.28C1301.09,1627.05 1316.81,1618.65 1331.15,1607.71C1352.85,1591.16 1370.36,1571.02 1384.48,1547.64C1402.62,1517.62 1413.45,1485.16 1420.57,1450.99C1426.9,1420.61 1429.37,1390.02 1428.19,1359.21C1427.36,1337.55 1424.53,1315.97 1422.43,1294.37C1421.9,1288.95 1424.52,1283.78 1429.12,1282.53C1434.17,1281.16 1439.95,1284.26 1441.35,1289.75C1442.64,1294.81 1443.34,1300.05 1443.94,1305.26C1446.57,1328.04 1448.44,1350.88 1448.06,1373.83C1447.95,1380.61 1451.8,1385.05 1455.65,1389.47C1474.45,1411.03 1504.67,1411.83 1525.24,1395.71C1547.07,1378.61 1547.19,1341.77 1525.11,1324.94C1515.68,1317.75 1505.26,1313.67 1493.34,1313.7C1492.15,1313.7 1490.94,1313.68 1489.77,1313.52C1486.25,1313.02 1484.34,1311.33 1484.3,1307.39C1484.24,1300.96 1483.59,1294.53 1483.39,1288.1C1482.69,1265.67 1482.11,1243.24 1481.41,1220.81C1481.19,1213.66 1480.56,1206.52 1480.4,1199.37C1480.25,1192.56 1482.79,1189.85 1489.63,1189.42C1493.19,1189.2 1496.82,1189.26 1500.36,1189.69C1518.93,1191.96 1536.46,1188.22 1553.22,1180.49C1571.77,1171.93 1585.99,1158.38 1596.42,1140.97C1602.76,1130.39 1606.2,1118.61 1607.46,1106.42C1608.99,1091.55 1607.78,1076.82 1602.14,1062.76C1591.32,1035.76 1572,1017.19 1544.91,1007.22C1518.95,997.66 1492.86,998.55 1467.52,1009.88C1450.41,1017.53 1436.53,1029.14 1426.07,1044.99C1419.09,1055.56 1414.45,1066.79 1412.16,1079.16C1410.69,1087.09 1407.83,1089.93 1402.05,1090.02C1396.9,1090.1 1393.31,1087.12 1392.85,1082.03C1392.64,1079.68 1392.81,1077.23 1393.24,1074.91C1397.85,1049.78 1410.15,1028.91 1429.22,1012.17C1449.78,994.12 1473.86,984.24 1501.3,982.51C1538.53,980.17 1570.48,992.27 1596.53,1018.56C1616.43,1038.64 1626.61,1063.48 1627.64,1091.94C1628.29,1109.98 1624.74,1127.2 1617.01,1143.34C1608.08,1161.98 1594.74,1177.17 1577.46,1188.58C1555.73,1202.92 1531.7,1209.64 1505.65,1209.08C1504.05,1209.04 1502.44,1209.22 1500.57,1209.32ZM1501.89,1258.01C1501.89,1268.64 1501.76,1278.63 1501.94,1288.62C1502.06,1295.12 1502.45,1294.98 1509.28,1296.73C1539.47,1304.5 1555.98,1323.56 1561.36,1352.14C1564.7,1369.9 1558.64,1386.5 1547.42,1400.25C1526.14,1426.34 1490.92,1432.51 1462.58,1418.28C1457.31,1415.63 1452.38,1412.32 1446.65,1408.93C1445.33,1420.5 1444.02,1431.9 1442.76,1442.93C1456.88,1451.87 1478.41,1457.09 1494.02,1456.98C1525.56,1456.75 1552.71,1446.01 1574.3,1422.41C1590.58,1404.62 1599.12,1383.58 1600.21,1359.67C1600.94,1343.68 1597.08,1328.5 1589.92,1314.14C1576.34,1286.9 1554.3,1269.85 1525.62,1261.07C1518.2,1258.79 1510.5,1256.66 1501.89,1258.01Z" style="fill:rgb(205,172,105);fill-rule:nonzero;"/>
            <path d="M1011.26,1460.51C1002.62,1462.5 994.62,1464.99 986.44,1466.11C960.51,1469.68 935.6,1466.32 912.03,1454.27C884.8,1440.36 866.29,1418.76 855.31,1390.54C849.03,1374.39 848.21,1357.47 849.87,1340.43C851.5,1323.68 857.88,1308.4 866.9,1294.52C885.69,1265.58 912.7,1248.57 946.54,1242.31C952.94,1241.13 953.42,1241.16 953.67,1234.84C954.02,1226.1 953.76,1217.34 953.76,1208.11C951.9,1208.32 950.09,1208.58 948.27,1208.71C914.98,1211.11 884.86,1203.02 858.82,1181.58C841.62,1167.41 830.07,1149.66 823.01,1128.38C817.16,1110.78 815.93,1093.1 819.82,1075.47C825.4,1050.19 837.65,1028.54 858.03,1011.59C875.85,996.77 896.05,987.89 918.68,984.61C943.66,980.99 967.54,985.05 990.23,996.4C1010.66,1006.62 1026.72,1021.42 1038.36,1040.98C1046.76,1055.1 1052.33,1070.22 1052.92,1086.86C1052.98,1088.53 1053.04,1090.22 1052.84,1091.87C1052.24,1096.71 1049.08,1099.74 1044.44,1100.12C1039.34,1100.54 1035.46,1097.96 1034.32,1093.05C1033.68,1090.27 1033.5,1087.38 1033.16,1084.53C1030.83,1065.14 1022.34,1048.7 1009.39,1034.32C993.17,1016.31 972.73,1006.1 949,1003.16C923.23,999.96 899.07,1005.25 877.69,1020.63C858.36,1034.53 845.92,1052.86 840.14,1076.28C833.58,1102.82 839.45,1126.88 854.21,1148.44C870.95,1172.88 895.14,1186.29 924.88,1189.67C935.26,1190.85 945.33,1190.17 955.45,1188.26C956.85,1188 958.28,1187.78 959.7,1187.69C970.72,1187.01 975.45,1191.31 974.93,1202.21C973.9,1223.67 972.52,1245.11 971.4,1266.57C970.99,1274.44 970.82,1282.32 970.67,1290.2C970.53,1297.89 970.56,1297.97 963.36,1300.23C947.36,1305.25 933.78,1313.71 925.28,1328.6C916.19,1344.53 916.14,1361.08 924.61,1377.15C929.18,1385.82 935.87,1392.88 944.72,1397.98C961.57,1407.69 978.69,1407.85 996.31,1400.92C1002.1,1398.64 1002.26,1397.87 1001.96,1391.25C1000.55,1360.16 1001.42,1329.19 1006.84,1298.46C1007.21,1296.35 1007.19,1294.15 1007.72,1292.09C1008.85,1287.71 1014.31,1283.99 1018.57,1284.48C1023.23,1285.02 1027.15,1289.37 1026.96,1294.5C1026.79,1298.77 1025.98,1303.02 1025.34,1307.27C1020.98,1336.44 1019.84,1365.72 1022.27,1395.11C1023.35,1408.18 1024.07,1421.38 1026.53,1434.22C1030.29,1453.88 1034.42,1473.57 1040.26,1492.68C1045.25,1509.03 1051.93,1525.05 1059.61,1540.33C1065.76,1552.57 1072.99,1564.48 1082.86,1574.52C1089.78,1581.57 1096.88,1588.2 1105.73,1592.66C1110.06,1594.84 1111.88,1597.86 1111.92,1602.84C1112.03,1617.4 1112.57,1631.96 1113.05,1646.52C1113.43,1657.97 1114.06,1669.41 1114.37,1680.85C1114.43,1683.14 1114.06,1685.69 1113.06,1687.7C1110.9,1691.99 1106.21,1694.06 1102.37,1693.02C1098.05,1691.84 1094.63,1687.83 1094.46,1683.14C1093.94,1668.34 1093.54,1653.54 1093.18,1638.74C1092.98,1630.38 1092.93,1622.02 1092.85,1613.66C1092.82,1609.9 1091.91,1606.96 1088.38,1604.63C1071.69,1593.63 1059.61,1578.42 1049.32,1561.52C1031.49,1532.24 1020.49,1500.37 1012.97,1467.15C1012.46,1464.86 1011.81,1462.62 1011.26,1460.51ZM952.45,1259.93C945.71,1261.68 940.35,1262.72 935.23,1264.47C918.42,1270.2 904.15,1279.67 892.17,1292.96C881.3,1305.01 874.38,1319.09 870.97,1334.51C866.89,1352.97 868.33,1371.24 875.94,1389.11C882.6,1404.76 892.69,1417.44 905.66,1427.84C911.72,1432.7 918.87,1436.38 925.9,1439.8C942.18,1447.73 959.66,1449.88 977.5,1448.38C987.64,1447.53 997.75,1445.8 1007.34,1440.39C1006.31,1433.04 1005.31,1425.86 1004.26,1418.33C1001.97,1419.03 1000.61,1419.39 999.28,1419.85C985.45,1424.75 971.27,1425.91 957.01,1422.64C929.55,1416.34 910.84,1400.01 901.82,1373.04C898.88,1364.25 898.64,1355.16 899.5,1346.12C901.36,1326.56 910.73,1311.03 926.01,1298.88C932.23,1293.94 938.91,1289.94 946.43,1287.24C948.2,1286.6 950.68,1284.86 950.85,1283.39C951.72,1276.14 951.92,1268.8 952.45,1259.93Z" style="fill:rgb(205,172,105);fill-rule:nonzero;"/>
            <path d="M1281.04,875.96C1271.23,863.28 1258.21,857.76 1243.83,855.12C1221.83,851.08 1201.1,854.94 1181.94,866.59C1176.39,869.97 1171.94,874.56 1168.41,879.64C1172.77,887.66 1177.03,895.1 1180.93,902.72C1190.11,920.68 1192.72,939.99 1190.94,959.76C1190.03,969.89 1188.33,980.29 1184.87,989.81C1170.2,1030.23 1142.84,1057.9 1100.98,1070.17C1099.38,1070.64 1097.75,1071.11 1096.11,1071.26C1090.18,1071.82 1085.72,1068.84 1084.74,1063.79C1083.83,1059.1 1086.61,1054.92 1092.02,1053.01C1098.08,1050.87 1104.52,1049.48 1110.17,1046.56C1118.17,1042.43 1126.24,1037.97 1133.15,1032.27C1145,1022.48 1154.31,1010.51 1161.07,996.4C1171.7,974.21 1174.8,951.27 1169.04,927.49C1165.37,912.34 1158.8,898.51 1147.36,887.13C1141.23,881.03 1135.32,874.98 1127.65,870.83C1101.65,856.76 1075.13,856.42 1048.47,868.38C1024.62,879.08 1007.53,896.83 996.94,920.69C994.35,926.52 992.56,932.71 990.53,938.78C988.52,944.79 984.85,947.52 979.53,946.71C974.47,945.94 970.86,942.6 971.44,937.53C972.12,931.7 973.79,925.89 975.75,920.33C977.56,915.19 980.08,910.24 982.72,905.45C1002.27,869.99 1031.69,848.42 1071.99,842.05C1086.42,839.77 1100.51,841.26 1114.79,844.89C1115.31,844.08 1115.94,843.38 1116.26,842.57C1125.72,818.51 1143.95,803.71 1167.34,794.56C1193.53,784.3 1220.38,783.69 1247.55,789.91C1276.83,796.62 1301.58,811.01 1321.15,833.92C1324.07,837.34 1326.37,841.3 1329.21,845.36C1331.02,845.04 1332.87,844.83 1334.65,844.37C1358.57,838.1 1382.34,838.24 1405.78,846.45C1434.66,856.56 1456.88,874.52 1471.22,901.99C1478.67,916.25 1482.79,931.16 1483.07,947.19C1483.09,948.62 1483.15,950.07 1483,951.49C1482.47,956.55 1479.05,959.99 1474.29,960.38C1469.78,960.75 1465.51,957.69 1464.36,952.84C1463.71,950.08 1463.53,947.17 1463.4,944.32C1462.5,924.64 1454.73,907.41 1442.19,892.95C1411.47,857.54 1363.73,850 1324.81,868.31C1300.13,879.92 1282.79,898.62 1274.81,925.09C1267.33,949.89 1269.9,974.05 1282.79,996.34C1295.48,1018.29 1314.76,1032.66 1339.23,1039.82C1341.29,1040.42 1343.45,1040.8 1345.39,1041.68C1350.16,1043.84 1352.66,1048.48 1351.52,1052.57C1350.16,1057.49 1345.13,1060.88 1339.75,1059.31C1331.08,1056.77 1322.35,1054.08 1314.2,1050.25C1294.03,1040.77 1278.38,1025.89 1266.51,1007.15C1258.87,995.09 1254.7,981.58 1252.53,967.56C1248.76,943.13 1253.1,919.98 1265.04,898.41C1268.37,892.4 1272.87,887.04 1276.87,881.41C1278.1,879.68 1279.45,878.04 1281.04,875.96ZM1311,853.93C1306.39,845.38 1299.74,837.58 1290.84,830.72C1267.48,812.73 1240.93,804.34 1211.52,804.83C1187.03,805.24 1164.94,812.15 1147.04,829.55C1140.7,835.71 1135.76,843 1134.2,852.3C1140.95,856.78 1147.44,861.08 1153.88,865.36C1191.19,825.85 1261.39,824.65 1296,862.49C1296.76,862.18 1297.67,861.92 1298.45,861.46C1302.53,859.05 1306.58,856.59 1311,853.93Z" style="fill:rgb(205,172,105);fill-rule:nonzero;"/>
            <path d="M1569.21,1091.58C1570.26,1115.9 1549.69,1142.34 1520.85,1149.8C1486.92,1158.58 1451.84,1139.71 1440.5,1107.25C1433.01,1085.8 1443,1053.12 1464.45,1038.5C1486.39,1023.55 1515.23,1021.11 1539.22,1036.31C1558.4,1048.46 1569.17,1065.84 1569.21,1091.58ZM1503.8,1133.21C1527.8,1133.46 1549.99,1114.55 1549.92,1089.16C1549.85,1064.49 1529.63,1044.54 1503.28,1044.88C1477.55,1045.21 1457.63,1062.97 1457.79,1089.33C1457.96,1116.51 1479.63,1133.13 1503.8,1133.21Z" style="fill:rgb(205,172,105);fill-rule:nonzero;"/>
            <path d="M1001.39,1101.35C1001.14,1128.53 982.72,1151.6 954.95,1159.55C925.11,1168.09 890.48,1153.45 878.55,1123.69C869.49,1101.09 873.04,1079.83 888.57,1061.41C900.64,1047.1 917.19,1039.33 935.78,1039.36C959.15,1039.39 978.73,1048.4 992,1068.97C998.47,1078.99 1001.5,1089.62 1001.39,1101.35ZM937.81,1058.51C916.43,1057.52 893.62,1074.63 893.52,1100.41C893.42,1125.57 914.37,1143.3 937.86,1143.16C962.82,1143 981.79,1123.86 982.12,1101.45C982.47,1076.67 960.89,1057.91 937.81,1058.51Z" style="fill:rgb(205,172,105);fill-rule:nonzero;"/>
            <path d="M1365.75,1009.91C1332.12,1009.85 1305.4,986.16 1302.97,952.8C1301.67,934.98 1307.79,919.11 1321.1,906.41C1333.65,894.43 1348.78,888.35 1365.77,888.55C1389.17,888.82 1408.08,898.33 1420.73,918.89C1431.91,937.08 1433.11,956.14 1423.7,974.77C1412.16,997.59 1391.08,1010 1365.75,1009.91ZM1409.96,949.47C1411.09,929.05 1391.01,907.11 1365.91,907.33C1343.79,907.53 1322.27,924.69 1322.37,949.09C1322.46,972.47 1341.52,990.92 1365.58,991.32C1391.47,991.76 1410.81,969.6 1409.96,949.47Z" style="fill:rgb(205,172,105);fill-rule:nonzero;"/>
            <path d="M1087.65,1008.58C1063.39,1009.56 1037.22,992 1031.33,966.58C1025.34,940.76 1035.56,915.37 1061.09,902.6C1084.68,890.81 1113.54,895.83 1132.08,915.23C1140.42,923.96 1144.79,934.67 1146.05,946.65C1149.99,984.21 1118.26,1009.78 1087.65,1008.58ZM1088.12,989.93C1108.12,990.26 1126.93,975.53 1127.02,952.63C1127.1,929.67 1108.05,915.1 1088.26,915.15C1066.62,915.21 1048.77,930.55 1048.99,952.83C1049.2,975.6 1067.74,990.12 1088.12,989.93Z" style="fill:rgb(205,172,105);fill-rule:nonzero;"/>
            <path d="M1180.5,1222.53C1180.5,1219.28 1180.8,1217.09 1180.44,1215.01C1179.42,1209.03 1185.69,1204.45 1189.49,1203.97C1194.23,1203.37 1199.35,1207.71 1200.37,1213.32C1200.75,1215.42 1200.86,1217.57 1200.99,1219.7C1201.76,1231.8 1202.5,1243.9 1203.26,1255.99C1203.52,1260.09 1202.39,1263.45 1198.64,1265.69C1193.1,1268.99 1187.04,1267.07 1184.61,1261.07C1184.17,1259.98 1183.81,1258.8 1183.71,1257.64C1183.19,1251.48 1182.86,1245.31 1182.3,1239.16C1181.77,1233.24 1181.03,1227.35 1180.5,1222.53Z" style="fill:rgb(205,172,106);fill-rule:nonzero;"/>
            <path d="M1141.79,1249.25C1141.79,1253.06 1141.94,1256.89 1141.75,1260.69C1141.47,1266.35 1138.14,1269.99 1133.17,1270.41C1128.28,1270.83 1124.19,1267.72 1122.83,1262.47C1122.48,1261.09 1122.24,1259.66 1122.17,1258.24C1121.55,1245.86 1120.97,1233.49 1120.41,1221.11C1120.34,1219.45 1120.29,1217.75 1120.54,1216.11C1121.22,1211.65 1124.2,1208.66 1128.4,1207.96C1132.87,1207.22 1136.91,1209.34 1138.79,1213.73C1139.52,1215.44 1139.94,1217.39 1140.05,1219.25C1140.65,1229.24 1141.1,1239.24 1141.6,1249.23C1141.67,1249.25 1141.73,1249.25 1141.79,1249.25Z" style="fill:rgb(206,173,107);fill-rule:nonzero;"/>
            <path d="M1087.35,1239.94C1087.35,1246.61 1087.55,1253.29 1087.29,1259.95C1087.04,1266.4 1083.36,1269.73 1077.35,1269.53C1072.68,1269.38 1069.64,1267.13 1068.67,1262.59C1068.08,1259.82 1067.86,1256.92 1067.83,1254.08C1067.7,1243.83 1067.71,1233.59 1067.7,1223.34C1067.7,1221.68 1067.74,1219.99 1068.01,1218.36C1069.09,1211.84 1072.66,1208.71 1078.47,1209.04C1083.75,1209.34 1086.94,1212.93 1087.26,1219.2C1087.44,1222.77 1087.32,1226.35 1087.33,1229.92C1087.34,1233.26 1087.33,1236.59 1087.33,1239.93C1087.34,1239.94 1087.35,1239.94 1087.35,1239.94Z" style="fill:rgb(205,171,104);fill-rule:nonzero;"/>
            <path d="M1026.95,1240.55C1026.95,1246.75 1027.04,1252.96 1026.92,1259.16C1026.8,1265.55 1022.58,1270.29 1017.24,1270.31C1011.65,1270.33 1007.23,1265.84 1007.16,1259.54C1007.02,1246.9 1007.12,1234.25 1007.14,1221.61C1007.15,1218.14 1007.97,1214.97 1010.93,1212.76C1017.65,1207.75 1025.92,1211.24 1026.65,1219.82C1027.24,1226.69 1026.77,1233.64 1026.77,1240.56C1026.84,1240.55 1026.9,1240.55 1026.95,1240.55Z" style="fill:rgb(206,174,108);fill-rule:nonzero;"/>
            <path d="M1261.9,1250.33C1261.7,1252.68 1261.78,1255.1 1261.23,1257.37C1260.01,1262.36 1256.13,1265.17 1251.39,1264.91C1246.56,1264.65 1243,1261.54 1242.33,1256.43C1241.71,1251.73 1241.5,1246.96 1241.23,1242.22C1240.78,1234.39 1240.34,1226.56 1240.09,1218.73C1240.02,1216.65 1240.39,1214.43 1241.09,1212.46C1242.42,1208.73 1246.05,1206.46 1250.01,1206.56C1253.92,1206.66 1257.02,1208.4 1258.39,1212.1C1259.36,1214.73 1259.92,1217.61 1260.08,1220.41C1260.67,1230.37 1261.02,1240.35 1261.46,1250.32C1261.6,1250.32 1261.75,1250.32 1261.9,1250.33Z" style="fill:rgb(205,172,106);fill-rule:nonzero;"/>
            <path d="M1359.84,1219.01C1359.7,1212.11 1362.6,1207.9 1367.91,1206.87C1373.56,1205.77 1378.58,1209.92 1379.42,1216.81C1380.57,1226.27 1381.45,1235.77 1382.44,1245.25C1382.71,1247.85 1383.17,1250.45 1383.27,1253.06C1383.47,1258.69 1379.81,1263.12 1374.74,1263.62C1369.09,1264.18 1365.05,1261.46 1364.05,1255.53C1362.82,1248.26 1362.18,1240.88 1361.34,1233.54C1360.78,1228.56 1360.31,1223.58 1359.84,1219.01Z" style="fill:rgb(205,172,106);fill-rule:nonzero;"/>
            <path d="M1441.1,1254.74C1441.15,1257.82 1437.12,1262.91 1432.2,1263.51C1426.98,1264.15 1422.04,1260.65 1420.97,1254.82C1419.95,1249.23 1419.62,1243.51 1419.05,1237.84C1418.48,1232.17 1417.99,1226.49 1417.48,1220.81C1417.12,1216.83 1417.8,1213.14 1421.12,1210.53C1426.96,1205.95 1435.07,1208.91 1436.75,1216.22C1437.23,1218.29 1437.31,1220.46 1437.55,1222.58C1438.66,1232.5 1439.75,1242.42 1441.1,1254.74Z" style="fill:rgb(205,172,106);fill-rule:nonzero;"/>
            <path d="M1293.59,1226.77C1293.59,1224.27 1293.44,1220.23 1293.63,1216.2C1293.88,1210.65 1297.26,1207.09 1302.3,1206.71C1307,1206.36 1310.86,1209.11 1312.23,1214.13C1312.85,1216.4 1313.08,1218.81 1313.22,1221.17C1313.79,1230.41 1314.26,1239.66 1314.74,1248.91C1314.8,1250.09 1314.89,1251.3 1314.77,1252.47C1314.16,1258.55 1310.8,1261.99 1305.4,1262.13C1299.59,1262.28 1295.82,1258.85 1295.29,1252.48C1294.62,1244.44 1294.22,1236.38 1293.59,1226.77Z" style="fill:rgb(205,172,106);fill-rule:nonzero;"/>
        </g>
    </g>
</svg>
