<?xml version="1.0" encoding="UTF-8" standalone="no"?>
<!DOCTYPE svg PUBLIC "-//W3C//DTD SVG 1.1//EN" "http://www.w3.org/Graphics/SVG/1.1/DTD/svg11.dtd">
<svg width="100px" height="100px" viewBox="0 0 757 757" version="1.1" xmlns="http://www.w3.org/2000/svg" xmlns:xlink="http://www.w3.org/1999/xlink" xml:space="preserve" xmlns:serif="http://www.serif.com/" style="fill-rule:evenodd;clip-rule:evenodd;stroke-linejoin:round;stroke-miterlimit:2;">
    <g transform="matrix(1,0,0,1,-868,-879)">
        <g>
            <path d="M1266.14,886.76C1271.52,887.4 1276.88,888.11 1282.27,888.65C1286.95,889.11 1291.69,889.14 1296.34,889.78C1303.28,890.74 1310.17,892.06 1317.08,893.25C1336.06,896.52 1354.5,901.8 1372.58,908.36C1413.95,923.37 1451.52,944.97 1485.24,973.3C1528.52,1009.67 1561.61,1053.73 1584.95,1105.15C1596.4,1130.37 1604.74,1156.64 1610.24,1183.77C1612.11,1192.97 1613.7,1202.27 1614.75,1211.59C1617.02,1231.78 1618.25,1252.07 1617.1,1272.38C1616.51,1282.84 1614.79,1293.23 1614.04,1303.69C1613.18,1315.65 1611.02,1327.37 1608.4,1339.02C1600.71,1373.26 1588.32,1405.72 1571.38,1436.43C1558.08,1460.53 1542.29,1482.89 1524.01,1503.47C1491.52,1540.05 1453.2,1568.98 1409.31,1590.53C1381.98,1603.95 1353.34,1613.71 1323.57,1620.02C1312.67,1622.33 1301.63,1623.96 1290.64,1625.82C1289.05,1626.09 1287.38,1625.9 1285.74,1625.92C1284.97,1625.96 1284.2,1626 1283.43,1626.04C1280.2,1626.36 1276.97,1626.69 1273.74,1627.01C1272.24,1627.06 1270.74,1627.11 1269.23,1627.16C1259.47,1627.45 1249.71,1627.88 1239.94,1627.97C1234.89,1628.02 1229.83,1627.46 1224.78,1627.18C1223.27,1627.12 1221.76,1627.07 1220.25,1627.01C1217.03,1626.79 1213.81,1626.58 1210.58,1626.36C1209.45,1626.21 1208.31,1626.06 1207.17,1625.91C1200.36,1625.04 1193.52,1624.38 1186.76,1623.27C1145.62,1616.56 1106.78,1603.09 1070.11,1583.34C1046.2,1570.46 1024,1555.08 1003.51,1537.23C963.04,1501.99 931.59,1460.01 909.27,1411.23C894.84,1379.68 885.07,1346.75 879.91,1312.4C876.51,1289.73 875.18,1266.97 875.97,1244.12C876.53,1227.99 878.13,1211.92 880.82,1195.96C887.13,1158.45 898.9,1122.76 916.12,1088.89C931.52,1058.61 950.8,1031.02 973.83,1005.99C1006.97,969.95 1045.79,941.75 1090.03,920.96C1118.59,907.53 1148.48,898.09 1179.5,892.44C1189.41,890.63 1199.53,889.93 1209.56,888.79C1216.02,888.05 1222.49,887.43 1228.96,886.76C1229.72,886.74 1230.47,886.72 1231.23,886.69C1242.11,886.69 1252.99,886.68 1263.88,886.68C1264.63,886.71 1265.38,886.74 1266.14,886.76ZM1274.85,1608.52C1280.92,1607.78 1286.98,1606.8 1293.08,1606.35C1304.49,1605.52 1315.64,1603.09 1326.68,1600.44C1400.63,1582.69 1462.82,1545.33 1512.89,1488.01C1543.02,1453.52 1565.35,1414.49 1580.13,1371.18C1585.99,1354.01 1591.04,1336.6 1593.33,1318.49C1594.83,1306.64 1597.48,1294.88 1598.25,1283C1600.13,1254.17 1599.11,1225.36 1593.85,1196.91C1591.22,1182.66 1587.98,1168.44 1583.73,1154.6C1562.68,1086.03 1524.36,1028.91 1468.68,983.61C1420.06,944.06 1364.7,919.38 1302.84,909.43C1291.78,907.65 1280.59,906.68 1269.46,905.34C1267.96,905.29 1266.47,905.25 1264.97,905.2C1252.63,905.19 1240.28,905.19 1227.94,905.18C1226.09,905.24 1224.23,905.3 1222.38,905.36C1220.4,905.61 1218.43,905.92 1216.44,906.1C1196.82,907.89 1177.43,910.97 1158.33,915.96C1135.42,921.94 1113.29,930.01 1092.05,940.43C1046.21,962.91 1007.06,993.91 974.53,1033.3C948.47,1064.85 928.65,1099.94 914.84,1138.41C906.8,1160.79 900.77,1183.72 897.73,1207.34C896.32,1218.31 894.94,1229.33 894.54,1240.37C893.59,1266.3 894.69,1292.09 899.42,1317.75C905.15,1348.82 914.27,1378.73 927.76,1407.28C948.44,1451.05 976.86,1489.03 1013.12,1521.15C1034.44,1540.04 1057.79,1555.92 1082.89,1569.33C1115.51,1586.76 1150.38,1597.73 1186.46,1604.93C1197.15,1607.06 1208.1,1608.65 1219.13,1608.57C1219.55,1608.59 1219.97,1608.62 1220.39,1608.64C1238.14,1610.04 1255.9,1610.13 1273.65,1608.59C1274.05,1608.56 1274.45,1608.54 1274.85,1608.52Z" style="fill:rgb(205,171,104);fill-rule:nonzero;"/>
            <path d="M1220.26,1627.03C1221.77,1627.09 1223.28,1627.14 1224.79,1627.2C1223.28,1627.14 1221.77,1627.08 1220.26,1627.03Z" style="fill:rgb(216,208,170);fill-rule:nonzero;"/>
            <path d="M1269.23,1627.18C1270.73,1627.13 1272.23,1627.08 1273.74,1627.03C1272.24,1627.07 1270.74,1627.13 1269.23,1627.18Z" style="fill:rgb(217,210,174);fill-rule:nonzero;"/>
            <path d="M1207.18,1625.93C1208.32,1626.08 1209.45,1626.23 1210.59,1626.38C1209.45,1626.23 1208.32,1626.08 1207.18,1625.93Z" style="fill:rgb(219,214,181);fill-rule:nonzero;"/>
            <path d="M1231.23,886.7C1230.47,886.72 1229.72,886.74 1228.96,886.77C1229.71,886.75 1230.47,886.73 1231.23,886.7Z" style="fill:rgb(236,205,165);fill-rule:nonzero;"/>
            <path d="M1266.14,886.76C1265.39,886.74 1264.63,886.71 1263.88,886.69C1264.63,886.71 1265.38,886.74 1266.14,886.76Z" style="fill:rgb(236,205,165);fill-rule:nonzero;"/>
            <path d="M1283.43,1626.05C1284.2,1626.01 1284.97,1625.97 1285.74,1625.93C1284.97,1625.97 1284.2,1626.01 1283.43,1626.05Z" style="fill:rgb(217,210,174);fill-rule:nonzero;"/>
            <path d="M1227.94,905.19C1226.13,906.48 1224.27,906.5 1222.38,905.37C1224.23,905.31 1226.08,905.25 1227.94,905.19Z" style="fill:rgb(220,215,183);fill-rule:nonzero;"/>
            <path d="M1269.46,905.34C1267.96,905.29 1266.47,905.25 1264.97,905.2C1266.46,905.25 1267.96,905.29 1269.46,905.34Z" style="fill:rgb(218,212,178);fill-rule:nonzero;"/>
            <path d="M1219.13,1608.56C1219.55,1608.58 1219.97,1608.61 1220.38,1608.63C1219.97,1608.6 1219.55,1608.58 1219.13,1608.56Z" style="fill:rgb(240,211,176);fill-rule:nonzero;"/>
            <path d="M1273.64,1608.58C1274.04,1608.56 1274.44,1608.54 1274.84,1608.52C1274.45,1608.54 1274.05,1608.56 1273.64,1608.58Z" style="fill:rgb(239,210,174);fill-rule:nonzero;"/>
            <path d="M1351.04,1516C1346.41,1516.12 1341.77,1516.23 1337.14,1516.36C1335.98,1516.19 1334.81,1516.02 1333.65,1515.85C1320.17,1514.56 1307.32,1510.89 1294.87,1505.65C1270.15,1495.26 1248.49,1480.13 1228.56,1462.42C1190.39,1428.51 1160.46,1388.12 1135.84,1343.63C1113.22,1302.74 1096.15,1259.69 1085.84,1214.04C1083.65,1204.34 1081.58,1194.6 1079.76,1184.82C1079,1180.75 1079.09,1176.53 1078.66,1172.39C1076.77,1153.94 1076.11,1135.44 1077.7,1116.96C1078.57,1106.91 1079.91,1096.9 1082.44,1087.03C1087.2,1068.54 1094.72,1051.47 1106.62,1036.46C1107.85,1034.9 1109.21,1033.39 1110.75,1032.15C1114.56,1029.07 1118.7,1029.9 1121.07,1034.24C1128.64,1048.1 1136.13,1062.01 1143.66,1075.89C1159.15,1104.46 1174.64,1133.03 1190.16,1161.58C1193.08,1166.95 1193.05,1168.03 1188.76,1172.47C1185.33,1176.02 1184.76,1180.5 1184.44,1185.04C1183.85,1193.27 1185.26,1201.33 1186.97,1209.32C1191.16,1228.93 1197.94,1247.68 1206.14,1265.93C1218.7,1293.85 1233.77,1320.3 1252.82,1344.36C1261.42,1355.21 1270.7,1365.34 1282.67,1372.74C1287.78,1375.9 1292.97,1377.01 1298.76,1375.74C1300,1375.47 1301.25,1375.27 1302.51,1375.1C1305.14,1374.74 1307.13,1375.61 1308.28,1378.12C1308.66,1378.94 1309.1,1379.74 1309.52,1380.55C1329.96,1420.26 1350.41,1459.98 1370.85,1499.69C1371.27,1500.5 1371.68,1501.31 1372.08,1502.12C1375.58,1509.05 1374.56,1511.57 1367.16,1513.41C1362.98,1514.45 1358.68,1515.04 1354.43,1515.83C1353.3,1515.89 1352.17,1515.95 1351.04,1516Z" style="fill:rgb(204,170,103);fill-rule:nonzero;"/>
            <path d="M1256.6,1130.89C1256.92,1134.04 1255.34,1135.62 1252.79,1136.96C1237.21,1145.17 1221.7,1153.52 1206.14,1161.77C1201.51,1164.22 1200.55,1163.93 1198,1159.29C1186.1,1137.65 1174.23,1115.99 1162.39,1094.32C1150.72,1072.97 1139.08,1051.6 1127.42,1030.24C1126.81,1029.12 1126.16,1028.03 1125.46,1026.97C1122.51,1022.49 1122.58,1021.95 1127.31,1019.27C1132.37,1016.41 1137.49,1013.66 1142.59,1010.89C1152.96,1005.25 1163.31,999.59 1173.72,994.02C1179.03,991.18 1180.4,991.66 1183.24,996.76C1205.77,1037.21 1228.31,1077.66 1250.83,1118.12C1252.33,1120.82 1253.8,1123.54 1255.12,1126.33C1255.8,1127.76 1256.12,1129.37 1256.6,1130.89Z" style="fill:rgb(204,171,103);fill-rule:nonzero;"/>
            <path d="M1436.6,1474.45C1435.65,1475.6 1434.94,1476.87 1433.87,1477.66C1432.28,1478.83 1430.46,1479.72 1428.69,1480.64C1415.82,1487.34 1402.93,1494.02 1390.06,1500.72C1388.61,1501.47 1387.18,1502.27 1385.79,1503.11C1381.01,1506.02 1380.1,1505.82 1377.48,1500.79C1366.92,1480.51 1356.41,1460.21 1345.88,1439.92C1335.1,1419.15 1324.32,1398.37 1313.53,1377.6C1310.77,1372.28 1311.11,1370.8 1316.2,1368.07C1331.06,1360.09 1345.94,1352.14 1360.84,1344.23C1366.15,1341.41 1366.95,1341.59 1369.75,1346.83C1377.88,1362.03 1385.93,1377.27 1393.95,1392.52C1407.3,1417.89 1420.61,1443.28 1433.92,1468.67C1434.83,1470.42 1435.58,1472.26 1436.6,1474.45Z" style="fill:rgb(204,171,103);fill-rule:nonzero;"/>
            <path d="M1333.65,1515.85C1334.81,1516.02 1335.98,1516.19 1337.14,1516.36C1335.97,1516.19 1334.81,1516.02 1333.65,1515.85Z" style="fill:rgb(220,217,186);fill-rule:nonzero;"/>
            <path d="M1351.04,1516C1352.17,1515.94 1353.31,1515.89 1354.44,1515.83C1353.3,1515.89 1352.17,1515.95 1351.04,1516Z" style="fill:rgb(220,217,186);fill-rule:nonzero;"/>
        </g>
    </g>
</svg>
