<?xml version="1.0" encoding="UTF-8" standalone="no"?>
<!DOCTYPE svg PUBLIC "-//W3C//DTD SVG 1.1//EN" "http://www.w3.org/Graphics/SVG/1.1/DTD/svg11.dtd">
<svg width="100%" height="100%" viewBox="0 0 1011 1011" version="1.1" xmlns="http://www.w3.org/2000/svg" xmlns:xlink="http://www.w3.org/1999/xlink" xml:space="preserve" xmlns:serif="http://www.serif.com/" style="fill-rule:evenodd;clip-rule:evenodd;stroke-linejoin:round;stroke-miterlimit:2;">
    <g transform="matrix(1,0,0,1,-664,-550)">
        <g>
            <path d="M1279.68,1165.79C1240.4,1151.81 1214.27,1125.11 1199.5,1086.26C1193.59,1085.61 1187.01,1085.25 1180.57,1084.13C1144.26,1077.82 1115.39,1059.55 1093.64,1029.79C1081.1,1012.63 1074.45,993.5 1074.13,972.32C1074.05,966.9 1075.62,961.45 1076.61,954.8C1065.09,950.02 1053.08,945.04 1041.38,940.18C1034.76,948.83 1029.08,957.06 1022.58,964.58C1013.15,975.48 1001.45,983.6 988.44,989.8C984.64,991.61 980.92,993.83 976.9,994.94C968.31,997.32 959.64,999.95 950.84,1000.92C938.46,1002.29 926.02,1001.45 914.19,996.71C904.38,992.78 897.02,986.11 893.62,976.07C888.23,960.16 885.56,943.77 887.81,926.92C890.36,907.84 893.15,888.78 895.79,869.71C896.04,867.9 896.3,866 896.04,864.21C892.17,837.17 897.84,811.58 908.48,786.99C917.05,767.18 929.98,750.36 945.51,735.26C969.25,712.16 997.74,696.87 1027.71,684.15C1039.26,679.25 1051.95,677.03 1064.09,673.5C1069.62,671.89 1075.35,670.62 1080.54,668.24C1113.59,653.05 1147.97,642.27 1183.89,636.56C1194.83,634.82 1205.81,633.3 1216.82,632.13C1220.65,631.72 1223.15,630 1225.47,627.35C1237.82,613.22 1254.04,607.13 1272.13,604.88C1303.39,600.99 1332.33,609.04 1360.16,622.25C1379.12,631.25 1396.36,642.86 1411.24,657.82C1413.04,659.63 1415.44,661.01 1417.79,662.05C1436.63,670.38 1455.42,678.86 1472.62,690.32C1486,699.24 1498.97,708.77 1512.25,717.85C1514.97,719.71 1518.11,721.57 1521.28,722.07C1534.61,724.17 1546.52,729.59 1557.78,736.69C1579.78,750.56 1596.29,769.66 1607.89,792.61C1617.75,812.13 1622.12,832.97 1615.61,854.78C1614.65,858 1614.63,860.79 1615.71,863.97C1625.8,893.48 1630.56,923.86 1630.13,955.04C1630.07,959.08 1631.31,961.77 1634.47,964.5C1645.86,974.32 1656.97,984.46 1668,994.7C1671.32,997.78 1673.97,1001.56 1672.59,1006.64C1670.44,1014.58 1660.85,1017.16 1654.07,1011.26C1646.31,1004.5 1638.97,997.26 1631.38,990.31C1613.45,973.9 1594.6,958.64 1574.84,944.47C1558.93,933.06 1542.65,922.28 1525,913.81C1517.67,910.3 1509.77,907.97 1502.08,905.26C1500.71,904.78 1499.08,905.06 1497.24,904.97C1496.2,912.53 1499.73,918.27 1502.94,923.82C1515.57,945.65 1531.9,964.65 1548.96,983.09C1551.16,985.47 1552.72,988.87 1553.51,992.06C1554.91,997.71 1552.07,1002.75 1546.43,1004.47C1542.49,1005.67 1538.17,1006.08 1534.02,1006.1C1513.94,1006.22 1493.85,1005.64 1473.78,1006.16C1453.68,1006.68 1433.84,1009.88 1414.65,1016.03C1408.69,1017.94 1402.94,1020.98 1397.63,1024.36C1390.61,1028.81 1389.57,1035.79 1395.39,1041.81C1400.84,1047.45 1407.28,1052.2 1413.61,1056.9C1415.18,1058.07 1418.12,1058.1 1420.25,1057.69C1439.51,1053.99 1458.93,1052.29 1478.52,1052.72C1482.46,1052.81 1486.46,1053.19 1490.3,1054.04C1495.17,1055.11 1498.04,1059.1 1498.08,1063.81C1498.12,1068.3 1494.29,1073.14 1489.55,1073.94C1486.72,1074.41 1483.76,1074.23 1480.86,1074.13C1458.58,1073.37 1436.52,1074.84 1414.94,1080.78C1405,1083.52 1395.15,1086.57 1386.96,1093.3C1381.27,1097.97 1381.01,1101.07 1387.36,1104.78C1394.38,1108.88 1402,1111.98 1409.48,1115.26C1410.72,1115.8 1412.58,1115.2 1414.08,1114.83C1434.78,1109.82 1455.8,1108.41 1477,1109.35C1480.56,1109.51 1484.43,1110.26 1487.51,1111.94C1494.22,1115.6 1494.27,1124.21 1487.63,1127.88C1484.81,1129.44 1481.13,1130.26 1477.9,1130.11C1456.91,1129.12 1436.22,1130.94 1415.93,1136.4C1406.21,1139.01 1396.82,1142.55 1388.81,1148.97C1381.02,1155.22 1380.93,1159.97 1388.58,1166.11C1398.99,1174.46 1411.56,1177.74 1424.1,1180.92C1426.15,1181.44 1428.75,1180.41 1430.94,1179.65C1443.63,1175.23 1456.25,1170.6 1468.96,1166.23C1471.65,1165.31 1474.61,1164.82 1477.46,1164.81C1482.49,1164.79 1486.05,1167.81 1487.25,1172.45C1488.39,1176.81 1486.47,1181.52 1482.18,1183.86C1479.9,1185.11 1477.34,1185.98 1474.8,1186.62C1458.08,1190.83 1442.08,1196.93 1427.04,1205.33C1422.56,1207.83 1418.86,1211.71 1413.45,1216.03C1418.92,1218.47 1422.71,1220.99 1426.85,1221.85C1436.64,1223.89 1446.55,1226.04 1456.5,1226.56C1505.9,1229.17 1554.56,1223.69 1602.5,1211.74C1618.11,1207.85 1633.66,1203.72 1648.3,1196.76C1651.26,1195.35 1654.93,1194.88 1658.26,1194.91C1662.84,1194.96 1666.19,1197.63 1667.83,1201.98C1669.41,1206.16 1668.24,1209.65 1663.89,1212.95C1661.62,1214.68 1659.06,1216.25 1656.38,1217.21C1619.49,1230.43 1581.65,1239.57 1542.69,1244.2C1520.11,1246.88 1497.52,1248.85 1474.77,1248.47C1455.2,1248.14 1435.68,1246.93 1416.96,1240.63C1411.56,1238.81 1406.52,1235.73 1401.57,1232.8C1391.74,1226.99 1389.09,1213.21 1397.37,1202.23C1398.75,1200.41 1400.36,1198.76 1402.22,1196.61C1397.12,1194.43 1392.31,1192.92 1388.09,1190.43C1381.54,1186.57 1374.78,1182.7 1369.18,1177.64C1357.56,1167.14 1358.38,1146.96 1370.19,1136.57C1373.74,1133.45 1377.43,1130.48 1381.44,1127.12C1378.07,1124.62 1375.04,1122.14 1371.78,1119.99C1357.47,1110.59 1356.49,1089.28 1370.94,1078.9C1376.69,1074.77 1382.5,1070.71 1388.8,1066.26C1388.12,1065.54 1387.11,1064.19 1385.82,1063.18C1378.28,1057.3 1373.28,1049.53 1370.04,1040.78C1368.02,1035.32 1368.14,1029.66 1370.96,1023.95C1375.09,1015.59 1380.85,1009.23 1388.92,1004.53C1404.04,995.73 1420.59,991.62 1437.58,988.77C1461.89,984.68 1486.4,983.69 1510.99,984.12C1513.52,984.16 1516.06,984.13 1520.03,984.13C1513.95,976.48 1508.65,970.08 1503.64,963.46C1493.28,949.78 1482.67,936.17 1477.4,919.52C1475.76,914.33 1474.95,908.66 1474.98,903.22C1475.05,892.34 1482.4,885.14 1493.32,884.09C1504.47,883.02 1514.81,886.2 1524.86,890.38C1546.18,899.24 1565.65,911.37 1584.35,924.8C1591.79,930.14 1599.15,935.58 1608.07,942.09C1607.48,934.98 1607.42,929.32 1606.49,923.82C1603.24,904.56 1600.05,885.29 1593.77,866.69C1593.08,864.64 1593.33,862.06 1593.79,859.86C1597.44,842.47 1597.43,825.66 1590.35,808.71C1581.84,788.34 1568.88,771.73 1551.57,758.62C1539.72,749.65 1526.57,742.81 1510.99,742.52C1509.12,742.49 1506.93,741.41 1505.47,740.15C1479.52,717.7 1450.68,699.65 1419.35,686C1407.26,680.74 1397.11,673.99 1387.2,665.4C1362.58,644.05 1333.84,630.51 1301.29,626.15C1284.59,623.91 1267.81,624.03 1252.83,633.03C1246.19,637.02 1240.51,642.77 1234.94,648.28C1232.52,650.68 1230.46,652.18 1226.98,652.42C1178.56,655.69 1132.21,667.38 1088.33,688.05C1078.43,692.71 1068.47,696.22 1057.98,698.97C1038.55,704.08 1019.46,710.33 1002.28,721.15C987.49,730.46 974.15,741.53 962.06,754.24C948.47,768.53 936.67,783.99 929.19,802.29C925.43,811.5 922.05,821.1 920.31,830.84C918.56,840.64 918.12,850.9 918.81,860.85C919.67,873.33 916.33,884.91 913.44,896.59C909.04,914.34 908.47,932.17 911.93,949.94C913.16,956.22 916.59,962.28 919.93,967.9C923.69,974.24 930.37,976.7 937.41,977.4C959.49,979.62 979.17,973.66 996.43,959.61C1008.34,949.92 1017.01,937.9 1023.31,923.97C1026.55,916.82 1032.51,913.93 1039.56,916.74C1059.36,924.64 1078.97,933.04 1098.68,941.25C1096.86,949.31 1094.95,956.4 1093.69,963.59C1090.78,980.18 1095.32,994.91 1105.52,1008.08C1106.48,1009.33 1107.35,1010.65 1108.22,1011.96C1133.97,1050.46 1169.45,1068.71 1216.06,1063.83C1217.34,1063.7 1218.64,1063.81 1220.42,1063.81C1220.65,1066.08 1221.03,1068.11 1221.04,1070.14C1221.14,1086.68 1228.51,1100.18 1239.06,1112.12C1244.8,1118.61 1251.09,1124.7 1257.68,1130.34C1269.46,1140.43 1283.04,1146.3 1298.9,1145.89C1299.64,1145.87 1300.39,1146.26 1301.77,1146.64C1301.26,1171.31 1310.07,1191.18 1333.69,1203.42C1333.39,1207.83 1333.21,1212.52 1332.74,1217.18C1331.11,1233.39 1331.25,1249.47 1337.53,1264.8C1348.39,1291.31 1371.52,1309.73 1400.77,1309.15C1414.65,1308.88 1414.58,1309.06 1428.23,1314.39C1446.77,1321.63 1465.82,1321.61 1485.14,1318.04C1502.83,1314.77 1519.2,1308.18 1533.76,1297.84C1544.51,1290.21 1554.28,1281.31 1559.47,1268.45C1562.55,1260.81 1568.99,1257.5 1574.95,1259.54C1580.91,1261.58 1584.01,1266.64 1582.13,1272.57C1580.87,1276.53 1578.82,1280.34 1576.61,1283.89C1558.16,1313.57 1529.74,1328.71 1497.19,1337.21C1474.92,1343.03 1452.36,1343.83 1429.9,1337.52C1428.38,1337.09 1426.73,1336.88 1425.37,1336.15C1415.08,1330.6 1404.06,1329.97 1392.57,1329.5C1367.69,1328.49 1347.55,1316.89 1332.09,1297.72C1313.83,1275.07 1306.67,1248.96 1309.87,1219.98C1310.13,1217.65 1309.69,1214.12 1308.16,1212.89C1292.99,1200.68 1285.71,1183.86 1279.93,1166.07C1279.84,1165.9 1279.63,1165.72 1279.68,1165.79Z" style="fill:rgb(205,172,105);fill-rule:nonzero;"/>
            <path d="M1061.56,1369.67C1076.09,1369.67 1090.62,1369.51 1105.14,1369.73C1115,1369.88 1124.65,1371.61 1133.14,1376.99C1137.31,1379.63 1141.18,1382.82 1144.85,1386.13C1149.92,1390.7 1151.2,1396.22 1150.18,1403.27C1148.32,1416.05 1147.61,1429 1146.68,1441.9C1144.51,1472.18 1142.49,1502.47 1140.43,1532.76C1140.16,1536.71 1140.3,1540.71 1139.75,1544.62C1138.76,1551.7 1132.99,1556.67 1127.03,1555.96C1121.03,1555.25 1116.68,1549.92 1117.01,1542.86C1117.51,1532.05 1118.28,1521.24 1119.19,1510.46C1120.36,1496.53 1121.95,1482.63 1123.04,1468.69C1124.73,1447.11 1126.13,1425.52 1127.72,1403.93C1128.16,1397.94 1126.62,1394.9 1120.51,1393.56C1113.08,1391.93 1105.47,1390.42 1097.9,1390.23C1086.07,1389.94 1074.2,1391.19 1062.36,1391.08C1038.09,1390.86 1013.78,1390.94 989.57,1389.41C974.51,1388.45 963.48,1378.74 954.7,1366.9C941.69,1349.36 938.14,1329.47 941.46,1308.31C942.42,1302.24 941.08,1298.06 936.33,1294.57C933.99,1292.85 931.9,1290.79 929.53,1289.13C920.4,1282.76 916.26,1273.68 915.28,1262.94C914.17,1250.85 916.45,1239.32 921.25,1228.19C925.17,1219.09 923.27,1215.94 913.81,1212.27C904.26,1208.56 894.64,1204.73 885.73,1199.74C876.9,1194.79 870.9,1186.95 870.57,1176.19C870.45,1172.33 870.86,1168.28 871.96,1164.6C875.67,1152.27 882.85,1141.83 890.68,1131.79C897.65,1122.85 904.45,1113.77 911.51,1104.91C920.98,1093.02 925.02,1079.52 924.61,1064.41C924.38,1055.97 924.55,1047.49 924.99,1039.06C925.5,1029.4 934.69,1024.54 942.44,1029.82C944.34,1031.12 946.19,1033.8 946.43,1036.03C948.19,1052.33 949.12,1068.75 946.32,1084.97C945.37,1090.46 942.02,1095.59 939.48,1100.74C932.42,1115.05 922.1,1127.05 912.34,1139.51C905.7,1147.98 899.76,1157.12 894.52,1166.53C890.03,1174.6 892.04,1178.56 900.59,1181.62C910.03,1184.99 919.6,1188.01 929.05,1191.36C933.01,1192.76 937.03,1194.24 940.65,1196.32C948.37,1200.76 952.04,1209.51 949.47,1218.03C947.81,1223.53 945.36,1228.83 942.8,1233.99C938.6,1242.46 936.33,1251.25 937.1,1260.73C937.53,1265.99 939.41,1270.24 944.08,1273.34C948.02,1275.95 951.35,1279.46 955.11,1282.36C961.97,1287.64 964.71,1294.65 964.48,1303.12C964.27,1311.04 964.04,1318.97 964.16,1326.89C964.29,1335.81 967.14,1343.89 972.05,1351.4C979.4,1362.66 990.48,1366.93 1003.02,1367.73C1022.49,1368.96 1042.01,1369.49 1061.5,1370.32C1061.54,1370.1 1061.55,1369.89 1061.56,1369.67Z" style="fill:rgb(205,172,105);fill-rule:nonzero;"/>
            <path d="M1244.09,1355.7C1242.67,1375.72 1242.37,1395.89 1239.55,1415.71C1235.88,1441.55 1230.73,1467.22 1225.18,1492.74C1222.56,1504.78 1218.04,1516.51 1213.4,1527.98C1210.37,1535.49 1205.65,1542.33 1201.52,1549.38C1200.61,1550.93 1199.18,1552.28 1197.72,1553.36C1193.24,1556.65 1187.75,1556.41 1183.85,1552.96C1179.83,1549.41 1179.15,1544.45 1182,1539.3C1184.93,1534.01 1187.99,1528.79 1190.81,1523.44C1199.3,1507.36 1202.47,1489.59 1206.98,1472.23C1214.19,1444.5 1217.31,1416.15 1219.36,1387.73C1221.12,1363.23 1221.5,1338.6 1218.11,1314.13C1217.39,1308.92 1216.29,1303.64 1214.42,1298.75C1211.88,1292.09 1216.08,1285.55 1220.33,1284.23C1226.72,1282.25 1232.34,1285.39 1235.29,1292.41C1240.91,1305.81 1242.09,1320.01 1242.96,1334.24C1243.4,1341.35 1243.04,1348.51 1243.04,1355.64C1243.4,1355.66 1243.75,1355.68 1244.09,1355.7Z" style="fill:rgb(205,172,106);fill-rule:nonzero;"/>
            <path d="M1437.46,634.61C1416.37,634.29 1399.75,619.19 1397.88,599.79C1396.39,584.36 1408.12,564.95 1428.22,560.67C1447.76,556.51 1465.35,564.74 1474.46,582.62C1478.86,591.27 1478.9,600.52 1475.26,609.51C1468.89,625.3 1454.54,634.67 1437.46,634.61ZM1437.67,615.75C1448.2,615.76 1457.28,606.99 1457.17,596.92C1457.06,586.94 1448.6,578.74 1438.15,578.48C1427.43,578.22 1418.39,586.55 1418.26,596.81C1418.13,606.92 1427.17,615.74 1437.67,615.75Z" style="fill:rgb(206,173,107);fill-rule:nonzero;"/>
            <path d="M1278.7,1387.45C1279.39,1360.31 1279.97,1333.16 1280.89,1306.03C1281.01,1302.52 1282.33,1298.78 1284.05,1295.67C1286.7,1290.87 1291.95,1289.42 1297.07,1291.2C1302.1,1292.94 1305.04,1297.46 1304.84,1302.75C1303.7,1333.01 1302.61,1363.27 1301.48,1393.53C1301.21,1400.64 1300.96,1407.75 1300.53,1414.85C1300.15,1421.18 1295.33,1425.94 1289.51,1426.03C1283.27,1426.12 1278.41,1421.22 1278.3,1414.35C1278.16,1405.39 1278.26,1396.42 1278.26,1387.46C1278.41,1387.45 1278.55,1387.45 1278.7,1387.45Z" style="fill:rgb(205,172,106);fill-rule:nonzero;"/>
            <path d="M1348.29,1494.04C1348.29,1477.68 1348.26,1461.33 1348.3,1444.97C1348.32,1437.77 1350.84,1433.56 1356.01,1431.65C1363.73,1428.8 1371.41,1433.55 1371.93,1441.8C1372.27,1447.29 1372.05,1452.82 1372,1458.33C1371.95,1463.08 1371.78,1467.82 1371.68,1472.57C1371.18,1496.3 1370.68,1520.03 1370.16,1543.76C1370.13,1545.33 1370.05,1546.95 1369.66,1548.46C1368.33,1553.55 1364.4,1556.51 1359.27,1556.49C1353.79,1556.47 1349.55,1553.18 1348.54,1547.84C1348.15,1545.79 1348.29,1543.64 1348.29,1541.53C1348.27,1525.7 1348.28,1509.87 1348.28,1494.03L1348.29,1494.04Z" style="fill:rgb(206,173,107);fill-rule:nonzero;"/>
            <path d="M1433.91,1496.26C1433.91,1512.88 1433.87,1529.49 1433.93,1546.11C1433.95,1551.15 1433.04,1555.46 1427.89,1557.92C1420.39,1561.52 1412.61,1557.34 1411.69,1548.99C1411.52,1547.42 1411.56,1545.83 1411.55,1544.25C1411.23,1512.08 1410.92,1479.91 1410.61,1447.75C1410.59,1446.17 1410.45,1444.56 1410.68,1443.01C1411.52,1437.36 1416.73,1432.96 1422.24,1433.11C1428.21,1433.27 1433.49,1438.06 1433.64,1444.05C1433.85,1452.22 1433.62,1460.4 1433.6,1468.58C1433.58,1477.81 1433.6,1487.04 1433.6,1496.27C1433.71,1496.26 1433.81,1496.26 1433.91,1496.26Z" style="fill:rgb(205,172,105);fill-rule:nonzero;"/>
            <path d="M823.97,925.15C806.21,925.93 792.94,910.19 792.92,896.87C792.9,883.58 806.44,868.05 822.98,868.25C840.02,868.46 852.95,880.16 853.15,896.27C853.35,912.58 840.78,925.03 823.97,925.15ZM808.67,896.66C807.42,903.92 817.39,911.32 823.53,910.96C831.29,910.49 837.73,904.44 837.66,896.93C837.58,889.09 831.29,882.7 823.75,882.67C815.98,882.64 807.53,889.93 808.67,896.66Z" style="fill:rgb(206,174,109);fill-rule:nonzero;"/>
            <path d="M1346.41,890.42C1347.69,902.2 1334.7,917.58 1317.97,917.14C1306.34,916.84 1290.18,907.97 1290.32,890.3C1290.44,875.11 1304.3,863.77 1318.47,863.98C1335.03,864.24 1347.55,878.12 1346.41,890.42ZM1318.41,877.82C1310.67,877.98 1305.12,883.33 1305.18,890.57C1305.24,897.91 1310.89,903.24 1318.48,903.1C1325.94,902.96 1332.11,897.25 1332.06,890.53C1332,883.95 1325.26,877.68 1318.41,877.82Z" style="fill:rgb(206,172,106);fill-rule:nonzero;"/>
            <path d="M1305.32,755.63C1291.28,756.98 1277.06,743.93 1276.83,729.94C1276.63,717.38 1289.78,702.97 1304.75,703.19C1320.18,703.42 1332.9,714.89 1333.13,729.26C1333.36,744.48 1318.07,757.08 1305.32,755.63ZM1305.14,717.17C1297.29,717.17 1291.43,722.24 1291.27,729.17C1291.1,736.11 1297.95,742.71 1305.09,742.48C1312.88,742.24 1318.22,737.03 1318.22,729.69C1318.23,722.2 1312.97,717.17 1305.14,717.17Z" style="fill:rgb(206,173,107);fill-rule:nonzero;"/>
            <path d="M1221.4,1009.42C1205.64,1009.42 1192.18,997.64 1193.17,983.43C1194.04,970.97 1202.68,957.07 1221.43,957.07C1236.54,957.07 1249.07,968.74 1249.01,983.01C1248.94,998.73 1236.3,1010 1221.4,1009.42ZM1221.71,970.95C1214.43,970.85 1207.16,977.22 1207.24,983.64C1207.32,989.59 1214.77,996.34 1221.24,996.34C1228.26,996.33 1233.92,990.98 1234.17,984.1C1234.45,976.46 1229.33,971.06 1221.71,970.95Z" style="fill:rgb(206,173,108);fill-rule:nonzero;"/>
            <path d="M1599.57,753.58C1585.28,753.12 1571.6,741.52 1572.06,726.61C1572.48,712.82 1585.58,700.67 1599.99,700.91C1615.29,701.17 1628.28,713.5 1627.96,727.46C1627.63,741.77 1614.62,753.75 1599.57,753.58ZM1600.02,739.89C1607.88,739.8 1613.23,734.8 1613.3,727.45C1613.38,719.67 1607.73,714.19 1599.81,714.36C1592.44,714.53 1586.3,720.2 1586.2,726.95C1586.09,734.45 1592,739.98 1600.02,739.89Z" style="fill:rgb(206,173,107);fill-rule:nonzero;"/>
            <path d="M1126.73,811.12C1114.04,812.2 1098.24,800.48 1098.94,785.06C1099.59,770.77 1111.17,759.21 1126.03,758.82C1141.39,758.41 1154.55,772.37 1154.61,784.79C1154.66,797.31 1142.25,812.11 1126.73,811.12ZM1126.23,772.65C1117.93,772.77 1113.25,777.29 1113.18,785.07C1113.12,792.1 1117.68,797.98 1126.83,798.07C1134.11,798.14 1140.22,791.96 1140.3,785.25C1140.38,777.87 1134.42,772.53 1126.23,772.65Z" style="fill:rgb(206,173,108);fill-rule:nonzero;"/>
            <path d="M1078.93,644.57C1063.32,644.63 1051.66,633.76 1051.51,619.01C1051.35,603.71 1063.12,592.25 1078.81,592.31C1096.79,592.38 1106.66,607.91 1106.85,618.14C1107.11,632.66 1094.54,644.5 1078.93,644.57ZM1092.73,618.38C1092.59,611.42 1085.88,605.83 1077.99,606.11C1070.19,606.38 1065.62,610.95 1065.62,618.48C1065.62,626.03 1071.04,631.55 1078.53,631.62C1085.71,631.68 1092.87,625.01 1092.73,618.38Z" style="fill:rgb(206,173,108);fill-rule:nonzero;"/>
            <path d="M1368.71,1390.43C1368.71,1393.59 1368.97,1396.77 1368.65,1399.89C1368.07,1405.62 1364.4,1408.95 1358.85,1409.22C1352.63,1409.53 1348.55,1407.36 1347.96,1401.48C1347.21,1393.99 1347.39,1386.27 1348.31,1378.79C1348.98,1373.33 1353.91,1370.66 1359.49,1371.09C1364.77,1371.5 1368.38,1375.16 1368.83,1380.96C1369.07,1384.1 1368.87,1387.27 1368.87,1390.43L1368.71,1390.43Z" style="fill:rgb(205,172,105);fill-rule:nonzero;"/>
            <path d="M1292.73,1482.88C1292.61,1489.76 1286.1,1496.17 1279.45,1495.94C1273.42,1495.73 1268.97,1491.27 1268.88,1485.34C1268.78,1478.64 1275.19,1472.53 1282.34,1472.51C1288.62,1472.5 1292.84,1476.71 1292.73,1482.88Z" style="fill:rgb(206,173,108);fill-rule:nonzero;"/>
        </g>
    </g>
</svg>
